<svg width="65" height="57" viewBox="0 0 65 57" fill="none" xmlns="http://www.w3.org/2000/svg">
<path d="M50.1007 14.5413C52.6424 14.4312 54.9572 10.3274 53.2105 8.47788C52.7937 8.03663 52.2247 7.77015 51.6178 7.77002C50.3087 7.76974 47.7837 7.86855 44.9753 8.50046C41.597 9.26174 38.5944 11.1924 36.4443 13.9076C35.1301 15.5665 37.0647 17.6211 39.0491 16.8853C42.0827 15.7604 45.9324 14.7218 50.1007 14.5413Z" fill="#686868"/>
<path d="M14.9513 14.5413C12.4097 14.4312 10.0948 10.3274 11.8415 8.4779C12.2583 8.03664 12.8273 7.77015 13.4343 7.77002C14.7436 7.76973 17.269 7.86851 20.0768 8.50046C23.455 9.26049 26.4577 11.1924 28.6084 13.9076C29.923 15.567 27.9885 17.6215 26.0035 16.8854C22.9698 15.7605 19.1198 14.7218 14.9513 14.5413Z" fill="#686868"/>
<path d="M23.5661 1.04705C23.1294 0.720539 22.5764 0.618755 22.0408 0.720962C19.7206 1.16372 19.3179 5.63596 21.254 6.98897C22.5862 7.91994 23.7956 8.92569 24.8842 9.95125C27.2626 12.1919 31.1978 10.7035 29.567 7.87191C27.4731 4.23626 24.8064 1.97444 23.5661 1.04705Z" fill="#686868"/>
<path d="M41.38 1.04709C41.8168 0.720547 42.3699 0.618761 42.9055 0.72098C45.226 1.16379 45.629 5.63654 43.6927 6.98985C42.3597 7.92153 41.1496 8.92807 40.0603 9.95439C37.6816 12.1957 33.7463 10.7072 35.3771 7.87483C37.4714 4.23752 40.1393 1.97474 41.38 1.04709Z" fill="#686868"/>
<path d="M49.7277 14.2371C52.2721 14.1278 54.5863 10.0192 52.8359 8.16937C52.4188 7.72861 51.8497 7.4625 51.2429 7.46232C49.9313 7.46191 47.3987 7.56049 44.5815 8.19317C41.1949 8.95489 38.1849 10.8867 36.0295 13.6034C33.5765 16.694 32.2882 19.2806 32.1021 19.6652C32.9597 19.1401 40.5791 14.6302 49.7277 14.2371Z" fill="#686868"/>
<path d="M14.4753 14.2371C11.9309 14.1278 9.61677 10.0193 11.3671 8.16939C11.7842 7.72861 12.3533 7.46251 12.9601 7.46232C14.272 7.4619 16.8051 7.56046 19.6216 8.19317C23.0082 8.95364 26.0182 10.8867 28.1742 13.6034C30.6272 16.694 31.9161 19.2806 32.1021 19.6652C31.2441 19.1401 23.6242 14.6301 14.4753 14.2371Z" fill="#686868"/>
<path d="M23.1177 0.734134C22.6811 0.408354 22.1284 0.306726 21.5932 0.408659C19.2702 0.851125 18.867 5.33083 20.8063 6.68406C22.1459 7.61881 23.3616 8.62882 24.4555 9.65854C26.8371 11.9005 30.7749 10.4098 29.1419 7.57579C27.0407 3.92954 24.3616 1.66219 23.1177 0.734134Z" fill="#686868"/>
<path d="M40.9792 0.734168C41.4159 0.408362 41.9686 0.306732 42.5039 0.408677C44.8272 0.851197 45.2306 5.33142 43.2911 6.68494C41.9507 7.6204 40.7343 8.63121 39.6399 9.66169C37.2579 11.9044 33.3199 10.4135 34.953 7.57871C37.0545 3.9308 39.7349 1.66249 40.9792 0.734168Z" fill="#686868"/>
<path fill-rule="evenodd" clip-rule="evenodd" d="M23.2026 0.0888342L22.8909 0.589427C23.2026 0.0888342 23.2026 0.0888342 23.2026 0.0888342C23.2051 0.0903895 23.2076 0.0919472 23.2101 0.093511C23.2113 0.094276 23.2127 0.0951163 23.2138 0.0958474C23.22 0.0997504 23.2286 0.10522 23.2396 0.112257C23.2615 0.12633 23.2929 0.146679 23.3329 0.173316C23.4131 0.226585 23.5283 0.305034 23.6734 0.408774C23.9634 0.616211 24.3732 0.925048 24.8611 1.33622C25.8362 2.15808 27.1269 3.39181 28.3969 5.04534C29.8455 6.93124 35.1821 6.93118 36.6307 5.04532C37.9009 3.3918 39.1916 2.15807 40.1668 1.33621C40.6547 0.925037 41.0645 0.616201 41.3546 0.408764C41.4996 0.305024 41.6148 0.226576 41.695 0.173307C41.7351 0.14667 41.7664 0.126321 41.7884 0.112248C41.7993 0.105211 41.8079 0.0997416 41.8141 0.0958387C41.8164 0.0943824 41.8194 0.0924932 41.8208 0.0916283C41.8213 0.0913147 41.8218 0.0910022 41.8223 0.0906896C41.8234 0.090029 41.8243 0.09015 41.825 0.0911859C41.8309 0.100039 41.8706 0.161586 42.1371 0.589427L42.0578 0.46207C41.9294 0.256035 42.0093 -0.0349645 42.2478 0.0104496L53.5228 2.15802C53.7983 2.2105 53.9989 2.44915 54.0026 2.72907C54.0064 3.009 53.8124 3.25295 53.5384 3.3128C50.0917 4.06571 47.0957 5.48775 44.5375 7.2044C44.1798 7.44448 44.4968 8.05199 44.9172 7.95744C47.0122 7.48694 48.9497 7.30634 50.3624 7.24303C51.0694 7.21133 51.6469 7.20893 52.0494 7.21454C52.2507 7.21735 52.4083 7.22216 52.5166 7.22634C52.5708 7.22842 52.6126 7.23035 52.6414 7.23178C52.6558 7.2325 52.6669 7.2331 52.6747 7.23353L52.6839 7.23405L52.6875 7.23425C52.6875 7.23425 52.688 7.23429 52.6523 7.82263L52.6875 7.23425C52.8373 7.24333 52.9785 7.30902 53.0816 7.41792L60.9933 15.7793C61.1827 15.9795 61.208 16.284 61.0542 16.5126C60.9004 16.7412 60.6085 16.8331 60.3511 16.7338C53.9876 14.2797 47.4247 15.0274 42.2705 16.5035C38.0329 17.7171 34.7881 19.4117 33.4592 20.1653C33.1477 20.3419 32.8713 20.6615 32.5137 20.6439C32.077 20.6654 31.7653 20.2128 31.3826 20.0015C29.9067 19.1867 26.8173 17.6358 22.8636 16.5035C17.7093 15.0274 11.1464 14.2797 4.78293 16.7338C4.52556 16.8331 4.23364 16.7412 4.07983 16.5126C3.92601 16.284 3.95131 15.9795 4.14075 15.7793L12.0524 7.41792C12.1555 7.30902 12.2962 7.24336 12.446 7.23429L12.4818 7.82263C12.446 7.23429 12.446 7.23429 12.446 7.23429L12.4501 7.23405L12.4593 7.23353C12.4671 7.2331 12.4782 7.2325 12.4926 7.23178C12.5215 7.23035 12.5633 7.22842 12.6175 7.22634C12.7258 7.22216 12.8835 7.21735 13.0848 7.21454C13.4873 7.20893 14.065 7.21133 14.7721 7.24302C16.1849 7.30634 18.1223 7.4869 20.2167 7.95741C20.612 8.04618 20.9034 7.48204 20.5677 7.25523C17.9928 5.51585 14.9714 4.07314 11.4896 3.31281C11.2156 3.25297 11.0215 3.00902 11.0253 2.72909C11.0291 2.44917 11.2296 2.2105 11.5051 2.15802L22.7802 0.0104496C22.9259 -0.017299 23.0767 0.0106832 23.2026 0.0888342ZM26.8556 12.8516C24.9452 11.0048 22.5661 9.69327 19.9574 9.1075C17.9484 8.65619 16.0832 8.48182 14.7191 8.42069C14.0379 8.39016 13.4836 8.38795 13.1013 8.39328C12.8739 8.39645 12.6588 8.494 12.5025 8.65917L12.1158 9.06781C10.5626 10.7093 12.2815 13.9068 14.5404 13.9722C17.6623 14.0627 20.6117 14.6322 23.1894 15.3704C26.2742 16.2538 28.8473 17.3847 30.5775 18.2481C30.6763 18.2974 30.7784 18.1875 30.7208 18.0933C29.8893 16.7343 28.6336 14.8889 26.9403 12.9483C26.9122 12.9161 26.884 12.8838 26.8556 12.8516ZM36.9579 14.3086C36.0453 15.4584 37.3462 16.9522 38.7207 16.4366C39.7125 16.0646 40.7929 15.7002 41.9447 15.3704C44.5224 14.6322 47.4717 14.0627 50.5936 13.9722C52.8525 13.9068 54.5714 10.7093 53.0182 9.06781L52.6314 8.65904C52.4752 8.49395 52.2602 8.39645 52.0329 8.39328C51.6507 8.38795 51.0965 8.39016 50.4154 8.42069C49.0515 8.48182 47.1864 8.65616 45.1768 9.10745C41.9262 9.83858 39.0322 11.6941 36.9579 14.3086ZM33.1503 17.4318C33.1449 17.5158 33.2553 17.5506 33.2993 17.4788C34.158 16.0761 35.4524 14.1746 37.1983 12.174C38.9325 10.187 41.1198 8.0936 43.7758 6.29539C45.4997 5.12817 45.1277 1.75912 43.0825 1.36957L42.5258 1.26353C42.3571 1.2314 42.1821 1.26715 42.0424 1.36704C41.7753 1.55811 41.3904 1.84785 40.9287 2.23693C40.0048 3.01559 38.7767 4.18912 37.568 5.76259C35.4926 8.46447 33.4774 12.3403 33.1503 17.4318ZM29.1026 13.5766C29.8874 14.5655 31.415 13.9903 31.0581 12.7793C30.2111 9.90601 28.8488 7.57125 27.4596 5.76257C26.251 4.18911 25.023 3.01558 24.0991 2.23692C23.6374 1.84784 23.2526 1.5581 22.9855 1.36703C22.8458 1.26714 22.6708 1.2314 22.5022 1.26353L21.9455 1.36955C19.9007 1.75903 19.529 5.1277 21.2528 6.2946C23.8492 8.05224 25.9976 10.092 27.7124 12.0388C28.2065 12.5194 28.6711 13.033 29.1026 13.5766Z" fill="#181818"/>
<path fill-rule="evenodd" clip-rule="evenodd" d="M32.4848 23.5491C32.3879 23.4919 32.2695 23.423 32.1305 23.344C31.7005 23.0994 31.0735 22.7577 30.2793 22.365C28.6917 21.58 26.4316 20.5894 23.7377 19.7651C18.3603 18.1196 11.1918 17.1184 4.19293 19.8174C3.88871 19.9347 3.73737 20.276 3.85491 20.5796C3.97245 20.8833 4.31436 21.0343 4.61859 20.917C11.2714 18.3515 18.1423 19.2859 23.3915 20.8921C26.011 21.6937 28.2109 22.6579 29.7551 23.4213C30.5267 23.8029 31.1335 24.1337 31.5458 24.3682C31.7519 24.4854 31.9094 24.5785 32.0144 24.6417C32.0669 24.6734 32.1063 24.6975 32.1321 24.7135C32.145 24.7214 32.1546 24.7274 32.1606 24.7312L32.1671 24.7352L32.1684 24.7361C32.3624 24.8346 32.4848 24.8278 32.4848 24.8278" fill="#181818"/>
<path fill-rule="evenodd" clip-rule="evenodd" d="M32.4848 23.5491C32.5817 23.4919 32.7001 23.423 32.839 23.344C33.269 23.0994 33.896 22.7577 34.6902 22.365C36.2778 21.58 38.5379 20.5894 41.2318 19.7651C46.6092 18.1196 53.7777 17.1184 60.7766 19.8174C61.0808 19.9347 61.2322 20.276 61.1146 20.5796C60.9971 20.8833 60.6552 21.0343 60.3509 20.917C53.6982 18.3515 46.8272 19.2859 41.578 20.8921C38.9586 21.6937 36.7586 22.6579 35.2145 23.4213C34.4428 23.8029 33.836 24.1337 33.4237 24.3682C33.2176 24.4854 33.0602 24.5785 32.9551 24.6417C32.9026 24.6734 32.8632 24.6975 32.8374 24.7135C32.8245 24.7214 32.815 24.7274 32.8089 24.7312L32.8024 24.7352L32.8011 24.7361C32.6071 24.8346 32.4848 24.8278 32.4848 24.8278" fill="#181818"/>
<path d="M35.4179 33.8408C35.431 33.8524 35.4385 33.8691 35.4385 33.8866C35.4385 33.9034 35.4455 33.9196 35.4578 33.9311L40.5854 38.7508C40.8085 38.9424 41.1352 38.9516 41.3702 38.7747C44.7482 36.2323 48.2515 34.0357 49.6672 34.0357C51.2706 34.0352 52.8245 34.5913 54.0635 35.609C55.3025 36.6267 56.1499 38.0429 56.4609 39.6159C56.7719 41.1888 56.5272 42.821 55.7687 44.2336C54.8307 45.9807 54.7006 48.775 56.5165 49.5714C56.5525 49.5872 56.5885 49.6029 56.6245 49.6186C57.5265 50.0148 58.4485 50.3637 59.3869 50.6636C60.3871 50.9891 61.5029 50.7093 62.1176 49.8557C63.5031 47.9315 64.427 45.7044 64.8061 43.3477C65.2769 40.4202 64.8865 37.4188 63.6824 34.7091C62.4783 31.9994 60.5125 29.6982 58.0242 28.0855C55.5359 26.4729 52.6324 25.6184 49.6672 25.626C46.1051 25.626 41.6942 27.7407 36.1696 32.0829C35.9313 32.2708 35.6151 32.5276 35.26 32.8202C34.9893 33.0433 34.9831 33.4553 35.2456 33.688L35.4179 33.8408Z" fill="#686868"/>
<path d="M29.5756 48.0335C29.5613 48.0209 29.5531 48.0027 29.5531 47.9836C29.5531 47.9652 29.5455 47.9476 29.5321 47.935L24.4063 43.1219C24.1831 42.9302 23.8564 42.9208 23.6212 43.0977C20.2433 45.6378 16.7401 47.8615 15.3244 47.8615C13.7159 47.8699 12.1546 47.3179 10.9088 46.3004C9.66298 45.2828 8.8104 43.8631 8.49749 42.2853C8.1846 40.7074 8.43091 39.0699 9.19413 37.6539C10.1352 35.9079 10.2683 33.1061 8.45335 32.3061C8.42136 32.292 8.38934 32.278 8.3573 32.2639C7.46923 31.8763 6.57136 31.5378 5.59007 31.2189C4.59584 30.8964 3.48748 31.1757 2.87723 32.0243C1.49206 33.9504 0.569238 36.1794 0.192006 38.5376C-0.27599 41.4631 0.115884 44.4617 1.32 47.1688C2.52412 49.8758 4.48864 52.1748 6.97479 53.7864C9.46094 55.398 12.3617 56.2527 15.3244 56.2466C18.8865 56.2466 23.2974 54.132 28.8221 49.7898C29.0603 49.6018 29.3766 49.3451 29.7316 49.0524C30.0023 48.8293 30.0085 48.4174 29.746 48.1846L29.5756 48.0335Z" fill="#686868"/>
<path d="M55.4675 52.3033C51.8582 50.6893 48.4845 48.5931 45.4388 46.0721C43.0369 44.5374 40.7568 42.82 38.6188 40.935L32.4956 35.1896C31.4456 34.2574 30.1846 33.178 28.8059 32.0936C23.2813 27.7514 18.8704 25.6367 15.3083 25.6367C13.2281 25.6329 11.1811 26.0556 9.28957 26.866C8.06625 27.3902 8.27667 29.0552 9.49906 29.5815C13.1084 31.1955 16.4821 33.2916 19.5278 35.8127C21.9285 37.3472 24.2085 39.0629 26.3478 40.9448L32.4956 46.6854C33.5455 47.6176 34.8065 48.697 36.1852 49.7814C41.7099 54.1236 46.1208 56.2333 49.6828 56.2333C51.7558 56.2381 53.796 55.8193 55.6824 55.0152C56.9024 54.4952 56.6873 52.8236 55.4675 52.3033Z" fill="#181818"/>
</svg>
