<svg width="17" height="17" viewBox="0 0 17 17" fill="none" xmlns="http://www.w3.org/2000/svg">
<g clip-path="url(#clip0_238_7927)">
<path d="M14.7603 4.71875L11.479 3.78125L10.5415 0.5H3.979C3.20235 0.5 2.57275 1.12959 2.57275 1.90625V15.0938C2.57275 15.8704 3.20235 16.5 3.979 16.5H13.354C14.1307 16.5 14.7603 15.8704 14.7603 15.0938V4.71875Z" fill="#4086F4"/>
<path d="M14.7603 4.71875V15.0938C14.7603 15.8704 14.1307 16.5 13.354 16.5H8.6665V0.5H10.5415L11.479 3.78125L14.7603 4.71875Z" fill="#4175DF"/>
<path d="M14.7603 4.71875H11.479C10.9634 4.71875 10.5415 4.29688 10.5415 3.78125V0.5C10.6634 0.5 10.7853 0.546875 10.8696 0.640656L14.6196 4.39066C14.7134 4.475 14.7603 4.59688 14.7603 4.71875Z" fill="#80AEF8"/>
<path d="M11.479 8.03125H5.854C5.59491 8.03125 5.38525 7.82159 5.38525 7.5625C5.38525 7.30341 5.59491 7.09375 5.854 7.09375H11.479C11.7381 7.09375 11.9478 7.30341 11.9478 7.5625C11.9478 7.82159 11.7381 8.03125 11.479 8.03125Z" fill="#FFF5F5"/>
<path d="M11.479 9.90625H5.854C5.59491 9.90625 5.38525 9.69659 5.38525 9.4375C5.38525 9.17841 5.59491 8.96875 5.854 8.96875H11.479C11.7381 8.96875 11.9478 9.17841 11.9478 9.4375C11.9478 9.69659 11.7381 9.90625 11.479 9.90625Z" fill="#FFF5F5"/>
<path d="M11.479 11.7812H5.854C5.59491 11.7812 5.38525 11.5716 5.38525 11.3125C5.38525 11.0534 5.59491 10.8438 5.854 10.8438H11.479C11.7381 10.8438 11.9478 11.0534 11.9478 11.3125C11.9478 11.5716 11.7381 11.7812 11.479 11.7812Z" fill="#FFF5F5"/>
<path d="M9.604 13.6562H5.854C5.59491 13.6562 5.38525 13.4466 5.38525 13.1875C5.38525 12.9284 5.59491 12.7188 5.854 12.7188H9.604C9.8631 12.7188 10.0728 12.9284 10.0728 13.1875C10.0728 13.4466 9.8631 13.6562 9.604 13.6562Z" fill="#FFF5F5"/>
<path d="M8.6665 13.6562H9.604C9.8631 13.6562 10.0728 13.4466 10.0728 13.1875C10.0728 12.9284 9.8631 12.7188 9.604 12.7188H8.6665V13.6562Z" fill="#E3E7EA"/>
<path d="M8.6665 11.7812H11.479C11.7381 11.7812 11.9478 11.5716 11.9478 11.3125C11.9478 11.0534 11.7381 10.8438 11.479 10.8438H8.6665V11.7812Z" fill="#E3E7EA"/>
<path d="M8.6665 9.90625H11.479C11.7381 9.90625 11.9478 9.69659 11.9478 9.4375C11.9478 9.17841 11.7381 8.96875 11.479 8.96875H8.6665V9.90625Z" fill="#E3E7EA"/>
<path d="M8.6665 8.03125H11.479C11.7381 8.03125 11.9478 7.82159 11.9478 7.5625C11.9478 7.30341 11.7381 7.09375 11.479 7.09375H8.6665V8.03125Z" fill="#E3E7EA"/>
</g>
<defs>
<clipPath id="clip0_238_7927">
<rect width="16" height="16" fill="white" transform="translate(0.666504 0.5)"/>
</clipPath>
</defs>
</svg>
