<svg width="93" height="68" viewBox="0 0 93 68" fill="none" xmlns="http://www.w3.org/2000/svg">
<path d="M20.7881 18.7986L3.53638 30.3389L20.5292 55.7416L37.7809 44.2013L20.7881 18.7986Z" fill="#F5F5F5"/>
<path d="M28.8659 43.0009L28.6706 44.2125L20.094 42.9763L20.2893 41.7646L28.8659 43.0009Z" fill="#E0E0E0"/>
<path d="M24.5471 38.6777L25.7772 38.8546L24.4134 47.2989L23.1818 47.1205L24.5471 38.6777Z" fill="#E0E0E0"/>
<path d="M16.6545 27.9455C16.6668 27.9624 14.9386 29.1418 12.7937 30.5748C10.6488 32.0078 8.90055 33.1579 8.88825 33.1394C8.87595 33.121 10.6042 31.9432 12.7491 30.5087C14.894 29.0741 16.6345 27.9271 16.6545 27.9455Z" fill="#E0E0E0"/>
<path d="M22.9925 26.3527C23.0048 26.3711 20.1295 28.3146 16.5716 30.6948C13.0136 33.0749 10.1137 34.9892 10.1045 34.9723C10.0953 34.9554 12.9644 33.0088 16.527 30.6287C20.0895 28.2485 22.9802 26.3342 22.9925 26.3527Z" fill="#E0E0E0"/>
<path d="M24.2639 28.2531C24.2762 28.2715 21.401 30.2165 17.843 32.5967C14.2851 34.9769 11.3852 36.8911 11.376 36.8727C11.3668 36.8542 14.239 34.9107 17.7984 32.529C21.3579 30.1473 24.2516 28.2346 24.2639 28.2531Z" fill="#E0E0E0"/>
<path d="M25.5357 30.1554C25.548 30.1739 22.6727 32.1189 19.1148 34.4975C15.5568 36.8761 12.657 38.7935 12.657 38.775C12.657 38.7566 15.5184 36.8115 19.0779 34.4314C22.6374 32.0512 25.5234 30.137 25.5357 30.1554Z" fill="#E0E0E0"/>
<path d="M26.8027 32.0568C26.815 32.0752 23.9397 34.0187 20.3818 36.3989C16.8238 38.779 13.924 40.6933 13.9163 40.6749C13.9086 40.6564 16.7823 38.7129 20.3449 36.3328C23.9074 33.9526 26.8027 32.0383 26.8027 32.0568Z" fill="#E0E0E0"/>
<path d="M78.4758 35.8197L63.9872 45.5117L78.258 66.8453L92.7467 57.1533L78.4758 35.8197Z" fill="#F5F5F5"/>
<path d="M85.2609 56.1492L85.0964 57.1671L77.8928 56.1292L78.0589 55.1113L85.2609 56.1492Z" fill="#E0E0E0"/>
<path d="M81.6338 52.5195L82.6671 52.6687L81.5216 59.7599L80.4868 59.6108L81.6338 52.5195Z" fill="#E0E0E0"/>
<path d="M74.9996 43.5132C75.0119 43.5317 73.562 44.5234 71.7599 45.7273C69.9579 46.9312 68.488 47.8937 68.4757 47.8799C68.4634 47.8661 69.9148 46.8713 71.7153 45.6658C73.5158 44.4604 74.9873 43.4871 74.9996 43.5132Z" fill="#E0E0E0"/>
<path d="M80.3272 42.1691C80.3395 42.1876 77.927 43.8235 74.9457 45.8208C71.9643 47.8181 69.5242 49.4264 69.5119 49.408C69.4996 49.3895 71.912 47.7536 74.8934 45.7547C77.8748 43.7559 80.3103 42.1507 80.3272 42.1691Z" fill="#E0E0E0"/>
<path d="M81.3957 43.7648C81.408 43.7832 78.9955 45.4192 76.0142 47.418C73.0328 49.4169 70.5927 51.0221 70.5804 51.0037C70.5681 50.9852 72.9728 49.3569 75.9619 47.3581C78.9509 45.3592 81.3864 43.7479 81.3957 43.7648Z" fill="#E0E0E0"/>
<path d="M82.4628 45.3585C82.4751 45.377 80.0611 47.0129 77.0813 49.0118C74.1015 51.0106 71.6598 52.6158 71.6475 52.5974C71.6352 52.5789 74.0477 50.9445 77.029 48.9441C80.0104 46.9437 82.452 45.3431 82.4628 45.3585Z" fill="#E0E0E0"/>
<path d="M83.539 46.9591C83.5513 46.9776 81.1388 48.612 78.1575 50.6109C75.1761 52.6097 72.736 54.2149 72.7237 54.198C72.7114 54.1811 75.1238 52.5436 78.1052 50.5448C81.0865 48.5459 83.519 46.9407 83.539 46.9591Z" fill="#E0E0E0"/>
<path d="M55.5538 19.7327L39.7449 11.2773L27.2946 34.5555L43.1035 43.0109L55.5538 19.7327Z" fill="#F5F5F5"/>
<path d="M40.3977 35.7284L39.3952 36.0713L36.849 29.0339L37.853 28.6895L40.3977 35.7284Z" fill="#E0E0E0"/>
<path d="M41.9355 30.6797L42.3014 31.6899L35.3116 34.0839L34.9457 33.0737L41.9355 30.6797Z" fill="#E0E0E0"/>
<path d="M46.9019 20.2952C46.8896 20.3183 45.2875 19.4849 43.3209 18.4348C41.3544 17.3846 39.7722 16.5128 39.7845 16.4897C39.7968 16.4667 41.4005 17.3 43.367 18.3502C45.3336 19.4003 46.9142 20.2706 46.9019 20.2952Z" fill="#E0E0E0"/>
<path d="M50.6968 24.4836C50.6845 24.5067 48.0306 23.1106 44.7694 21.367C41.5083 19.6234 38.8759 18.1903 38.8882 18.1673C38.9005 18.1442 41.5528 19.5388 44.814 21.2839C48.0752 23.0291 50.7091 24.4605 50.6968 24.4836Z" fill="#E0E0E0"/>
<path d="M49.7648 26.2248C49.7525 26.2479 47.0986 24.8533 43.8374 23.1082C40.5762 21.363 37.9439 19.9315 37.9562 19.9085C37.9685 19.8854 40.6208 21.2815 43.882 23.0251C47.1432 24.7687 49.7771 26.2018 49.7648 26.2248Z" fill="#E0E0E0"/>
<path d="M48.8333 27.9666C48.821 27.9896 46.1671 26.5951 42.9059 24.8515C39.6447 23.1078 37.0124 21.6794 37.0247 21.6518C37.037 21.6241 39.6893 23.0233 42.9505 24.7669C46.2117 26.5105 48.8456 27.9435 48.8333 27.9666Z" fill="#E0E0E0"/>
<path d="M47.9013 29.7086C47.889 29.7317 45.2351 28.3371 41.9739 26.5935C38.7127 24.8499 36.0789 23.4169 36.0927 23.3938C36.1065 23.3708 38.7573 24.7654 42.0185 26.509C45.2797 28.2526 47.9136 29.6856 47.9013 29.7086Z" fill="#E0E0E0"/>
<path opacity="0.2" d="M47.9828 0H47.5861V6.76223H47.9828V0Z" fill="black"/>
<path d="M38.5236 14.944H57.0452C57.0452 14.944 55.3354 6.76562 47.6444 6.76562C40.8038 6.76562 38.5236 14.944 38.5236 14.944Z" fill="#2F5BB1"/>
<path d="M47.9828 0H47.5861V6.76223H47.9828V0Z" fill="#2F5BB1"/>
<path d="M89.0237 67.6279C89.0237 67.6494 69.1506 67.6678 44.6401 67.6678C20.1296 67.6678 0.253418 67.654 0.253418 67.6279C0.253418 67.6017 20.1235 67.5879 44.6401 67.5879C69.1567 67.5879 89.0237 67.6048 89.0237 67.6279Z" fill="#263238"/>
<path d="M5.16792 57.9967C5.42787 58.0154 5.68139 58.0863 5.91333 58.2052C6.14527 58.3241 6.35089 58.4885 6.51791 58.6886C6.85 59.0911 7.08515 59.5645 7.2052 60.0724C7.46505 61.0441 7.30515 62.1927 7.02838 63.1598C5.97668 62.7831 5.32629 61.6607 5.02954 61.0703C4.56826 60.1385 4.29304 58.1704 5.16331 57.9951" fill="#2F5BB1"/>
<path d="M8.5433 64.3392C8.38536 64.0943 8.29506 63.8119 8.28156 63.5208C8.26806 63.2297 8.33184 62.9402 8.46642 62.6817C8.60521 62.4256 8.79363 62.1998 9.02067 62.0174C9.2477 61.835 9.5088 61.6996 9.78873 61.6192C10.0455 61.5393 10.3438 61.507 10.5667 61.6561C10.6672 61.7321 10.7455 61.8337 10.7934 61.9503C10.8413 62.0668 10.857 62.1941 10.8389 62.3188C10.7985 62.5686 10.6924 62.8032 10.5314 62.9984C10.0194 63.6919 9.39819 64.2685 8.53253 64.3392" fill="#2F5BB1"/>
<path d="M8.66002 67.5874C8.6372 67.5221 8.62123 67.4546 8.61235 67.386C8.58468 67.2414 8.54777 67.0554 8.50318 66.8324C8.36517 66.222 8.32675 65.5932 8.38941 64.9704C8.4619 64.3447 8.70024 63.7496 9.07977 63.2468C9.19573 63.0965 9.32945 62.9607 9.47801 62.8424C9.51837 62.8104 9.56046 62.7807 9.60409 62.7533C9.61796 62.7417 9.63352 62.7324 9.65021 62.7256C9.45572 62.8917 9.27805 63.0766 9.11975 63.2776C8.76023 63.7809 8.53385 64.3669 8.46167 64.9812C8.36327 65.6977 8.48473 66.3543 8.55546 66.8263C8.59237 67.0615 8.62311 67.2522 8.64003 67.3844C8.65214 67.4514 8.65883 67.5193 8.66002 67.5874Z" fill="#263238"/>
<path d="M5.50635 59.4775C5.5239 59.5018 5.53837 59.5281 5.5494 59.556C5.57708 59.6175 5.61398 59.6943 5.65703 59.7912C5.75082 59.9957 5.88152 60.2925 6.03989 60.6599C6.35663 61.3964 6.781 62.4205 7.22382 63.5613C7.66664 64.7022 8.04334 65.7431 8.30012 66.5012C8.43235 66.8794 8.53537 67.1869 8.60763 67.4006C8.63992 67.5021 8.66452 67.5836 8.68451 67.6467C8.69549 67.6749 8.70322 67.7043 8.70758 67.7343C8.69198 67.7082 8.6796 67.6803 8.67068 67.6513C8.64761 67.5898 8.6184 67.5098 8.57996 67.4099L8.25553 66.5181C7.9803 65.7662 7.59591 64.7268 7.15463 63.5875C6.71334 62.4481 6.29512 61.421 5.99068 60.6799C5.83693 60.3155 5.71853 60.0188 5.63089 59.802C5.59092 59.7036 5.55863 59.6251 5.53402 59.5621C5.52247 59.5347 5.51322 59.5064 5.50635 59.4775Z" fill="#263238"/>
<path d="M7.40978 65.4397C7.0934 64.913 6.65619 64.4691 6.1343 64.1448C5.61241 63.8205 5.02082 63.625 4.40844 63.5746C4.10092 63.5531 3.72268 63.6054 3.5843 63.8821C3.44592 64.1589 3.63043 64.4972 3.84261 64.7217C4.29344 65.1933 4.87379 65.5209 5.51052 65.6632C6.14725 65.8055 6.81185 65.7561 7.42054 65.5212" fill="#2F5BB1"/>
<path d="M4.88184 64.4066C4.94703 64.4034 5.01238 64.406 5.07711 64.4143C5.15292 64.4184 5.2284 64.4271 5.30314 64.4405C5.39078 64.4574 5.4938 64.4666 5.60143 64.4973C5.72173 64.5228 5.84035 64.5557 5.95661 64.5957C6.09129 64.639 6.22325 64.6904 6.35176 64.7495C6.64735 64.8819 6.92694 65.0475 7.18513 65.2431C7.44034 65.4433 7.67149 65.6723 7.87396 65.9257C7.96139 66.036 8.04201 66.1516 8.11536 66.2717C8.18166 66.3754 8.24223 66.4827 8.29679 66.593C8.34299 66.6829 8.38406 66.7753 8.4198 66.8698C8.45063 66.9398 8.47682 67.0117 8.49821 67.0851C8.52099 67.1464 8.53798 67.2097 8.54896 67.2742C8.53204 67.2742 8.45824 67.0097 8.25067 66.6161C8.19414 66.5104 8.13204 66.4077 8.06462 66.3086C7.98969 66.1921 7.90859 66.0797 7.82168 65.9719C7.41952 65.4749 6.90665 65.0789 6.32409 64.8156C6.19032 64.7572 6.0627 64.7018 5.93816 64.6619C5.82382 64.6202 5.7073 64.5848 5.58913 64.5558C5.15861 64.4374 4.8803 64.4235 4.88184 64.4066Z" fill="#263238"/>
<path d="M35.9348 36.0622L30.4918 64.0153L29.7845 67.6747L66.0713 67.4994C67.7011 67.4917 69.1464 66.0449 69.6677 63.8953L76.1039 37.506C76.5022 35.8747 75.6288 34.1772 74.3926 34.1787L37.6569 34.2172C36.8574 34.2156 36.1409 34.9721 35.9348 36.0622Z" fill="#2F5BB1"/>
<g opacity="0.5">
<path d="M35.9348 36.0613L30.4918 64.0143L29.7845 67.6737L66.0713 67.4984C67.7011 67.4907 69.1464 66.0439 69.6677 63.8944L76.1039 37.505C76.5022 35.8737 75.6288 34.1762 74.3926 34.1777L37.6569 34.2162C36.8574 34.2146 36.1409 34.9711 35.9348 36.0613Z" fill="black"/>
</g>
<path d="M62.5948 62.1177L58.7509 31.1495C58.5971 29.881 57.5838 28.9339 56.3892 28.9385L47.9633 28.9646C47.6501 28.9682 47.341 29.0354 47.0547 29.1623C46.7684 29.2892 46.511 29.473 46.2981 29.7027L42.3004 33.9571L18.8677 34.0832C17.4363 34.0909 16.3354 35.447 16.5245 36.9692L20.0932 65.5911C20.247 66.858 21.2602 67.8037 22.4518 67.8021L63.2975 67.7206C67.8456 67.8144 68.2807 66.4721 68.2807 66.4721C63.0591 67.6268 62.5948 62.1254 62.5948 62.1177Z" fill="#2F5BB1"/>
<g opacity="0.5">
<path d="M44.9819 55.9251L43.6043 57.4043L32.995 47.859L34.3727 46.3799L44.9819 55.9251Z" fill="white"/>
<path d="M43.0275 46.0527L44.5497 47.4227L34.9506 57.7321L33.4269 56.3621L43.0275 46.0527Z" fill="white"/>
</g>
</svg>
