<svg width="343" height="138" viewBox="0 0 343 138" fill="none" xmlns="http://www.w3.org/2000/svg">
<rect opacity="0.43" width="343" height="138" rx="10" fill="#AEAEAE"/>
<path d="M189.099 55.9604C191.539 55.8547 193.762 51.9148 192.085 50.1392V50.1392C191.685 49.7156 191.138 49.4597 190.556 49.4596C189.299 49.4593 186.875 49.5542 184.179 50.1609C180.935 50.8917 178.053 52.7453 175.988 55.3519V55.3519C174.727 56.9446 176.584 58.9171 178.489 58.2107C181.401 57.1308 185.097 56.1337 189.099 55.9604Z" fill="#686868"/>
<path d="M155.354 55.9604C152.914 55.8547 150.692 51.9149 152.368 50.1392V50.1392C152.769 49.7156 153.315 49.4597 153.898 49.4596C155.155 49.4593 157.579 49.5542 160.275 50.1609C163.518 50.8905 166.401 52.7453 168.465 55.3519V55.3519C169.728 56.9451 167.87 58.9175 165.965 58.2109C163.052 57.1309 159.356 56.1337 155.354 55.9604Z" fill="#686868"/>
<path d="M163.625 43.0052C163.205 42.6917 162.674 42.594 162.16 42.6922V42.6922C159.933 43.1172 159.546 47.4108 161.405 48.7098C162.684 49.6035 163.845 50.5691 164.89 51.5537C167.174 53.7048 170.951 52.2758 169.386 49.5574C167.376 46.067 164.815 43.8955 163.625 43.0052Z" fill="#686868"/>
<path d="M180.727 43.0052C181.146 42.6918 181.677 42.594 182.191 42.6922V42.6922C184.419 43.1173 184.806 47.4114 182.947 48.7106C181.667 49.6051 180.506 50.5714 179.46 51.5567C177.176 53.7085 173.398 52.2794 174.964 49.5602C176.974 46.0682 179.536 43.8958 180.727 43.0052Z" fill="#686868"/>
<path d="M188.741 55.6684C191.184 55.5634 193.405 51.619 191.725 49.843V49.843C191.325 49.4198 190.778 49.1644 190.196 49.1642C188.936 49.1638 186.505 49.2585 183.8 49.8659C180.549 50.5971 177.659 52.4518 175.59 55.0599C173.235 58.0271 171.998 60.5104 171.82 60.8796C172.643 60.3755 179.958 56.0457 188.741 55.6684Z" fill="#686868"/>
<path d="M154.897 55.6684C152.454 55.5634 150.233 51.619 151.913 49.843V49.843C152.313 49.4199 152.86 49.1644 153.442 49.1642C154.702 49.1638 157.134 49.2584 159.838 49.8659C163.089 50.5959 165.979 52.4518 168.049 55.0599C170.404 58.0271 171.641 60.5104 171.82 60.8796C170.996 60.3755 163.68 56.0456 154.897 55.6684Z" fill="#686868"/>
<path d="M163.194 42.7048C162.775 42.392 162.244 42.2945 161.731 42.3923V42.3923C159.5 42.8171 159.113 47.1179 160.975 48.417C162.261 49.3144 163.428 50.2841 164.478 51.2727C166.765 53.4251 170.545 51.994 168.978 49.2731C166.96 45.7726 164.388 43.5958 163.194 42.7048Z" fill="#686868"/>
<path d="M180.342 42.7048C180.761 42.392 181.292 42.2945 181.806 42.3924V42.3924C184.036 42.8172 184.424 47.1184 182.562 48.4179C181.275 49.316 180.107 50.2864 179.056 51.2757C176.769 53.4288 172.989 51.9975 174.557 49.2759C176.574 45.7738 179.147 43.5961 180.342 42.7048Z" fill="#686868"/>
<path fill-rule="evenodd" clip-rule="evenodd" d="M163.276 42.0853L162.976 42.5659C163.276 42.0853 163.276 42.0853 163.276 42.0853V42.0853C163.278 42.0868 163.28 42.0883 163.283 42.0898C163.284 42.0905 163.285 42.0913 163.286 42.092C163.292 42.0958 163.301 42.101 163.311 42.1078C163.332 42.1213 163.362 42.1408 163.401 42.1664C163.478 42.2175 163.588 42.2928 163.728 42.3924C164.006 42.5916 164.399 42.8881 164.868 43.2828C165.804 44.0719 167.043 45.2563 168.262 46.8438V46.8438C169.653 48.6543 174.777 48.6543 176.167 46.8438V46.8438C177.387 45.2563 178.626 44.0719 179.562 43.2828C180.03 42.8881 180.424 42.5916 180.702 42.3924C180.842 42.2928 180.952 42.2175 181.029 42.1664C181.068 42.1408 181.098 42.1213 181.119 42.1078C181.129 42.101 181.138 42.0958 181.144 42.092C181.146 42.0906 181.149 42.0888 181.15 42.088C181.151 42.0877 181.151 42.0874 181.151 42.0871V42.0871C181.152 42.0864 181.153 42.0865 181.154 42.0875C181.16 42.096 181.198 42.1551 181.454 42.5659L181.377 42.4436C181.254 42.2458 181.331 41.9664 181.56 42.01V42.01L192.385 44.0718C192.649 44.1222 192.842 44.3513 192.845 44.62C192.849 44.8888 192.663 45.123 192.399 45.1805C189.09 45.9033 186.214 47.2685 183.758 48.9166C183.415 49.1471 183.719 49.7303 184.123 49.6395V49.6395C186.134 49.1878 187.994 49.0145 189.35 48.9537C190.029 48.9232 190.584 48.9209 190.97 48.9263C191.163 48.929 191.315 48.9336 191.419 48.9376C191.47 48.9396 191.511 48.9415 191.538 48.9429C191.552 48.9436 191.563 48.9441 191.57 48.9445L191.579 48.945L191.583 48.9452C191.583 48.9452 191.583 48.9453 191.549 49.5101L191.583 48.9452C191.726 48.954 191.862 49.017 191.961 49.1216L199.557 57.1489C199.738 57.3412 199.763 57.6334 199.615 57.8529C199.467 58.0724 199.187 58.1606 198.94 58.0653C192.831 55.7093 186.53 56.427 181.582 57.8442C177.513 59.0093 174.398 60.6362 173.122 61.3596C172.823 61.5292 172.558 61.8361 172.215 61.8192V61.8192V61.8192C171.795 61.8398 171.496 61.4053 171.129 61.2025C169.712 60.4202 166.746 58.9312 162.95 57.8442C158.002 56.427 151.701 55.7093 145.592 58.0653C145.345 58.1606 145.064 58.0724 144.917 57.8529C144.769 57.6334 144.793 57.3412 144.975 57.1489L152.571 49.1216C152.67 49.017 152.805 48.954 152.949 48.9453L152.983 49.5101C152.949 48.9453 152.949 48.9453 152.949 48.9453L152.953 48.945L152.961 48.9445C152.969 48.9441 152.98 48.9436 152.994 48.9429C153.021 48.9415 153.061 48.9396 153.113 48.9376C153.217 48.9336 153.369 48.929 153.562 48.9263C153.948 48.9209 154.503 48.9232 155.182 48.9537C156.538 49.0145 158.398 49.1878 160.409 49.6395V49.6395C160.789 49.7247 161.068 49.1831 160.746 48.9654C158.274 47.2955 155.373 45.9104 152.031 45.1805C151.767 45.123 151.581 44.8888 151.585 44.6201C151.588 44.3513 151.781 44.1222 152.045 44.0718L162.87 42.01C163.01 41.9834 163.155 42.0103 163.276 42.0853ZM166.783 54.3381C164.949 52.5652 162.664 51.306 160.16 50.7437C158.231 50.3104 156.441 50.143 155.131 50.0843C154.477 50.055 153.945 50.0528 153.578 50.058V50.058C153.36 50.061 153.153 50.1547 153.003 50.3132L152.632 50.7056C151.141 52.2815 152.791 55.3512 154.959 55.414C157.957 55.5009 160.788 56.0476 163.263 56.7563C166.225 57.6045 168.695 58.6902 170.356 59.5191C170.451 59.5664 170.549 59.4609 170.493 59.3705V59.3705C169.695 58.0658 168.49 56.2941 166.864 54.431C166.837 54.4001 166.81 54.3691 166.783 54.3381ZM176.481 55.7369C175.605 56.8409 176.854 58.2749 178.174 57.78C179.126 57.4228 180.163 57.073 181.269 56.7563C183.744 56.0476 186.575 55.5009 189.572 55.414C191.741 55.3512 193.391 52.2814 191.9 50.7055L191.529 50.3131C191.379 50.1546 191.172 50.061 190.954 50.058V50.058C190.587 50.0528 190.055 50.055 189.401 50.0843C188.092 50.143 186.301 50.3103 184.372 50.7436C181.251 51.4455 178.473 53.2269 176.481 55.7369V55.7369ZM172.826 58.7354C172.821 58.816 172.927 58.8494 172.969 58.7805V58.7805C173.793 57.4339 175.036 55.6083 176.712 53.6877C178.377 51.78 180.477 49.7703 183.027 48.0439C184.682 46.9233 184.325 43.6888 182.361 43.3149L181.827 43.2131C181.665 43.1822 181.497 43.2165 181.363 43.3124V43.3124C181.106 43.4959 180.737 43.774 180.294 44.1476C179.407 44.8951 178.227 46.0218 177.067 47.5324C175.075 50.1263 173.14 53.8473 172.826 58.7354ZM168.94 55.0343C169.693 55.9836 171.16 55.4314 170.817 54.2688C170.004 51.5103 168.696 49.2688 167.363 47.5324C166.202 46.0218 165.023 44.8951 164.136 44.1476C163.693 43.774 163.324 43.4959 163.067 43.3124V43.3124C162.933 43.2165 162.765 43.1822 162.603 43.213L162.069 43.3148C160.106 43.6888 159.749 46.9228 161.404 48.0431C163.896 49.7305 165.959 51.6888 167.605 53.5579C168.08 54.0192 168.526 54.5123 168.94 55.0343V55.0343Z" fill="#181818"/>
<path fill-rule="evenodd" clip-rule="evenodd" d="M172.187 64.6083C172.094 64.5534 171.98 64.4872 171.847 64.4114C171.434 64.1766 170.832 63.8485 170.07 63.4715C168.545 62.7179 166.376 61.7668 163.789 60.9754C158.627 59.3957 151.745 58.4345 145.025 61.0257C144.733 61.1383 144.588 61.466 144.701 61.7575C144.814 62.049 145.142 62.194 145.434 62.0814C151.821 59.6184 158.417 60.5154 163.457 62.0575C165.972 62.827 168.084 63.7527 169.566 64.4856C170.307 64.8519 170.89 65.1696 171.286 65.3947C171.483 65.5072 171.635 65.5966 171.735 65.6573C171.786 65.6877 171.824 65.7108 171.848 65.7262C171.861 65.7338 171.87 65.7395 171.876 65.7432L171.882 65.7471L171.883 65.7478C172.069 65.8425 172.187 65.8359 172.187 65.8359" fill="#181818"/>
<path fill-rule="evenodd" clip-rule="evenodd" d="M172.187 64.6083C172.28 64.5534 172.394 64.4872 172.527 64.4114C172.94 64.1766 173.542 63.8485 174.304 63.4715C175.828 62.7179 177.998 61.7668 180.585 60.9754C185.747 59.3957 192.629 58.4345 199.349 61.0257C199.641 61.1383 199.786 61.466 199.673 61.7575C199.56 62.049 199.232 62.194 198.94 62.0814C192.553 59.6184 185.956 60.5154 180.917 62.0575C178.402 62.827 176.29 63.7527 174.808 64.4856C174.067 64.8519 173.484 65.1696 173.088 65.3947C172.89 65.5072 172.739 65.5966 172.639 65.6573C172.588 65.6877 172.55 65.7108 172.526 65.7262C172.513 65.7338 172.504 65.7395 172.498 65.7432L172.492 65.7471L172.491 65.7478C172.304 65.8425 172.187 65.8359 172.187 65.8359" fill="#181818"/>
<path d="M175.003 74.4887C175.015 74.4998 175.023 74.5158 175.023 74.5326V74.5326C175.023 74.5488 175.029 74.5643 175.041 74.5754L179.964 79.2025V79.2025C180.178 79.3865 180.492 79.3954 180.717 79.2255C183.96 76.7846 187.324 74.6758 188.683 74.6758C190.222 74.6753 191.714 75.2092 192.903 76.1862C194.093 77.1633 194.907 78.5229 195.205 80.0331C195.504 81.5432 195.269 83.1101 194.541 84.4663V84.4663C193.64 86.1436 193.515 88.8262 195.259 89.5909C195.293 89.606 195.328 89.6211 195.362 89.6361C196.228 90.0166 197.113 90.3515 198.014 90.6394V90.6394C198.974 90.9519 200.046 90.6833 200.636 89.8638C201.966 88.0164 202.853 85.8783 203.217 83.6158C203.669 80.8052 203.294 77.9238 202.138 75.3223C200.982 72.7209 199.095 70.5116 196.706 68.9633C194.317 67.4151 191.53 66.5947 188.683 66.6021C185.263 66.6021 181.028 68.6323 175.724 72.801C175.496 72.9814 175.192 73.2279 174.851 73.5089C174.591 73.7231 174.585 74.1186 174.837 74.342L175.003 74.4887Z" fill="#686868"/>
<path d="M169.394 88.1145C169.38 88.1024 169.372 88.0849 169.372 88.0666V88.0666C169.372 88.0489 169.365 88.032 169.352 88.0199L164.431 83.3991V83.3991C164.217 83.2151 163.903 83.2061 163.678 83.3758C160.435 85.8145 157.071 87.9494 155.712 87.9494C154.168 87.9575 152.669 87.4275 151.473 86.4506C150.277 85.4737 149.458 84.1107 149.158 82.5959C148.858 81.0811 149.094 79.509 149.827 78.1496V78.1496C150.73 76.4734 150.858 73.7835 149.116 73.0154C149.085 73.0019 149.054 72.9884 149.023 72.9749C148.171 72.6028 147.309 72.2778 146.367 71.9716V71.9716C145.412 71.662 144.348 71.9302 143.762 72.7449C142.432 74.5941 141.546 76.7339 141.184 78.9979C140.735 81.8066 141.111 84.6854 142.267 87.2843C143.423 89.8832 145.309 92.0904 147.696 93.6376C150.083 95.1847 152.868 96.0053 155.712 95.9995C159.132 95.9995 163.367 93.9693 168.671 89.8006C168.899 89.6202 169.203 89.3737 169.544 89.0928C169.804 88.8785 169.81 88.483 169.558 88.2596L169.394 88.1145Z" fill="#686868"/>
<path d="M194.252 92.2135C190.787 90.6641 187.548 88.6516 184.624 86.2313C182.318 84.7579 180.129 83.1091 178.076 81.2995L172.197 75.7835C171.189 74.8886 169.979 73.8523 168.655 72.8113C163.351 68.6425 159.117 66.6123 155.697 66.6123C153.7 66.6086 151.734 67.0144 149.919 67.7925C148.744 68.2957 148.946 69.8942 150.12 70.3995V70.3995C153.585 71.949 156.824 73.9614 159.748 76.3818C162.053 77.855 164.241 79.5021 166.295 81.3089L172.197 86.8201C173.205 87.7151 174.416 88.7514 175.74 89.7924C181.044 93.9611 185.278 95.9866 188.698 95.9866C190.688 95.9912 192.647 95.5891 194.458 94.8171C195.629 94.3178 195.423 92.7131 194.252 92.2135V92.2135Z" fill="#181818"/>
</svg>
