<svg width="92" height="92" viewBox="0 0 92 92" fill="none" xmlns="http://www.w3.org/2000/svg">
<path d="M45.6565 91.1564C70.7854 91.1564 91.1565 70.7853 91.1565 45.6564C91.1565 20.5274 70.7854 0.156372 45.6565 0.156372C20.5275 0.156372 0.156494 20.5274 0.156494 45.6564C0.156494 70.7853 20.5275 91.1564 45.6565 91.1564Z" fill="#EBF1F7"/>
<path d="M70.9918 83.1225C63.7504 87.9853 55.0344 90.8223 45.6561 90.8223C37.0771 90.8223 29.0515 88.4481 22.2039 84.3209C21.5664 83.9358 20.9386 83.5367 20.3215 83.1225C21.177 78.7203 22.521 74.5748 24.4196 72.6773C28.7484 68.3485 31.717 67.7347 35.719 66.3173C35.719 66.3173 42.3758 69.7875 45.8568 76.2392C45.8568 76.2392 49.2601 70.6914 55.5943 66.3173C59.5952 67.7347 62.5649 68.3485 66.8938 72.6773C68.1462 73.9297 69.1569 76.1605 69.9465 78.7979C70.3532 80.1571 70.7005 81.6252 70.9918 83.1225Z" fill="#8652D8"/>
<path d="M39.9174 61.3584C35.2519 62.3066 29.2532 61.7715 26.4788 60.7856C25.8596 60.5645 25.2339 60.3034 24.7615 59.846C24.2879 59.3876 23.9956 58.6929 24.1779 58.0608C24.4735 57.036 25.7334 56.707 26.5511 56.0199C27.3461 55.3511 27.7301 54.2885 27.7819 53.2497C27.8347 52.2099 27.592 51.1808 27.3223 50.1765C26.4885 47.0763 25.3774 44.0559 24.5263 40.9589C23.6752 37.8619 23.0841 32.8729 23.3257 29.6713C23.5706 26.4697 24.7097 23.2573 26.9437 20.9521C28.9943 18.8346 33.1096 17.1615 37.2821 18.6307C39.2593 15.9803 42.7026 13.5057 48.0573 13.0937C56.6039 12.4356 61.6491 16.2705 64.7795 21.2714C67.7902 26.0803 67.2174 33.8912 66.2832 39.412C65.348 44.9329 64.1722 50.7396 66.2099 55.9864C66.6068 57.009 67.1268 58.1093 66.7611 59.1416C66.404 60.1459 65.3199 60.7317 64.2919 61.148C60.4085 62.7165 56.029 63.1091 51.8857 62.3648L39.9174 61.3584Z" fill="#4F3535"/>
<path d="M55.5945 66.3172C49.2603 70.6914 45.857 76.2392 45.857 76.2392C42.376 69.7874 35.7192 66.3172 35.7192 66.3172C37.5886 65.1252 39.0643 63.3648 39.9176 61.3583C40.8075 59.5601 40.9747 57.6476 40.9747 57.6476L50.0078 57.7911C50.0078 57.7911 49.8644 58.9863 51.8859 62.3648C52.765 63.9494 54.0444 65.3291 55.5945 66.3172Z" fill="#EFA18F"/>
<path d="M51.8859 62.3648C49.3445 62.7725 46.4655 62.7031 43.9219 62.2996C42.58 62.0871 41.2615 61.6624 40.1248 60.9074C40.8345 59.2549 40.9748 57.6476 40.9748 57.6476L50.0079 57.7911C50.0079 57.7911 50.0467 59.2106 51.8859 62.3648Z" fill="#E59689"/>
<path d="M64.8453 41.6169C64.6997 43.2781 64.5465 44.9771 63.855 46.4959C63.4257 47.4355 62.7138 48.3427 61.7073 48.5854C61.2122 48.703 60.662 48.5822 60.2381 48.306C58.6416 52.9563 53.4867 61.3358 45.8859 61.3358C37.6837 61.3358 32.7439 52.5766 31.4376 47.9986C31.0094 48.4819 30.2575 48.7407 29.6071 48.5854C28.6017 48.3427 27.8887 47.4355 27.4593 46.4959C26.769 44.9771 26.6147 43.2781 26.4691 41.6169C26.3839 40.6429 26.3008 39.6429 26.5651 38.7012C26.7895 37.8986 27.3234 37.136 28.0667 36.7973C28.0667 36.7973 29.4075 36.0853 31.1884 36.7973C31.1884 36.7973 30.95 31.1557 35.0074 30.1497C43.9284 27.9378 45.888 34.3615 56.591 30.065C56.591 30.065 59.1324 32.1566 59.7462 36.7973C59.7462 36.7973 60.922 36.0271 62.9047 36.6764C63.827 36.9116 64.4915 37.78 64.7504 38.7012C65.0135 39.6429 64.9305 40.6429 64.8453 41.6169Z" fill="#F7AD97"/>
<path d="M91.1561 45.6567C91.1561 70.7852 70.7858 91.1567 45.6561 91.1567C36.0319 91.1567 27.1056 88.1686 19.7542 83.0696C20.5556 83.5108 21.3733 83.9282 22.2039 84.3209C29.0516 88.448 37.0772 90.8223 45.6561 90.8223C55.0345 90.8223 63.7504 87.9853 70.9918 83.1224C70.7006 81.6252 70.3532 80.1571 69.9465 78.7979C80.4251 70.4627 87.1423 57.6012 87.1423 43.1713C87.1423 27.666 79.3874 13.9728 67.5443 5.75842C81.6182 13.4949 91.1561 28.461 91.1561 45.6567Z" fill="#CCD8E2"/>
<path d="M70.9918 83.1225C63.7504 87.9853 55.0344 90.8224 45.6561 90.8224C37.0771 90.8224 29.0515 88.4481 22.2039 84.321C28.0979 87.1105 34.6878 88.6714 41.6422 88.6714C52.3409 88.6714 62.1776 84.979 69.9465 78.798C70.3532 80.1571 70.7005 81.6253 70.9918 83.1225Z" fill="#6D42C1"/>
</svg>
