<svg width="375" height="779" viewBox="0 0 375 779" fill="none" xmlns="http://www.w3.org/2000/svg">
<path opacity="0.28" d="M302.462 75.7339C301.183 80.0312 302.682 84.8055 305.456 88.3245C308.231 91.8417 312.134 94.2827 316.123 96.3089C329.903 103.307 346.051 106.122 361.092 102.587C376.131 99.0514 389.796 88.7867 396.017 74.6084C397.885 70.3549 399.022 65.2243 396.698 61.2029C395.694 59.4653 394.133 58.1169 392.482 56.9804C376.483 45.9557 357.362 53.3207 340.197 56.1948C327.601 58.3051 306.837 61.0366 302.462 75.7339Z" fill="#9BBDFF"/>
<path d="M399.723 154.21C366.143 165.812 305.673 151.771 319.251 108.301C333.213 63.5989 373.314 109.357 347.617 108.533C330.925 107.997 331.635 67.4867 342.501 49.6189C353.368 31.7511 403.958 10.753 463.277 25.6549C514.262 38.4631 525.356 53.5225 525.356 53.5225C525.356 53.5225 551.922 77.0266 545.117 107.01C538.724 135.173 523.372 143.839 512.931 142.751" stroke="#487FE0" stroke-width="0.9616" stroke-miterlimit="10" stroke-dasharray="3.84 3.84"/>
<path opacity="0.28" d="M-26.538 668.62C-27.8172 672.918 -26.3176 677.692 -23.5441 681.211C-20.7689 684.728 -16.8657 687.169 -12.8768 689.196C0.902821 696.193 17.0514 699.009 32.092 695.473C47.1308 691.938 60.7957 681.673 67.0168 667.495C68.8845 663.241 70.0216 658.111 67.6983 654.089C66.6942 652.352 65.1326 651.003 63.4816 649.867C47.4825 638.842 28.3619 646.207 11.1966 649.081C-1.39865 651.192 -22.1629 653.923 -26.538 668.62Z" fill="#9BBDFF"/>
<path d="M-20.0464 774.107C22.2388 799.47 108.346 797.651 102.308 734.674C96.0996 669.911 28.6024 720.67 63.7285 726.888C86.5442 730.926 97.1342 675.648 87.4761 648.253C77.8181 620.857 15.1184 577.862 -69.6725 581.181C-142.549 584.035 -161.907 601.34 -161.907 601.34C-161.907 601.34 -204.681 625.708 -203.992 668.416C-203.344 708.531 -184.971 724.696 -170.486 726.199" stroke="#487FE0" stroke-width="0.9616" stroke-miterlimit="10" stroke-dasharray="3.84 3.84"/>
</svg>
