<svg width="257" height="32" viewBox="0 0 257 32" fill="none" xmlns="http://www.w3.org/2000/svg">
<path d="M56.7357 2.02722C57.0862 2.02722 57.4096 2.08114 57.7062 2.18896C58.0297 2.29679 58.3127 2.44505 58.5553 2.63375C58.9327 2.93028 59.2292 3.28072 59.4449 3.68507L71.8181 25.8437C72.0877 26.3019 72.2225 26.7872 72.2225 27.2994C72.2225 28.135 71.9125 28.8629 71.2925 29.4829C70.6994 30.049 69.9985 30.332 69.1898 30.332C68.6237 30.332 68.0981 30.1837 67.6128 29.8872C67.1276 29.5907 66.7502 29.1998 66.4807 28.7146L56.1696 10.3165C55.9809 9.993 55.7518 9.69647 55.4822 9.4269C55.2396 9.18429 54.97 8.98211 54.6735 8.82037C54.6466 8.79341 54.6196 8.76646 54.5926 8.7395C54.1074 8.49689 53.6087 8.34862 53.0965 8.29471C52.9617 8.29471 52.827 8.29471 52.6922 8.29471C52.207 8.29471 51.7487 8.37558 51.3174 8.53732L53.9861 3.72551C54.2287 3.24028 54.5792 2.84941 55.0374 2.55288C55.5496 2.20244 56.1157 2.02722 56.7357 2.02722ZM52.6113 9.18429C52.6383 9.18429 52.6652 9.18429 52.6922 9.18429C53.2313 9.18429 53.73 9.31907 54.1883 9.58864C54.9161 9.993 55.4014 10.5861 55.644 11.3678C55.7248 11.6643 55.7653 11.9609 55.7653 12.2574C55.7653 12.6887 55.6709 13.1065 55.4822 13.5109L46.9908 28.7146C46.7212 29.1998 46.3438 29.5907 45.8586 29.8872C45.3734 30.1837 44.8477 30.332 44.2816 30.332C43.419 30.332 42.6912 30.022 42.0981 29.402C41.532 28.8089 41.249 28.1081 41.249 27.2994C41.249 26.7872 41.3703 26.3019 41.6129 25.8437L50.1448 10.64C50.6839 9.69647 51.5061 9.21125 52.6113 9.18429Z" fill="#F37933"/>
<path d="M241.107 2.0271C241.458 2.0271 241.781 2.08101 242.078 2.18884C242.401 2.29667 242.684 2.44493 242.927 2.63363C243.304 2.93016 243.601 3.2806 243.817 3.68495L256.19 25.8436C256.459 26.3018 256.594 26.787 256.594 27.2992C256.594 28.1349 256.284 28.8627 255.664 29.4827C255.071 30.0488 254.37 30.3319 253.562 30.3319C252.995 30.3319 252.47 30.1836 251.985 29.8871C251.499 29.5906 251.122 29.1997 250.852 28.7145L240.541 10.3164C240.353 9.99288 240.124 9.69635 239.854 9.42678C239.611 9.18417 239.342 8.98199 239.045 8.82025C239.018 8.79329 238.991 8.76633 238.964 8.73938C238.479 8.49677 237.98 8.3485 237.468 8.29459C237.334 8.29459 237.199 8.29459 237.064 8.29459C236.579 8.29459 236.12 8.37546 235.689 8.5372L238.358 3.72539C238.6 3.24016 238.951 2.84929 239.409 2.55276C239.921 2.20232 240.487 2.0271 241.107 2.0271ZM236.983 9.18417C237.01 9.18417 237.037 9.18417 237.064 9.18417C237.603 9.18417 238.102 9.31895 238.56 9.58852C239.288 9.99288 239.773 10.5859 240.016 11.3677C240.097 11.6642 240.137 11.9607 240.137 12.2573C240.137 12.6886 240.043 13.1064 239.854 13.5108L231.363 28.7145C231.093 29.1997 230.716 29.5906 230.23 29.8871C229.745 30.1836 229.219 30.3319 228.653 30.3319C227.791 30.3319 227.063 30.0219 226.47 29.4019C225.904 28.8088 225.621 28.1079 225.621 27.2992C225.621 26.787 225.742 26.3018 225.985 25.8436L234.517 10.6398C235.056 9.69635 235.878 9.21112 236.983 9.18417Z" fill="#F37933"/>
<path d="M78.451 2.0271C78.8823 2.0271 79.2867 2.10797 79.6641 2.26971C80.0684 2.45841 80.4188 2.7145 80.7154 3.03798L94.0186 18.7674C94.3421 19.1717 94.733 19.5087 95.1912 19.7782C95.8382 20.1287 96.5391 20.3039 97.2939 20.3039C97.9409 20.3039 98.5474 20.1691 99.1135 19.8996C99.5717 19.6839 99.9761 19.4008 100.327 19.0504V27.2992C100.327 28.081 100.07 28.7549 99.5583 29.321C98.9383 29.9949 98.1835 30.3319 97.2939 30.3319C96.2965 30.3319 95.5012 29.941 94.9082 29.1593L81.6858 13.5916C81.6319 13.5108 81.5645 13.4299 81.4836 13.349C81.1332 12.9716 80.7289 12.6751 80.2706 12.4594C79.7045 12.1899 79.1114 12.0551 78.4914 12.0551H78.4106C77.7636 12.0551 77.1571 12.1899 76.591 12.4594C76.1327 12.6751 75.7418 12.9716 75.4183 13.349V5.05975C75.4183 4.19713 75.7283 3.4693 76.3483 2.87624C76.9414 2.31015 77.6423 2.0271 78.451 2.0271ZM97.2939 2.0271C98.0217 2.0271 98.6687 2.26971 99.2348 2.75494C99.9357 3.34799 100.3 4.11626 100.327 5.05975V16.786C100.3 17.6217 99.9357 18.3091 99.2348 18.8482C98.6687 19.2526 98.0217 19.4548 97.2939 19.4548C96.2426 19.4548 95.4204 19.0774 94.8273 18.3226C94.4499 17.8643 94.2612 17.3521 94.2612 16.786V5.05975C94.2612 4.19713 94.5712 3.4693 95.1912 2.87624C95.7573 2.31015 96.4582 2.0271 97.2939 2.0271ZM78.4106 12.9042H78.4914C79.0036 12.9042 79.4754 13.0121 79.9067 13.2277C80.931 13.7399 81.4567 14.5351 81.4836 15.6134V27.2992C81.4836 28.1349 81.2006 28.8358 80.6345 29.4019C80.0414 30.0219 79.3136 30.3319 78.451 30.3319C77.4536 30.3319 76.6449 29.9275 76.0249 29.1188C75.6205 28.5797 75.4183 27.9732 75.4183 27.2992V15.6134C75.4453 14.8586 75.7553 14.2116 76.3483 13.6725C76.9144 13.1603 77.6018 12.9042 78.4106 12.9042Z" fill="#033AA5"/>
<path d="M119.046 2.0271C119.397 2.0271 119.72 2.08101 120.017 2.18884C120.34 2.29667 120.623 2.44493 120.866 2.63363C121.243 2.93016 121.54 3.2806 121.755 3.68495L134.129 25.8436C134.398 26.3018 134.533 26.787 134.533 27.2992C134.533 28.1349 134.223 28.8627 133.603 29.4827C133.01 30.0488 132.309 30.3319 131.5 30.3319C130.934 30.3319 130.408 30.1836 129.923 29.8871C129.438 29.5906 129.061 29.1997 128.791 28.7145L118.48 10.3164C118.291 9.99288 118.062 9.69635 117.793 9.42678C117.55 9.18417 117.28 8.98199 116.984 8.82025C116.957 8.79329 116.93 8.76633 116.903 8.73938C116.418 8.49677 115.919 8.3485 115.407 8.29459C115.272 8.29459 115.137 8.29459 115.003 8.29459C114.517 8.29459 114.059 8.37546 113.628 8.5372L116.297 3.72539C116.539 3.24016 116.89 2.84929 117.348 2.55276C117.86 2.20232 118.426 2.0271 119.046 2.0271ZM114.922 9.18417C114.949 9.18417 114.976 9.18417 115.003 9.18417C115.542 9.18417 116.04 9.31895 116.499 9.58852C117.227 9.99288 117.712 10.5859 117.954 11.3677C118.035 11.6642 118.076 11.9607 118.076 12.2573C118.076 12.6886 117.981 13.1064 117.793 13.5108L109.301 28.7145C109.032 29.1997 108.654 29.5906 108.169 29.8871C107.684 30.1836 107.158 30.3319 106.592 30.3319C105.729 30.3319 105.002 30.0219 104.409 29.4019C103.842 28.8088 103.559 28.1079 103.559 27.2992C103.559 26.787 103.681 26.3018 103.923 25.8436L112.455 10.6398C112.994 9.69635 113.816 9.21112 114.922 9.18417Z" fill="#F37933"/>
<path d="M140.761 2.0271C141.192 2.0271 141.596 2.10797 141.974 2.26971C142.378 2.45841 142.728 2.7145 143.025 3.03798L156.328 18.7674C156.652 19.1717 157.043 19.5087 157.501 19.7782C158.148 20.1287 158.849 20.3039 159.603 20.3039C160.25 20.3039 160.857 20.1691 161.423 19.8996C161.881 19.6839 162.286 19.4008 162.636 19.0504V27.2992C162.636 28.081 162.38 28.7549 161.868 29.321C161.248 29.9949 160.493 30.3319 159.603 30.3319C158.606 30.3319 157.811 29.941 157.218 29.1593L143.995 13.5916C143.941 13.5108 143.874 13.4299 143.793 13.349C143.443 12.9716 143.038 12.6751 142.58 12.4594C142.014 12.1899 141.421 12.0551 140.801 12.0551H140.72C140.073 12.0551 139.467 12.1899 138.901 12.4594C138.442 12.6751 138.051 12.9716 137.728 13.349V5.05975C137.728 4.19713 138.038 3.4693 138.658 2.87624C139.251 2.31015 139.952 2.0271 140.761 2.0271ZM159.603 2.0271C160.331 2.0271 160.978 2.26971 161.544 2.75494C162.245 3.34799 162.609 4.11626 162.636 5.05975V16.786C162.609 17.6217 162.245 18.3091 161.544 18.8482C160.978 19.2526 160.331 19.4548 159.603 19.4548C158.552 19.4548 157.73 19.0774 157.137 18.3226C156.76 17.8643 156.571 17.3521 156.571 16.786V5.05975C156.571 4.19713 156.881 3.4693 157.501 2.87624C158.067 2.31015 158.768 2.0271 159.603 2.0271ZM140.72 12.9042H140.801C141.313 12.9042 141.785 13.0121 142.216 13.2277C143.241 13.7399 143.766 14.5351 143.793 15.6134V27.2992C143.793 28.1349 143.51 28.8358 142.944 29.4019C142.351 30.0219 141.623 30.3319 140.761 30.3319C139.763 30.3319 138.954 29.9275 138.334 29.1188C137.93 28.5797 137.728 27.9732 137.728 27.2992V15.6134C137.755 14.8586 138.065 14.2116 138.658 13.6725C139.224 13.1603 139.911 12.9042 140.72 12.9042Z" fill="#033AA5"/>
<path d="M180.103 2.0271C180.885 2.0271 181.545 2.29667 182.084 2.83581C182.516 3.24016 182.812 3.72539 182.974 4.29148C183.028 4.56105 183.055 4.87106 183.055 5.2215V27.2992C183.055 28.1079 182.785 28.7953 182.246 29.3614C181.653 30.0084 180.912 30.3319 180.022 30.3319C179.187 30.3319 178.459 30.0354 177.839 29.4423C177.273 28.8493 176.99 28.1349 176.99 27.2992V8.09241H168.903C168.094 8.09241 167.406 7.82284 166.84 7.2837C166.193 6.69065 165.87 5.94933 165.87 5.05975C165.87 4.22409 166.166 3.49625 166.759 2.87624C167.353 2.31015 168.067 2.0271 168.903 2.0271H180.103ZM182.57 2.0271H191.182C191.91 2.0271 192.557 2.26971 193.123 2.75494C193.824 3.34799 194.175 4.10278 194.175 5.01932V5.10019C194.175 5.98977 193.838 6.73109 193.164 7.32414C192.598 7.83632 191.924 8.09241 191.142 8.09241H183.985V5.05975C183.985 4.35888 183.81 3.69843 183.459 3.07842C183.217 2.67407 182.92 2.32363 182.57 2.0271Z" fill="#F37933"/>
<path d="M219.287 2.0271H219.368C220.258 2.0271 220.999 2.36406 221.592 3.03798C222.104 3.60408 222.36 4.278 222.36 5.05975V20.587C221.956 20.1287 221.471 19.7782 220.905 19.5356C220.42 19.32 219.894 19.2121 219.328 19.2121H203.518V27.2992C203.518 28.1079 203.248 28.7953 202.709 29.3614C202.116 30.0084 201.374 30.3319 200.485 30.3319C199.649 30.3319 198.921 30.0354 198.301 29.4423C197.735 28.8493 197.452 28.1349 197.452 27.2992V11.772C197.749 12.1225 198.099 12.4055 198.504 12.6212C199.07 12.9447 199.676 13.1199 200.323 13.1468C200.404 13.1468 200.498 13.1468 200.606 13.1468H216.295V5.01932C216.295 4.29148 216.538 3.64452 217.023 3.07842C217.616 2.37754 218.371 2.0271 219.287 2.0271ZM200.444 2.0271H200.525C201.415 2.0271 202.156 2.36406 202.749 3.03798C203.261 3.60408 203.518 4.278 203.518 5.05975V9.30547C203.518 10.0603 203.261 10.7072 202.749 11.2464C202.129 11.8933 201.374 12.2168 200.485 12.2168C199.676 12.2168 198.989 11.9607 198.423 11.4486C197.803 10.8825 197.479 10.1816 197.452 9.34591V5.01932C197.452 4.29148 197.695 3.64452 198.18 3.07842C198.773 2.37754 199.528 2.0271 200.444 2.0271ZM219.328 20.1422C220.163 20.1422 220.878 20.4387 221.471 21.0317C222.037 21.5978 222.333 22.2718 222.36 23.0535V27.2992C222.36 28.1079 222.091 28.7953 221.552 29.3614C220.959 30.0084 220.217 30.3319 219.328 30.3319C218.465 30.3319 217.737 30.0354 217.144 29.4423C216.578 28.8493 216.295 28.1349 216.295 27.2992V23.0535C216.295 22.2178 216.605 21.517 217.225 20.9509C217.818 20.4117 218.519 20.1422 219.328 20.1422Z" fill="#F37933"/>
<path d="M34.3934 9.18676L29.9033 4.43255C29.9033 4.43255 27.9167 4.31201 25.5872 4.83614C23.6653 5.26925 21.957 6.36766 20.7338 7.91233C19.3417 9.66965 18.6106 11.1404 18.505 11.359C19.1692 10.9515 26.9822 6.32321 34.3934 9.18676Z" fill="#033AA5"/>
<path d="M2.61591 9.18676L7.10591 4.43255C7.10591 4.43255 9.09329 4.31201 11.422 4.83614C13.344 5.26854 15.0522 6.36766 16.2758 7.91233C17.6679 9.66965 18.399 11.1404 18.5046 11.359C17.84 10.9515 10.0271 6.32321 2.61591 9.18676Z" fill="#033AA5"/>
<path d="M13.0133 0.319824L6.61446 1.54091C14.6888 3.30747 18.458 11.3878 18.458 11.3878C18.8218 3.93046 13.0133 0.319824 13.0133 0.319824Z" fill="#033AA5"/>
<path d="M23.9358 0.319824L30.3346 1.54091C22.2628 3.30747 18.4907 11.3878 18.4907 11.3878C18.1269 3.93046 23.9358 0.319824 23.9358 0.319824Z" fill="#033AA5"/>
<path d="M34.1911 9.01436L29.69 4.25741C29.69 4.25741 27.6984 4.1368 25.3632 4.66124C23.4365 5.0946 21.7241 6.19364 20.4978 7.7392C19.1023 9.49753 18.3694 10.9691 18.2635 11.1879C18.9294 10.7802 26.7616 6.14916 34.1911 9.01436Z" fill="#033AA5"/>
<path d="M2.3352 9.01436L6.83629 4.25741C6.83629 4.25741 8.82857 4.1368 11.1631 4.66124C13.0898 5.09388 14.8022 6.19364 16.0288 7.7392C17.4244 9.49753 18.1576 10.9691 18.2635 11.1879C17.5973 10.7802 9.76465 6.14916 2.3352 9.01436Z" fill="#033AA5"/>
<path d="M12.7582 0.142317L6.34362 1.36411C14.4379 3.13169 18.2164 11.2167 18.2164 11.2167C18.5811 3.75504 12.7582 0.142317 12.7582 0.142317Z" fill="#033AA5"/>
<path d="M23.7077 0.142317L30.1223 1.36411C22.0305 3.13169 18.2492 11.2167 18.2492 11.2167C17.8845 3.75504 23.7077 0.142317 23.7077 0.142317Z" fill="#033AA5"/>
<path fill-rule="evenodd" clip-rule="evenodd" d="M13.2004 0.0505394L13.023 0.335336C13.2004 0.0505394 13.2004 0.0505394 13.2004 0.0505394L13.2025 0.0518666C13.2025 0.0518666 13.205 0.053419 13.2068 0.0545293C13.2103 0.0567497 13.2152 0.0598612 13.2214 0.0638648C13.2339 0.0718716 13.2517 0.0834481 13.2745 0.0986024C13.3201 0.128908 13.3857 0.173539 13.4682 0.232559C13.6332 0.350573 13.8664 0.526276 14.1439 0.760201C14.6987 1.22777 15.433 1.92966 16.1555 2.87038C17.0972 4.09634 18.0198 5.72964 18.4976 7.77628C18.9754 5.72964 19.8982 4.09633 20.8399 2.87037C21.5625 1.92965 22.2968 1.22776 22.8516 0.760194C23.1292 0.52627 23.3623 0.350567 23.5274 0.232553C23.6099 0.173533 23.6754 0.128903 23.721 0.0985971C23.7438 0.0834429 23.7617 0.0718665 23.7741 0.0638597C23.7804 0.0598562 23.7853 0.0567447 23.7888 0.0545243C23.7906 0.0534141 23.793 0.0518617 23.793 0.0518617L23.7944 0.0510312C23.7944 0.0510312 23.7952 0.0505345 23.9725 0.335336L23.7952 0.0505345C23.8668 0.00607664 23.9526 -0.00984115 24.0355 0.00594496L30.4501 1.22774C30.6068 1.25759 30.7209 1.39337 30.7231 1.55262C30.7252 1.71187 30.6148 1.85066 30.459 1.88471C27.9414 2.43466 25.8465 3.6121 24.1587 4.96612C24.6084 4.78232 25.0748 4.63494 25.5542 4.52713C26.7461 4.25945 27.8484 4.15671 28.652 4.12068C29.0543 4.10265 29.3829 4.10128 29.6118 4.10448C29.7263 4.10608 29.816 4.10882 29.8776 4.11119C29.9084 4.11238 29.9322 4.11347 29.9486 4.11429C29.9568 4.1147 29.9632 4.11504 29.9676 4.11528L29.9728 4.11558L29.9748 4.11569C29.9748 4.11569 29.9752 4.11571 29.9548 4.45043L29.9748 4.11569C30.0601 4.12086 30.1404 4.15823 30.1991 4.22019L34.7001 8.97713C34.8079 9.09104 34.8223 9.26425 34.7348 9.39432C34.6473 9.52439 34.4812 9.57664 34.3348 9.52018C30.7145 8.12399 26.9808 8.54934 24.0484 9.38913C21.2751 10.1834 19.2493 11.3398 18.7702 11.6267C18.7032 11.7055 18.6025 11.7499 18.4976 11.7447C18.3684 11.751 18.2455 11.6823 18.1842 11.5665C17.563 11.2034 15.6158 10.1361 13.0075 9.38913C10.0752 8.54934 6.34142 8.12399 2.72111 9.52018C2.57469 9.57664 2.40861 9.52439 2.3211 9.39432C2.23359 9.26425 2.24798 9.09104 2.35576 8.97713L6.85685 4.22019C6.91548 4.15823 6.99554 4.12087 7.08077 4.11571L7.10111 4.45043C7.08077 4.11571 7.08077 4.11571 7.08077 4.11571L7.0831 4.11557L7.08832 4.11528C7.09276 4.11504 7.09911 4.1147 7.1073 4.11429C7.12369 4.11347 7.1475 4.11238 7.17832 4.11119C7.23995 4.10881 7.32965 4.10608 7.44418 4.10448C7.6732 4.10129 8.00183 4.10265 8.40413 4.12068C9.20788 4.15671 10.3101 4.25943 11.5017 4.52711C11.9387 4.62524 12.3649 4.75632 12.7776 4.91795C11.1003 3.58423 9.02512 2.42813 6.53664 1.88471C6.38075 1.85067 6.27036 1.71188 6.2725 1.55263C6.27464 1.39337 6.38872 1.25759 6.54547 1.22774L12.9601 0.00594496C13.0429 -0.00984173 13.1287 0.00607786 13.2004 0.0505394ZM15.2787 7.31148C14.1918 6.26084 12.8382 5.51467 11.3541 5.18142C10.2112 4.92466 9.15 4.82546 8.37399 4.79068C7.98641 4.77331 7.67106 4.77205 7.45357 4.77508C7.37202 4.77622 7.30428 4.77796 7.25169 4.77968L3.7578 8.47217C7.14792 7.53287 10.5213 7.97937 13.1929 8.74447C15.0671 9.28123 16.6093 9.97852 17.5901 10.4796C17.5542 10.4196 17.5168 10.3576 17.4776 10.2936C17.0045 9.52046 16.2901 8.47054 15.3268 7.3665C15.3108 7.34818 15.2948 7.32984 15.2787 7.31148ZM19.3796 10.524C20.3548 10.0204 21.9328 9.29728 23.8631 8.74447C26.5346 7.97937 29.908 7.53287 33.2981 8.47217L29.8042 4.77967C29.7517 4.77796 29.6839 4.77622 29.6024 4.77508C29.385 4.77205 29.0697 4.77331 28.6822 4.79068C27.9063 4.82546 26.8452 4.92464 25.7019 5.18139C23.8526 5.59734 22.2061 6.65297 21.026 8.1404C20.2928 9.06422 19.7456 9.90723 19.3796 10.524ZM18.8493 10.1012C18.8799 10.0501 18.9117 9.99768 18.9446 9.94399C19.4331 9.14597 20.1695 8.06417 21.1628 6.92602C22.9127 4.92089 25.4739 2.72534 28.8951 1.61433L24.0438 0.690291C24.0095 0.713623 23.9676 0.742766 23.9187 0.777733C23.7667 0.886437 23.5478 1.05127 23.2851 1.27263C22.7594 1.71562 22.0607 2.38327 21.3731 3.27844C20.1675 4.84796 18.9976 7.1138 18.8493 10.1012ZM18.14 9.99111C17.9688 7.05808 16.8129 4.82862 15.6223 3.27843C14.9347 2.38326 14.236 1.71562 13.7104 1.27262C13.4478 1.05127 13.2288 0.886431 13.0768 0.777728C13.028 0.742763 12.986 0.713622 12.9518 0.690292L8.10069 1.61428C11.4791 2.71108 14.0183 4.86493 15.7661 6.84909C16.0472 7.12248 16.3115 7.41467 16.557 7.72399C17.2387 8.58293 17.765 9.37485 18.14 9.99111Z" fill="#F37933"/>
<path fill-rule="evenodd" clip-rule="evenodd" d="M18.4812 13.3975C18.4261 13.3649 18.3587 13.3257 18.2796 13.2808C18.035 13.1417 17.6783 12.9472 17.2264 12.7238C16.3232 12.2773 15.0374 11.7136 13.5048 11.2447C10.4455 10.3086 6.36722 9.73897 2.38545 11.2745C2.21237 11.3412 2.12627 11.5354 2.19314 11.7081C2.26001 11.8809 2.45453 11.9668 2.62761 11.9001C6.4125 10.4405 10.3215 10.9721 13.3079 11.8859C14.7981 12.3419 16.0497 12.8905 16.9282 13.3248C17.3672 13.5419 17.7124 13.7301 17.947 13.8635C18.0643 13.9302 18.1538 13.9831 18.2136 14.0191C18.2434 14.0371 18.2659 14.0508 18.2805 14.0599C18.2879 14.0645 18.2933 14.0678 18.2968 14.07L18.3005 14.0723L18.3012 14.0728C18.4116 14.1289 18.4812 14.125 18.4812 14.125" fill="#F37933"/>
<path fill-rule="evenodd" clip-rule="evenodd" d="M18.4812 13.3975C18.5363 13.3649 18.6037 13.3257 18.6827 13.2808C18.9273 13.1417 19.2841 12.9472 19.7359 12.7238C20.6391 12.2773 21.9249 11.7136 23.4575 11.2447C26.5168 10.3086 30.5951 9.73897 34.5769 11.2745C34.75 11.3412 34.8361 11.5354 34.7692 11.7081C34.7023 11.8809 34.5078 11.9668 34.3347 11.9001C30.5498 10.4405 26.6408 10.9721 23.6545 11.8859C22.1642 12.3419 20.9126 12.8905 20.0342 13.3248C19.5951 13.5419 19.2499 13.7301 19.0154 13.8635C18.8981 13.9302 18.8085 13.9831 18.7488 14.0191C18.7189 14.0371 18.6965 14.0508 18.6818 14.0599C18.6744 14.0645 18.669 14.0678 18.6656 14.07L18.6619 14.0723L18.6611 14.0728C18.5508 14.1289 18.4812 14.125 18.4812 14.125" fill="#F37933"/>
<path d="M20.1615 19.263V19.2937L23.0897 22.046L23.3074 22.233C25.2976 20.7145 27.4191 19.3635 28.2565 19.3635C29.1687 19.3632 30.0527 19.6796 30.7576 20.2586C31.4625 20.8376 31.9446 21.6433 32.1215 22.5382C32.2984 23.4331 32.1593 24.3616 31.7278 25.1653C31.2962 25.969 30.5991 26.598 29.7554 26.9449C30.5436 27.4308 31.3654 27.8599 32.2146 28.2289C32.7277 28.4543 33.2523 28.6528 33.7862 28.8235L34.7213 29.1277C35.8551 27.8786 36.6014 26.3269 36.8692 24.6613C37.1371 22.9958 36.915 21.2883 36.23 19.7467C35.545 18.2051 34.4266 16.8958 33.0109 15.9784C31.5953 15.0609 29.9434 14.5748 28.2565 14.5791C26.2299 14.5791 23.7205 15.7822 20.5774 18.2526C20.3793 18.4089 20.0862 18.6489 19.7679 18.9141L20.1615 19.263Z" fill="#033AA5"/>
<path d="M16.8133 27.3159V27.2824L13.8852 24.5329L13.6674 24.3459C11.6772 25.8616 9.55575 27.2294 8.71835 27.2294C7.80321 27.2341 6.91497 26.9201 6.2062 26.3412C5.49744 25.7623 5.01239 24.9546 4.83437 24.0569C4.65636 23.1593 4.79649 22.2276 5.2307 21.4221C5.66491 20.6165 6.36609 19.9872 7.2138 19.6424C6.42508 19.1567 5.60334 18.7267 4.75461 18.3556C4.24938 18.1351 3.73856 17.9425 3.18029 17.7611L2.25076 17.4596C1.11947 18.7091 0.375487 20.2604 0.109236 21.9248C-0.157016 23.5892 0.0659283 25.2951 0.750973 26.8352C1.43602 28.3753 2.55366 29.6833 3.96808 30.6001C5.38249 31.517 7.03277 32.0032 8.71835 31.9998C10.7449 31.9998 13.2543 30.7967 16.3974 28.3264C16.5956 28.1701 16.8887 27.93 17.2069 27.6648L16.8133 27.3159Z" fill="#033AA5"/>
<path d="M31.5564 29.7559C29.503 28.8377 27.5836 27.6452 25.8508 26.2109C24.4844 25.3378 23.1872 24.3607 21.9708 23.2883L18.4872 20.0196C17.8899 19.4893 17.1725 18.8752 16.3881 18.2583C13.245 15.7879 10.7356 14.5849 8.70908 14.5849C6.90896 14.5815 5.1526 15.1396 3.68463 16.1815C4.2429 16.3602 4.80118 16.5695 5.40411 16.8291C7.45753 17.7473 9.37689 18.9399 11.1097 20.3741C12.4755 21.2471 13.7726 22.2232 14.9896 23.2939L18.4872 26.5598C19.0846 27.0902 19.802 27.7043 20.5863 28.3211C23.7294 30.7915 26.2388 31.9918 28.2654 31.9918C30.0652 31.996 31.8215 31.4388 33.2898 30.3979C32.7232 30.2249 32.1649 30.0155 31.5564 29.7559Z" fill="#F37933"/>
</svg>
