<svg width="295" height="238" viewBox="0 0 295 238" fill="none" xmlns="http://www.w3.org/2000/svg">
<path opacity="0.28" d="M0.54395 197.351C-3.91324 174.999 20.5044 173.403 19.8805 163.994C19.7748 162.396 -10.9757 137.887 14.1165 108.19C37.6239 80.3682 64.6626 98.7177 67.9843 101.147C68.0867 101.221 68.2214 101.12 68.1787 101.002C66.6905 96.8429 54.5851 61.3355 68.6975 44.1158C85.4065 23.7283 106.942 33.3683 116.671 32.7067C132.416 31.6365 141.88 -6.84143 188.357 2.40707C256.471 15.9605 225.709 79.6698 225.709 79.6698C225.709 79.6698 266.135 53.3755 282.543 90.0206C297.631 123.717 284.177 155.948 242.012 163.359C238.205 164.029 235.189 167.001 234.632 170.821C233.428 179.08 234.147 189.809 218.148 207.096C197.503 229.402 130.583 222.559 130.583 222.559C130.583 222.559 104.183 212.078 76.303 222.138C53.3216 230.432 6.41507 226.794 0.54395 197.351Z" fill="#9BBDFF"/>
<path opacity="0.28" d="M93.6892 16.1436C93.2282 17.6859 93.7687 19.3993 94.7682 20.6623C95.7684 21.9246 97.1751 22.8006 98.6127 23.5278C103.579 26.0393 109.399 27.0498 114.819 25.781C120.239 24.5121 125.164 20.8282 127.406 15.7397C128.079 14.2131 128.489 12.3718 127.652 10.9285C127.29 10.3049 126.727 9.821 126.132 9.41313C120.366 5.45642 113.475 8.09969 107.289 9.13116C102.749 9.88854 95.266 10.8689 93.6892 16.1436Z" fill="#9BBDFF"/>
<path opacity="0.28" d="M141.96 1.31491C141.811 0.969335 141.625 0.62573 141.329 0.392944C141.034 0.160158 140.654 0.0604873 140.279 0.0211431C138.375 -0.177545 136.611 1.05393 135.318 2.46179C134.45 3.40736 133.688 4.46376 132.814 5.39818C132.315 5.59752 131.808 5.78244 131.333 6.02703C130.365 6.52408 129.458 7.43752 129.533 8.52145C129.608 9.60735 130.625 10.3818 131.63 10.8041C134.391 11.9654 137.813 11.488 140.05 9.4985C142.288 7.50899 143.144 4.0631 141.96 1.31491Z" fill="#9BBDFF"/>
<path opacity="0.28" d="M248.082 168.933C240.127 174.539 236.631 184.816 236.538 194.537C236.512 197.303 236.763 200.208 238.275 202.526C240.242 205.545 244.053 206.976 247.66 206.919C251.266 206.861 254.725 205.53 258.003 204.028C263.371 201.569 268.504 198.599 273.31 195.17C278.085 191.763 282.624 187.8 285.532 182.709C287.45 179.352 288.615 175.433 288.052 171.61C285.619 155.115 256.746 162.828 248.082 168.933Z" fill="#9BBDFF"/>
<path opacity="0.28" d="M238.411 49.9265C236.444 60.7626 232.248 72.6688 241.965 65.8458C268.224 47.4078 243.883 15.5804 240.33 28.0033C239.185 32.0053 243.305 38.7115 238.411 49.9265Z" fill="#9BBDFF"/>
<path opacity="0.28" d="M228.962 16.5058C229.727 16.9949 230.677 17.0959 231.496 17.49C232.44 17.9444 233.153 18.7576 233.992 19.3851C234.831 20.0126 235.955 20.4618 236.916 20.0435C238.28 19.4487 238.438 17.6113 238.388 16.1248C238.265 12.4802 233.383 7.23562 229.379 7.75956C224.364 8.41595 225.712 14.4271 228.962 16.5058Z" fill="#9BBDFF"/>
<path d="M116.42 183.451C116.413 183.018 96.7842 162.687 76.54 154.051C56.2958 145.413 41.5353 134.625 40.9075 118.653C40.3072 103.38 42.9453 94.559 52.7285 81.1269C60.6302 70.2778 65.1347 65.9643 67.2027 63.7761C67.5173 63.443 68.0702 63.7125 68 64.165C66.9072 71.1932 62.844 94.4462 76.936 109.014C90.3949 122.927 104.336 126.045 115.247 147.154C126.158 168.262 116.42 183.451 116.42 183.451Z" fill="#B1D9B0"/>
<path d="M67.2033 63.7751C63.6813 69.2282 60.7792 75.0859 58.8045 81.2433C57.8273 84.3207 57.0438 87.463 56.6248 90.6564C56.2045 93.8466 56.1067 97.0774 56.4232 100.266C56.7562 103.452 57.5265 106.584 58.7066 109.549C59.8946 112.515 61.5115 115.307 63.3641 117.928C67.0897 123.176 71.696 127.766 76.4966 132.093C81.2894 136.446 86.3344 140.533 91.3406 144.683C93.8427 146.759 96.3363 148.852 98.7681 151.024C101.203 153.191 103.565 155.456 105.735 157.912C107.892 160.362 109.924 163.012 111.3 166.01C112.752 168.943 113.886 172.025 114.746 175.173C115.599 178.324 116.19 181.538 116.539 184.774C116.888 188.008 116.005 181.528 114.151 175.343C113.235 172.248 112.068 169.225 110.585 166.364C109.194 163.469 107.18 160.938 105.013 158.561C100.623 153.839 95.6185 149.687 90.6083 145.567C85.5864 141.452 80.5007 137.388 75.6501 133.027C70.8383 128.637 66.2005 123.968 62.425 118.586C60.5481 115.896 58.903 113.022 57.6933 109.95C56.477 106.883 55.7376 103.633 55.4604 100.357C55.1931 97.0774 55.3534 93.7803 55.8387 90.5443C56.326 87.3062 57.1673 84.1351 58.2213 81.0485C60.4115 74.903 63.4429 69.0742 67.2033 63.7751Z" fill="white"/>
<path d="M87.8028 131.6C87.5086 132.59 87.3365 133.594 87.2321 134.594C87.1415 135.596 87.1487 136.601 87.2866 137.586C87.4048 138.575 87.6596 139.546 88.0471 140.468C88.403 141.41 88.9376 142.27 89.4853 143.15C88.7518 142.431 88.051 141.627 87.5992 140.674C87.328 140.218 87.1802 139.709 86.9891 139.216C86.861 138.705 86.7146 138.194 86.6614 137.668C86.3882 135.577 86.775 133.4 87.8028 131.6Z" fill="white"/>
<path d="M55.1265 124.847C56.7276 124.469 58.3943 124.398 60.042 124.489C61.6931 124.573 63.3368 124.864 64.9235 125.343C66.5042 125.831 68.0561 126.451 69.4693 127.312C70.1963 127.707 70.8609 128.2 71.5347 128.673C71.8756 128.904 72.1737 129.192 72.4863 129.458C72.7983 129.726 73.1043 129.999 73.4057 130.275C72.0496 129.35 70.7112 128.423 69.2487 127.716C67.8131 126.966 66.2987 126.379 64.7527 125.916C63.2094 125.433 61.6129 125.135 60.004 124.945C58.393 124.762 56.7604 124.714 55.1265 124.847Z" fill="white"/>
<path d="M61.5138 95.7002C60.8446 95.7349 60.2003 95.8372 59.5955 96.0162C58.9939 96.2031 58.4344 96.4838 57.9918 96.8949C57.8677 96.9835 57.7711 97.1002 57.6733 97.2162C57.5728 97.3303 57.469 97.4412 57.3968 97.5776C57.316 97.7074 57.2267 97.8326 57.1499 97.9671C57.0908 98.1107 57.0257 98.2523 56.9581 98.3946C56.8162 98.6766 56.7611 98.9959 56.6461 99.3008C56.5706 99.6162 56.5148 99.9389 56.4209 100.266C56.3815 99.9356 56.3585 99.5979 56.3552 99.2575C56.4045 98.9244 56.3999 98.5723 56.5155 98.2438C56.6678 97.5631 57.073 96.9369 57.5925 96.449C58.1284 95.9697 58.8055 95.67 59.4904 95.5631C60.1741 95.4549 60.8728 95.4884 61.5138 95.7002Z" fill="white"/>
<path d="M87.888 50.5599L90.4348 45.1946C90.4348 45.1946 77.3338 32.7232 73.471 32.0248C69.2384 31.2602 56.0632 56.0287 68.8595 85.4673C72.8793 94.7145 77.9446 103.222 82.5955 110.124L86.7335 108.375L84.1756 112.432C90.5596 121.611 95.7897 127.413 95.7897 127.413C105.087 96.7571 103.239 76.4752 103.239 76.4752L96.5043 75.3624L101.535 71.6778C101.535 71.6778 97.2989 53.2012 94.4422 50.7651C91.5847 48.329 87.888 50.5599 87.888 50.5599Z" fill="#A0C49E"/>
<path d="M72.1624 32.3992C73.4646 37.1795 74.694 41.9775 75.9654 46.7657L79.6582 61.1585L86.9025 89.9768C86.9025 89.9768 98.2356 138.195 96.8907 133.426L93.0324 119.074C90.5047 109.495 88.1083 99.8823 85.6777 90.279C83.3483 80.6502 80.9723 71.0338 78.7184 61.3873L75.3665 46.9106C74.298 42.0732 73.1882 37.2464 72.1624 32.3992Z" fill="white"/>
<path d="M72.1699 61.2387C73.2135 61.0132 74.3292 61.103 75.3655 61.4296C76.4104 61.7469 77.3705 62.3194 78.1987 63.0309C79.0091 63.7666 79.6723 64.642 80.1905 65.5863C80.4545 66.0551 80.641 66.5627 80.8577 67.0486C81.0088 67.5633 81.171 68.0702 81.2977 68.5837C81.0364 68.1168 80.819 67.6387 80.576 67.1758C80.2969 66.7312 80.0578 66.2683 79.7682 65.8401C79.4563 65.4263 79.1975 64.9778 78.839 64.6079C78.525 64.2001 78.1501 63.8538 77.7803 63.503C77.0152 62.8315 76.1484 62.282 75.202 61.8919C74.2537 61.5102 73.2325 61.2578 72.1699 61.2387Z" fill="white"/>
<path d="M92.5569 84.4996C91.5403 85.1042 90.7384 85.9646 90.0751 86.8898C89.4217 87.8282 88.9456 88.8767 88.6119 89.9678L88.3729 90.7921L88.2087 91.638C88.0688 92.1973 88.0662 92.7803 87.9697 93.3521L87.8758 95.095C87.8725 95.6793 87.8902 96.2642 87.8685 96.8576C87.7484 96.2806 87.6682 95.695 87.5664 95.1088C87.5257 94.5186 87.4837 93.9239 87.4778 93.3285C87.5218 92.1396 87.6308 90.9331 88.0091 89.7822C88.3722 88.6354 88.9088 87.5252 89.6844 86.5934C90.4508 85.6649 91.4306 84.8832 92.5569 84.4996Z" fill="white"/>
<path d="M177.257 25.0777L142.491 24.5059L142.009 29.0895L176.633 31.0147L177.257 25.0777Z" fill="#D4761D"/>
<path d="M142.008 29.0894L139.382 54.0841L173.829 57.6932L176.633 31.0146L142.008 29.0894Z" fill="#DB9023"/>
<path d="M167.746 20.2888C167.638 20.4344 167.524 20.5754 167.419 20.7229C166.853 21.5105 166.332 22.3301 165.844 23.1747C165.358 24.0193 164.909 24.8908 164.564 25.8363C165.347 25.2022 166.025 24.4941 166.665 23.759C167.305 23.0232 167.91 22.2632 168.471 21.4718C168.595 21.298 168.71 21.1177 168.831 20.9406L167.746 20.2888Z" fill="#487FE0"/>
<path d="M169.352 17.9665C166.884 16.3324 164.596 16.295 165.703 18.6366C166.81 20.9783 169.818 22.9841 171.702 21.6576C173.587 20.3317 169.352 17.9665 169.352 17.9665Z" fill="#27376A"/>
<path d="M168.01 18.6174C168.01 18.6174 169.348 13.0935 170.794 12.9164C172.24 12.74 175.328 14.9781 175.28 16.6515C175.232 18.3243 170.446 20.2443 170.446 20.2443L168.01 18.6174Z" fill="#487FE0"/>
<path opacity="0.28" d="M170.647 36.007C168.175 35.8988 165.688 35.8588 163.221 35.6784C162.749 35.6437 157.547 34.9506 157.697 35.4902C157.525 34.8693 156.747 34.3473 156.166 34.8955C155.585 35.702 154.761 35.8561 153.693 35.3584C153.352 34.8181 152.532 34.9637 152.193 35.3912C151.581 36.1617 149.086 34.7473 148.003 34.9984C146.747 35.2902 145.917 36.3781 145.206 37.3617C144.492 38.3499 146.016 39.4738 146.731 38.4843C148.485 36.0548 150.827 38.4588 152.849 37.287C153.958 38.2332 155.384 37.8502 156.593 36.9912C157.322 37.4699 158.38 37.1886 159.534 37.1729C163.08 37.1243 166.841 37.7296 170.421 37.8863C171.634 37.9388 171.865 36.0601 170.647 36.007Z" fill="white"/>
<path opacity="0.28" d="M170.349 42.9431C166.754 41.8021 162.957 41.8494 159.221 41.6494C155.067 41.4264 151 41.3241 146.947 42.3805C145.768 42.6874 146.267 44.513 147.45 44.2048C151.333 43.193 155.25 43.3274 159.221 43.5412C162.779 43.7326 166.422 43.6815 169.845 44.7674C171.01 45.1366 171.509 43.311 170.349 42.9431Z" fill="white"/>
<path opacity="0.28" d="M168.971 49.0565C168.152 49.4086 165.622 48.3883 164.613 48.2866C162.74 48.0971 160.828 48.1116 158.947 48.0407C154.811 47.886 150.673 47.7312 146.536 47.5765C145.317 47.5312 145.319 49.4224 146.536 49.4683C151.294 49.646 156.052 49.8237 160.809 50.0021C163.019 50.0847 165.041 50.2434 167.197 50.7234C168.326 50.9745 168.847 51.1542 169.927 50.6893C171.043 50.2093 170.079 48.5791 168.971 49.0565Z" fill="white"/>
<g opacity="0.4">
<path d="M178.371 188.531C178.718 188.766 179.068 188.998 179.422 189.229" stroke="#487FE0" stroke-width="0.9616" stroke-miterlimit="10"/>
<path d="M181.562 190.564C220.27 213.781 299.091 212.116 293.564 154.468C287.881 95.185 226.095 141.649 258.249 147.34C279.134 151.037 288.828 100.436 279.987 75.3588C271.146 50.2815 213.752 10.9242 136.136 13.9629C69.4255 16.5747 51.7051 32.416 51.7051 32.416C51.7051 32.416 12.5505 54.7222 13.1816 93.8159C13.7746 130.536 30.5927 145.334 43.8526 146.71" stroke="#487FE0" stroke-width="0.9616" stroke-miterlimit="10" stroke-dasharray="3.84 3.84"/>
<path d="M45.1145 146.8C45.5394 146.817 45.9597 146.82 46.3754 146.81" stroke="#487FE0" stroke-width="0.9616" stroke-miterlimit="10"/>
</g>
<path d="M51.812 31.6642C48.5454 33.055 28.2842 53.5199 28.2842 53.5199L41.1658 58.2713C42.2107 58.6569 43.3659 58.0936 43.7047 57.034L51.812 31.6642Z" fill="#487FE0"/>
<path d="M51.8124 31.6643L11.5519 46.6171C10.2194 47.1121 10.2214 48.9948 11.5552 49.4866L17.0947 51.5298L51.8124 31.6643Z" fill="#487FE0"/>
<path d="M17.0952 51.5297L22.6091 63.4897L28.2851 53.5192L51.813 31.6642L17.0952 51.5297Z" fill="#9CC1F8"/>
<path d="M22.6077 63.4898L32.32 55.0085L28.2837 53.5193L22.6077 63.4898Z" fill="#27376A"/>
<path d="M178.788 167.507C183.083 175.455 243.821 149.642 228.823 141.101C217.944 134.907 219.391 133.48 231.919 119.282C244.448 105.084 266.794 66.9992 252.927 57.436C223.89 37.4124 211.407 127.626 204.598 125.25C197.789 122.874 199.839 113.055 192.234 115.166C184.629 117.278 176.694 163.632 178.788 167.507Z" fill="#B1D9B0"/>
<path d="M250.031 55.778C244.94 67.5091 239.257 78.9792 233.282 90.2913C227.293 101.598 220.879 112.682 214.081 123.53C210.663 128.942 207.078 134.251 203.404 139.494L200.619 143.407L197.762 147.268C196.821 148.564 195.823 149.817 194.845 151.085C193.861 152.348 192.876 153.611 191.849 154.841C187.826 159.825 183.579 164.633 179.091 169.206C174.572 173.742 174.291 173.443 178.645 168.777C183.025 164.136 187.173 159.275 191.089 154.236C198.974 144.199 206.221 133.668 213.014 122.858C216.435 117.468 219.769 112.02 222.993 106.508C226.222 100.998 229.329 95.4179 232.431 89.8336C235.518 84.2415 238.517 78.5995 241.441 72.9182C244.397 67.2527 247.253 61.5353 250.031 55.778Z" fill="white"/>
<path d="M238.345 70.0537C238.904 70.8131 239.142 71.7763 239.241 72.7081C239.343 73.6498 239.296 74.6019 239.151 75.5298C239.09 75.9973 238.971 76.4517 238.874 76.9101C238.749 77.3612 238.619 77.8111 238.469 78.253C238.305 78.6904 238.137 79.1258 237.952 79.5527C237.739 79.9698 237.548 80.3927 237.319 80.7986C237.415 80.3396 237.548 79.8983 237.66 79.4504L237.996 78.114C238.194 77.2203 238.405 76.3337 238.527 75.4353C238.68 74.5409 238.75 73.638 238.751 72.7363C238.734 71.8386 238.682 70.9206 238.345 70.0537Z" fill="white"/>
<path d="M234.138 104.475C233.446 104.24 232.731 104.109 232.015 104.069C231.657 104.046 231.301 104.03 230.944 104.059C230.586 104.058 230.235 104.124 229.884 104.175C228.483 104.411 227.154 104.959 225.953 105.71C224.716 106.421 223.687 107.433 222.646 108.422C222.17 108.962 221.684 109.497 221.218 110.052C220.77 110.621 220.339 111.205 219.871 111.77C220.217 111.129 220.602 110.506 220.969 109.869C221.39 109.269 221.842 108.689 222.285 108.098C223.268 107.002 224.328 105.937 225.622 105.174C226.891 104.397 228.324 103.827 229.822 103.696C230.196 103.671 230.567 103.632 230.942 103.662C231.315 103.663 231.685 103.705 232.052 103.764C232.778 103.909 233.5 104.108 234.138 104.475Z" fill="white"/>
<path d="M193.203 132.246C194.253 133.472 195.099 134.867 195.802 136.328C196.506 137.792 197.009 139.359 197.279 140.975C197.519 142.591 197.514 144.273 197.078 145.862C196.876 146.658 196.553 147.419 196.175 148.138C195.785 148.855 195.29 149.505 194.754 150.104C195.637 148.759 196.309 147.298 196.604 145.752C196.911 144.212 196.898 142.624 196.655 141.072C196.411 139.517 195.942 137.998 195.358 136.522C195.065 135.783 194.732 135.058 194.366 134.349C194.017 133.629 193.622 132.933 193.203 132.246Z" fill="white"/>
<path d="M91.0665 69.7703C76.7979 70.5513 76.966 84.624 77.2293 102.253C77.32 108.312 76.8123 118.116 77.3055 126.537C79.627 166.217 77.2273 163.464 149.719 166.029C179.24 167.074 205.506 168.303 211.83 161.63C218.598 154.489 217.234 139.374 218.897 113.284C219.665 99.7965 223.101 72.75 212.797 71.6975C192.038 69.5769 174.105 69.2942 150.982 68.7801C128.857 68.2883 103.848 69.0706 91.0665 69.7703Z" fill="#263D74"/>
<path d="M94.6759 74.8446C81.4416 75.6656 81.9906 88.2164 82.2342 104.467C82.3176 110.053 81.8494 119.09 82.3045 126.854C84.4481 163.432 83.1445 160.159 150.074 162.523C177.329 163.486 201.584 164.943 206.506 159.205C210.512 154.535 208.321 138.742 209.855 114.69C209.32 97.221 213.372 77.1417 205.703 76.8243C176.433 75.6125 118.803 73.3482 94.6759 74.8446Z" fill="#EFF6FF"/>
<path d="M135.932 163.691C135.932 163.691 138.987 178.392 134.522 178.213C130.055 178.035 117.55 177.082 117.551 183.922C117.551 193.116 175.009 193.376 175.009 184.158C175.009 178.927 164.64 178.143 159.73 178.065C156.469 178.013 157.584 174.95 158.943 163.602L135.932 163.691Z" fill="#263D74"/>
<path d="M102.42 217.904C109.035 209.677 112.79 208.127 118.594 208.278C138.57 208.798 178.669 209.154 180.463 210.734C182.793 212.786 173.722 233.026 170.191 235.789C165.867 239.173 97.301 239.658 96.7178 230.067C96.4728 226.033 99.8917 221.049 102.42 217.904Z" fill="#DEE7F7"/>
<path d="M106.863 215.635C110.064 211.635 113.995 209.548 119.318 209.687C137.634 210.166 176.073 211.556 178.182 212.193C180.473 212.884 172.565 230.685 169.331 233.123C165.369 236.109 96.3795 234.559 99.0261 227.549C100.296 224.187 104.607 218.455 106.863 215.635Z" fill="white"/>
<path d="M115.141 212.416C115.141 212.416 111.98 214.919 112.366 215.276C112.751 215.632 117.353 215.418 117.353 215.418L120.086 212.557C120.086 212.557 115.775 211.897 115.141 212.416Z" fill="#DEE7F7"/>
<path d="M122.085 212.787L119.998 215.647C119.998 215.647 124.478 215.74 125.209 215.796C125.583 215.824 127.235 212.934 127.235 212.934L122.085 212.787Z" fill="#DEE7F7"/>
<path d="M130.238 213.02C129.951 213.789 127.933 216.365 127.933 216.365L132.519 216.496L134.742 213.148L130.238 213.02Z" fill="#DEE7F7"/>
<path d="M109.079 218.023C109.079 218.023 105.919 220.526 106.304 220.883C106.69 221.24 111.291 221.025 111.291 221.025L114.025 218.164C114.025 218.164 109.713 217.504 109.079 218.023Z" fill="#DEE7F7"/>
<path d="M116.666 218.413L113.936 221.255C113.936 221.255 118.368 221.994 118.813 221.52C119.49 220.797 121.172 218.541 121.172 218.541L116.666 218.413Z" fill="#DEE7F7"/>
<path d="M125.008 218.673C124.146 219.88 122.208 221.972 122.208 221.972L127.507 222.123L129.715 219.115L125.008 218.673Z" fill="#DEE7F7"/>
<path d="M104.721 223.925L102.635 226.786C102.635 226.786 107.069 227.881 107.519 227.173C108.012 226.395 109.871 224.073 109.871 224.073L104.721 223.925Z" fill="#DEE7F7"/>
<path d="M113.251 224.169C112.674 225.042 110.477 227.501 110.477 227.501L114.67 227.62L117.285 224.284L113.251 224.169Z" fill="#DEE7F7"/>
<path d="M137.307 213.108C137.307 213.108 135.341 215.484 135.037 216.12L139.877 216.399L142.253 213.249L137.307 213.108Z" fill="#DEE7F7"/>
<path d="M144.466 213.426L142.379 216.286C142.379 216.286 147.725 216.965 148.133 216.515C148.676 215.918 149.616 213.572 149.616 213.572L144.466 213.426Z" fill="#DEE7F7"/>
<path d="M152.509 213.452C152.222 214.222 150.459 216.779 150.459 216.779L156.371 216.948L157.882 213.58L152.509 213.452Z" fill="#DEE7F7"/>
<path d="M133.03 219.291L130.353 222.154C130.739 222.51 135.34 222.296 135.34 222.296L138.074 219.435C138.074 219.435 134.08 219.102 133.03 219.291Z" fill="#DEE7F7"/>
<path d="M141.26 219.115L138.851 222.418L144.564 222.478C145.09 221.115 146.41 219.262 146.41 219.262L141.26 219.115Z" fill="#DEE7F7"/>
<path d="M149.246 219.36C148.959 220.13 147.545 222.705 147.545 222.705L153.298 222.869L155.034 219.36H149.246Z" fill="#DEE7F7"/>
<path d="M146.599 225.143L145.612 228.481L150.854 228.63L152.103 225.3L146.599 225.143Z" fill="#DEE7F7"/>
<path d="M160.979 214.02C161.324 213.932 174.652 215.302 174.652 215.302C174.652 215.302 170.594 224.741 169.857 224.769C169.121 224.797 166.576 224.362 166.576 224.362L167.86 221.12L158.615 220.354L160.979 214.02Z" fill="#DEE7F7"/>
<path d="M164.346 227.05L163.233 229.282L166.831 229.576L167.997 227.355L164.346 227.05Z" fill="#DEE7F7"/>
<path d="M161.244 226.623L159.354 229.429H161.896L163.475 226.887L161.244 226.623Z" fill="#DEE7F7"/>
<path d="M159.355 226.675L158.013 229.43L154.11 229.318L155.514 226.565L159.355 226.675Z" fill="#DEE7F7"/>
<path d="M161.897 222.468L160.555 225.222L156.653 225.11L158.056 222.358L161.897 222.468Z" fill="#DEE7F7"/>
<path d="M143.89 225.353L142.412 228.103L119.143 227.439L120.559 224.686L143.89 225.353Z" fill="#DEE7F7"/>
<path d="M178.368 166.183C178.089 171.703 177.626 183.046 178.529 183.212C179.723 183.431 194.056 183.212 194.056 183.212L197.839 180.796V166.183H178.368Z" fill="#E8A33C"/>
<path d="M178.368 166.183C178.089 171.18 177.626 181.446 178.529 181.596C179.723 181.795 194.056 181.596 194.056 181.596L197.839 179.409V166.183H178.368Z" fill="#D4761D"/>
<path d="M197.84 163.508H178.529C178.529 163.508 178.458 164.574 178.368 166.184H197.84V163.508Z" fill="#DB9023"/>
<path d="M197.84 179.409L193.573 178.026L194.058 181.596L197.84 179.409Z" fill="#DB9023"/>
<path d="M67.6777 214.784L68.8021 216.317C68.9564 216.528 69.2841 216.472 69.3622 216.222C69.5954 215.478 69.9086 214.291 69.5422 214.264C69.0076 214.226 67.6777 214.784 67.6777 214.784Z" fill="#263D74"/>
<path d="M66.7656 180.052C65.8193 175.934 65.0299 173.014 64.8013 172.572C63.8747 170.776 56.6855 177.153 56.6855 177.153C56.6855 177.153 56.8556 178.679 57.1919 181.117C59.6644 181.666 63.0912 181.795 66.7656 180.052Z" fill="#DB9023"/>
<path d="M57.1926 181.116C58.3215 189.306 61.326 207.805 66.0696 213.431C67.3344 213.24 69.0084 212.972 70.7303 212.652C72.16 206.465 69.0196 189.858 66.767 180.052C63.092 181.795 59.6652 181.666 57.1926 181.116Z" fill="#263D74"/>
<path d="M66.0686 213.432C66.7713 214.265 67.4937 215.112 68.2896 215.014C69.8119 214.825 70.3242 214.406 70.7294 212.652C69.0075 212.972 67.3335 213.24 66.0686 213.432Z" fill="#D4761D"/>
<path d="M47.9098 146.736C47.9098 146.736 55.8142 177.85 57.4244 178.474C59.0347 179.098 65.225 178.118 65.8239 176.951C66.4229 175.785 64.0941 139.004 56.0263 138.467C51.6709 138.178 46.5432 141.457 47.9098 146.736Z" fill="#D4761D"/>
<path d="M66.7021 163.664C66.3193 163.779 65.9246 163.69 65.5719 163.406C64.2302 162.325 63.6063 158.483 65.2344 152.336C67.2945 144.56 56.3055 139.6 56.1939 139.551C56.0415 139.483 55.9719 139.304 56.0396 139.151C56.1072 138.999 56.2865 138.929 56.4388 138.997C56.5551 139.048 68.0123 144.215 65.8202 152.491C64.0352 159.229 65.126 162.268 65.9528 162.935C66.1853 163.122 66.4112 163.158 66.6443 163.037C66.9491 162.882 67.1172 162.682 67.1592 162.427C67.2702 161.742 66.4992 160.785 66.1925 160.472C66.0756 160.354 66.0769 160.162 66.1965 160.045C66.3166 159.926 66.5077 159.929 66.6253 160.049C66.7599 160.186 67.9374 161.419 67.7575 162.524C67.6839 162.977 67.4022 163.331 66.9195 163.576C66.8473 163.613 66.775 163.642 66.7021 163.664Z" fill="#D4761D"/>
<path d="M70.8183 213.812C70.8183 213.812 69.8602 217.75 66.4603 217.544C63.0605 217.337 61.8573 215.028 62.4182 212.56C62.979 210.092 70.8183 213.812 70.8183 213.812Z" fill="#263D74"/>
<path d="M62.4182 212.561L70.8184 213.812L71.7529 209.619L63.4342 208.089L62.4182 212.561Z" fill="#DB9023"/>
<path d="M75.9178 153.161L63.4341 208.088L71.7528 209.619L83.8983 155.13L75.9178 153.161Z" fill="#DB7929"/>
<path d="M70.2488 207.624C70.6323 205.468 71.0657 203.323 71.4736 201.171L72.7791 194.736C73.6578 190.449 74.6061 186.176 75.5157 181.894C76.4883 177.627 77.4281 173.352 78.4322 169.092L79.9539 162.704C80.4897 160.582 80.9987 158.453 81.5576 156.335C81.1747 158.492 80.7413 160.637 80.3341 162.788L79.0285 169.223C78.1479 173.511 77.2022 177.784 76.2906 182.065C75.3161 186.332 74.3796 190.607 73.3728 194.868L71.8512 201.255C71.316 203.378 70.8077 205.506 70.2488 207.624Z" fill="white"/>
<path d="M67.2878 206.59C67.672 204.434 68.1055 202.288 68.5126 200.137L69.8182 193.703C70.6969 189.415 71.6452 185.142 72.5548 180.861C73.5274 176.593 74.4672 172.318 75.4713 168.058L76.9929 161.671C77.5288 159.548 78.0378 157.419 78.5966 155.301C78.2131 157.458 77.7797 159.603 77.3732 161.754L76.0676 168.189C75.1869 172.477 74.2412 176.751 73.3297 181.031C72.3551 185.298 71.418 189.573 70.4119 193.834L68.8903 200.221C68.355 202.343 67.8461 204.472 67.2878 206.59Z" fill="white"/>
<path d="M82.2675 147.855L81.5983 144.871L79.8462 147.427C80.8149 147.805 81.6115 147.902 82.2675 147.855Z" fill="#A0C49E"/>
<path d="M83.898 155.13L82.2674 147.855C81.6113 147.902 80.8147 147.805 79.8467 147.428L75.9175 153.161L83.898 155.13Z" fill="#DB9023"/>
<path d="M87.1236 173.037C87.3404 171.44 87.5026 170.359 87.5026 169.971C87.5026 165.073 48.4203 163.814 47.9316 165.565C47.9316 165.565 47.9113 167.941 48.084 169.971C52.4269 169.044 63.125 168.316 87.1236 173.037Z" fill="#263D74"/>
<path d="M85.7774 171.247C84.1566 183.679 79.1595 218.386 78.0766 218.805C76.8006 219.298 59.3875 219.005 56.3791 218.805C53.8914 218.639 50.6275 180.988 49.5715 167.953C48.9502 168.036 48.4032 168.129 47.9316 168.228C48.9496 180.006 52.6154 220.071 55.3881 220.242C58.6389 220.442 77.4534 220.736 78.8325 220.242C80.0402 219.809 85.7583 182.812 87.3128 171.539C86.792 171.438 86.2857 171.343 85.7774 171.247Z" fill="#263D74"/>
<mask id="mask0_3057_1209" style="mask-type:luminance" maskUnits="userSpaceOnUse" x="47" y="165" width="41" height="56">
<path d="M87.3128 169.955C87.5196 167.178 47.9316 162.648 47.9316 166.489C47.9316 166.489 47.9796 167.1 48.0669 168.186C48.019 168.194 47.9796 168.202 47.9316 168.21C48.9568 179.992 52.62 220.052 55.3933 220.226C58.6435 220.424 77.4599 220.718 78.8345 220.226C80.0422 219.79 85.7636 182.793 87.3128 171.518C87.257 171.51 87.1932 171.494 87.1381 171.487C87.2412 170.725 87.2964 170.201 87.3128 169.955Z" fill="white"/>
</mask>
<g mask="url(#mask0_3057_1209)">
<path d="M73.9778 139.988L34.0588 206.878" stroke="#263D74" stroke-width="1.21" stroke-miterlimit="10"/>
</g>
<mask id="mask1_3057_1209" style="mask-type:luminance" maskUnits="userSpaceOnUse" x="47" y="165" width="41" height="56">
<path d="M87.3128 169.955C87.5196 167.178 47.9316 162.648 47.9316 166.489C47.9316 166.489 47.9796 167.1 48.0669 168.186C48.019 168.194 47.9796 168.202 47.9316 168.21C48.9568 179.992 52.62 220.052 55.3933 220.226C58.6435 220.424 77.4599 220.718 78.8345 220.226C80.0422 219.79 85.7636 182.793 87.3128 171.518C87.257 171.51 87.1932 171.494 87.1381 171.487C87.2412 170.725 87.2964 170.201 87.3128 169.955Z" fill="white"/>
</mask>
<g mask="url(#mask1_3057_1209)">
<path d="M78.1119 144.114L38.1936 211.003" stroke="#263D74" stroke-width="1.21" stroke-miterlimit="10"/>
</g>
<mask id="mask2_3057_1209" style="mask-type:luminance" maskUnits="userSpaceOnUse" x="47" y="165" width="41" height="56">
<path d="M87.3128 169.955C87.5196 167.178 47.9316 162.648 47.9316 166.489C47.9316 166.489 47.9796 167.1 48.0669 168.186C48.019 168.194 47.9796 168.202 47.9316 168.21C48.9568 179.992 52.62 220.052 55.3933 220.226C58.6435 220.424 77.4599 220.718 78.8345 220.226C80.0422 219.79 85.7636 182.793 87.3128 171.518C87.257 171.51 87.1932 171.494 87.1381 171.487C87.2412 170.725 87.2964 170.201 87.3128 169.955Z" fill="white"/>
</mask>
<g mask="url(#mask2_3057_1209)">
<path d="M82.2427 148.24L42.3237 215.129" stroke="#263D74" stroke-width="1.21" stroke-miterlimit="10"/>
</g>
<mask id="mask3_3057_1209" style="mask-type:luminance" maskUnits="userSpaceOnUse" x="47" y="165" width="41" height="56">
<path d="M87.3128 169.955C87.5196 167.178 47.9316 162.648 47.9316 166.489C47.9316 166.489 47.9796 167.1 48.0669 168.186C48.019 168.194 47.9796 168.202 47.9316 168.21C48.9568 179.992 52.62 220.052 55.3933 220.226C58.6435 220.424 77.4599 220.718 78.8345 220.226C80.0422 219.79 85.7636 182.793 87.3128 171.518C87.257 171.51 87.1932 171.494 87.1381 171.487C87.2412 170.725 87.2964 170.201 87.3128 169.955Z" fill="white"/>
</mask>
<g mask="url(#mask3_3057_1209)">
<path d="M86.3748 152.366L46.4558 219.255" stroke="#263D74" stroke-width="1.21" stroke-miterlimit="10"/>
</g>
<mask id="mask4_3057_1209" style="mask-type:luminance" maskUnits="userSpaceOnUse" x="47" y="165" width="41" height="56">
<path d="M87.3128 169.955C87.5196 167.178 47.9316 162.648 47.9316 166.489C47.9316 166.489 47.9796 167.1 48.0669 168.186C48.019 168.194 47.9796 168.202 47.9316 168.21C48.9568 179.992 52.62 220.052 55.3933 220.226C58.6435 220.424 77.4599 220.718 78.8345 220.226C80.0422 219.79 85.7636 182.793 87.3128 171.518C87.257 171.51 87.1932 171.494 87.1381 171.487C87.2412 170.725 87.2964 170.201 87.3128 169.955Z" fill="white"/>
</mask>
<g mask="url(#mask4_3057_1209)">
<path d="M90.5069 156.492L50.5879 223.381" stroke="#263D74" stroke-width="1.21" stroke-miterlimit="10"/>
</g>
<mask id="mask5_3057_1209" style="mask-type:luminance" maskUnits="userSpaceOnUse" x="47" y="165" width="41" height="56">
<path d="M87.3128 169.955C87.5196 167.178 47.9316 162.648 47.9316 166.489C47.9316 166.489 47.9796 167.1 48.0669 168.186C48.019 168.194 47.9796 168.202 47.9316 168.21C48.9568 179.992 52.62 220.052 55.3933 220.226C58.6435 220.424 77.4599 220.718 78.8345 220.226C80.0422 219.79 85.7636 182.793 87.3128 171.518C87.257 171.51 87.1932 171.494 87.1381 171.487C87.2412 170.725 87.2964 170.201 87.3128 169.955Z" fill="white"/>
</mask>
<g mask="url(#mask5_3057_1209)">
<path d="M94.6409 160.618L54.7219 227.508" stroke="#263D74" stroke-width="1.21" stroke-miterlimit="10"/>
</g>
<mask id="mask6_3057_1209" style="mask-type:luminance" maskUnits="userSpaceOnUse" x="47" y="165" width="41" height="56">
<path d="M87.3128 169.955C87.5196 167.178 47.9316 162.648 47.9316 166.489C47.9316 166.489 47.9796 167.1 48.0669 168.186C48.019 168.194 47.9796 168.202 47.9316 168.21C48.9568 179.992 52.62 220.052 55.3933 220.226C58.6435 220.424 77.4599 220.718 78.8345 220.226C80.0422 219.79 85.7636 182.793 87.3128 171.518C87.257 171.51 87.1932 171.494 87.1381 171.487C87.2412 170.725 87.2964 170.201 87.3128 169.955Z" fill="white"/>
</mask>
<g mask="url(#mask6_3057_1209)">
<path d="M98.773 164.744L58.854 231.634" stroke="#263D74" stroke-width="1.21" stroke-miterlimit="10"/>
</g>
<mask id="mask7_3057_1209" style="mask-type:luminance" maskUnits="userSpaceOnUse" x="47" y="165" width="41" height="56">
<path d="M87.3128 169.955C87.5196 167.178 47.9316 162.648 47.9316 166.489C47.9316 166.489 47.9796 167.1 48.0669 168.186C48.019 168.194 47.9796 168.202 47.9316 168.21C48.9568 179.992 52.62 220.052 55.3933 220.226C58.6435 220.424 77.4599 220.718 78.8345 220.226C80.0422 219.79 85.7636 182.793 87.3128 171.518C87.257 171.51 87.1932 171.494 87.1381 171.487C87.2412 170.725 87.2964 170.201 87.3128 169.955Z" fill="white"/>
</mask>
<g mask="url(#mask7_3057_1209)">
<path d="M102.903 168.87L62.9841 235.76" stroke="#263D74" stroke-width="1.21" stroke-miterlimit="10"/>
</g>
<mask id="mask8_3057_1209" style="mask-type:luminance" maskUnits="userSpaceOnUse" x="47" y="165" width="41" height="56">
<path d="M87.3128 169.955C87.5196 167.178 47.9316 162.648 47.9316 166.489C47.9316 166.489 47.9796 167.1 48.0669 168.186C48.019 168.194 47.9796 168.202 47.9316 168.21C48.9568 179.992 52.62 220.052 55.3933 220.226C58.6435 220.424 77.4599 220.718 78.8345 220.226C80.0422 219.79 85.7636 182.793 87.3128 171.518C87.257 171.51 87.1932 171.494 87.1381 171.487C87.2412 170.725 87.2964 170.201 87.3128 169.955Z" fill="white"/>
</mask>
<g mask="url(#mask8_3057_1209)">
<path d="M95.0594 227.431L75.9172 151.948" stroke="#263D74" stroke-width="1.21" stroke-miterlimit="10"/>
</g>
<mask id="mask9_3057_1209" style="mask-type:luminance" maskUnits="userSpaceOnUse" x="47" y="165" width="41" height="56">
<path d="M87.3128 169.955C87.5196 167.178 47.9316 162.648 47.9316 166.489C47.9316 166.489 47.9796 167.1 48.0669 168.186C48.019 168.194 47.9796 168.202 47.9316 168.21C48.9568 179.992 52.62 220.052 55.3933 220.226C58.6435 220.424 77.4599 220.718 78.8345 220.226C80.0422 219.79 85.7636 182.793 87.3128 171.518C87.257 171.51 87.1932 171.494 87.1381 171.487C87.2412 170.725 87.2964 170.201 87.3128 169.955Z" fill="white"/>
</mask>
<g mask="url(#mask9_3057_1209)">
<path d="M90.9696 230.049L71.8274 154.566" stroke="#263D74" stroke-width="1.21" stroke-miterlimit="10"/>
</g>
<mask id="mask10_3057_1209" style="mask-type:luminance" maskUnits="userSpaceOnUse" x="47" y="165" width="41" height="56">
<path d="M87.3128 169.955C87.5196 167.178 47.9316 162.648 47.9316 166.489C47.9316 166.489 47.9796 167.1 48.0669 168.186C48.019 168.194 47.9796 168.202 47.9316 168.21C48.9568 179.992 52.62 220.052 55.3933 220.226C58.6435 220.424 77.4599 220.718 78.8345 220.226C80.0422 219.79 85.7636 182.793 87.3128 171.518C87.257 171.51 87.1932 171.494 87.1381 171.487C87.2412 170.725 87.2964 170.201 87.3128 169.955Z" fill="white"/>
</mask>
<g mask="url(#mask10_3057_1209)">
<path d="M85.126 230.049L65.9832 154.566" stroke="#263D74" stroke-width="1.21" stroke-miterlimit="10"/>
</g>
<mask id="mask11_3057_1209" style="mask-type:luminance" maskUnits="userSpaceOnUse" x="47" y="165" width="41" height="56">
<path d="M87.3128 169.955C87.5196 167.178 47.9316 162.648 47.9316 166.489C47.9316 166.489 47.9796 167.1 48.0669 168.186C48.019 168.194 47.9796 168.202 47.9316 168.21C48.9568 179.992 52.62 220.052 55.3933 220.226C58.6435 220.424 77.4599 220.718 78.8345 220.226C80.0422 219.79 85.7636 182.793 87.3128 171.518C87.257 171.51 87.1932 171.494 87.1381 171.487C87.2412 170.725 87.2964 170.201 87.3128 169.955Z" fill="white"/>
</mask>
<g mask="url(#mask11_3057_1209)">
<path d="M79.2819 230.049L60.1396 154.566" stroke="#263D74" stroke-width="1.21" stroke-miterlimit="10"/>
</g>
<mask id="mask12_3057_1209" style="mask-type:luminance" maskUnits="userSpaceOnUse" x="47" y="165" width="41" height="56">
<path d="M87.3128 169.955C87.5196 167.178 47.9316 162.648 47.9316 166.489C47.9316 166.489 47.9796 167.1 48.0669 168.186C48.019 168.194 47.9796 168.202 47.9316 168.21C48.9568 179.992 52.62 220.052 55.3933 220.226C58.6435 220.424 77.4599 220.718 78.8345 220.226C80.0422 219.79 85.7636 182.793 87.3128 171.518C87.257 171.51 87.1932 171.494 87.1381 171.487C87.2412 170.725 87.2964 170.201 87.3128 169.955Z" fill="white"/>
</mask>
<g mask="url(#mask12_3057_1209)">
<path d="M73.4376 230.049L54.2954 154.566" stroke="#263D74" stroke-width="1.21" stroke-miterlimit="10"/>
</g>
<mask id="mask13_3057_1209" style="mask-type:luminance" maskUnits="userSpaceOnUse" x="47" y="165" width="41" height="56">
<path d="M87.3128 169.955C87.5196 167.178 47.9316 162.648 47.9316 166.489C47.9316 166.489 47.9796 167.1 48.0669 168.186C48.019 168.194 47.9796 168.202 47.9316 168.21C48.9568 179.992 52.62 220.052 55.3933 220.226C58.6435 220.424 77.4599 220.718 78.8345 220.226C80.0422 219.79 85.7636 182.793 87.3128 171.518C87.257 171.51 87.1932 171.494 87.1381 171.487C87.2412 170.725 87.2964 170.201 87.3128 169.955Z" fill="white"/>
</mask>
<g mask="url(#mask13_3057_1209)">
<path d="M67.5944 230.049L48.4521 154.566" stroke="#263D74" stroke-width="1.21" stroke-miterlimit="10"/>
</g>
<mask id="mask14_3057_1209" style="mask-type:luminance" maskUnits="userSpaceOnUse" x="47" y="165" width="41" height="56">
<path d="M87.3128 169.955C87.5196 167.178 47.9316 162.648 47.9316 166.489C47.9316 166.489 47.9796 167.1 48.0669 168.186C48.019 168.194 47.9796 168.202 47.9316 168.21C48.9568 179.992 52.62 220.052 55.3933 220.226C58.6435 220.424 77.4599 220.718 78.8345 220.226C80.0422 219.79 85.7636 182.793 87.3128 171.518C87.257 171.51 87.1932 171.494 87.1381 171.487C87.2412 170.725 87.2964 170.201 87.3128 169.955Z" fill="white"/>
</mask>
<g mask="url(#mask14_3057_1209)">
<path d="M61.7508 230.049L42.6086 154.566" stroke="#263D74" stroke-width="1.21" stroke-miterlimit="10"/>
</g>
<path d="M76.2437 211.96C70.4646 212.575 64.6381 212.613 58.8517 212.072L52.6851 211.496C53.5638 216.705 54.4556 220.201 55.2706 220.252C58.5207 220.45 77.3372 220.744 78.7117 220.252C79.0788 220.12 79.8629 216.609 80.8191 211.473L76.2437 211.96Z" fill="#263D74"/>
<path d="M209.49 223.73C211.776 224.784 254.626 224.002 255.904 223.923C256.505 223.885 257.858 223.146 257.588 221.898C256.946 218.923 257.167 215.432 257.857 213.912C258.626 212.218 255.805 210.929 253.442 210.929C245.881 210.929 206.148 207.556 208.599 213.563C209.591 215.994 211.512 218.203 209.088 221.645C208.149 222.98 209.49 223.73 209.49 223.73Z" fill="#D4761D"/>
<path d="M209.255 221.386H257.488C256.991 218.631 257.193 215.568 257.794 214.071H208.82C209.812 216.248 211.249 218.33 209.255 221.386Z" fill="#DEE7F7"/>
<path d="M210.165 216.037C214.093 215.879 218.022 215.805 221.95 215.743C225.879 215.679 229.807 215.685 233.735 215.653C237.664 215.683 241.592 215.68 245.521 215.742L251.414 215.849C253.378 215.913 255.342 215.951 257.306 216.038C255.342 216.125 253.378 216.163 251.414 216.227L245.521 216.335C241.592 216.395 237.664 216.393 233.735 216.423C229.807 216.391 225.878 216.397 221.95 216.333C218.022 216.271 214.093 216.196 210.165 216.037Z" fill="white"/>
<path d="M210.165 217.999C214.093 217.84 218.022 217.766 221.95 217.704C225.879 217.641 229.807 217.647 233.735 217.615C237.664 217.645 241.592 217.642 245.521 217.703L251.414 217.811C253.378 217.874 255.342 217.912 257.306 218C255.342 218.087 253.378 218.124 251.414 218.188L245.521 218.295C241.592 218.356 237.664 218.354 233.735 218.384C229.807 218.352 225.878 218.358 221.95 218.294C218.022 218.232 214.093 218.158 210.165 217.999Z" fill="white"/>
<path d="M210.165 219.959C214.093 219.8 218.022 219.726 221.95 219.665C225.879 219.601 229.807 219.607 233.735 219.575C237.664 219.605 241.592 219.602 245.521 219.663L251.414 219.771C253.378 219.834 255.342 219.873 257.306 219.96C255.342 220.047 253.378 220.084 251.414 220.149L245.521 220.256C241.592 220.317 237.664 220.314 233.735 220.345C229.807 220.313 225.878 220.318 221.95 220.255C218.022 220.192 214.093 220.118 210.165 219.959Z" fill="white"/>
<path d="M210.354 199.987L210.497 211.302L256.069 211.301V200.471C256.069 199.973 255.667 199.571 255.17 199.57C249.187 199.566 217.85 199.09 211.249 199.087C210.751 199.086 210.354 199.49 210.354 199.987Z" fill="#B1D9B0"/>
<path opacity="0.7" d="M211.67 211.301H215.244L215.933 198.983C214.212 198.982 212.708 198.981 211.491 198.981L211.67 211.301Z" fill="white"/>
<path d="M218.167 202.27C218.167 202.27 217.801 207.902 218.167 208.123C218.533 208.344 254.041 208.609 254.285 208.123C254.529 207.637 254.535 202.919 254.285 202.27C253.918 201.321 218.595 201.232 218.167 202.27Z" fill="#C4F1C3"/>
<path d="M254.958 190.771V196.273C254.958 198.043 253.521 199.478 251.748 199.478H213.967C212.202 199.478 211.551 198.373 211.543 196.611C211.526 193.198 211.023 187.898 212.783 187.521C215.163 187.012 242.161 186.735 252.028 187.577C253.688 187.719 254.958 189.108 254.958 190.771Z" fill="#D4761D"/>
<path d="M213.61 189.225C212.985 189.866 212.79 197.331 214.426 197.867C215.214 198.125 250.6 198.603 252.243 197.815C253.646 197.142 253.62 189.225 252.482 188.969C251.344 188.712 213.61 189.225 213.61 189.225Z" fill="#DB9023"/>
<path opacity="0.28" d="M197.694 205.419L204.732 198.696C204.732 198.696 201 198.539 201.419 198.171C201.653 197.965 202.286 196.526 202.798 195.294C201.743 195.314 200.765 195.337 199.885 195.363C198.945 196.837 197.006 199.977 197.734 199.671C198.681 199.274 201.419 199.431 201.419 199.431L197.457 205.419H197.694Z" fill="#D0E9F6"/>
<path d="M228.174 38.4845C231.521 39.4202 238.958 37.3868 244.473 35.5711C244.592 35.0602 244.593 34.6727 244.434 34.4563C242.289 31.5343 227.661 24.0321 222.726 21.996C222.289 21.8157 221.815 21.8209 221.385 21.9737C222.205 27.619 224.181 37.3691 228.174 38.4845Z" fill="#487FE0"/>
<path d="M228.173 38.4845C224.182 37.3685 222.204 27.619 221.385 21.9738C221.029 22.101 220.704 22.3279 220.461 22.6518L220.203 22.9967C220.203 22.9967 209.405 37.0734 212.013 39.6977C214.62 42.3219 232.938 54.8681 235.551 50.9061C237.813 47.4753 243.701 38.8681 244.473 35.5711C238.958 37.3868 231.521 39.4203 228.173 38.4845Z" fill="#98BCF1"/>
<path d="M117.453 110.06C117.453 110.06 120.592 119.319 121.962 128.619C123.089 136.269 119.648 144.323 120.118 144.042C120.625 143.737 133.669 142.236 146.901 142.456C157.884 142.638 168.066 143.522 171.857 143.886C172.495 143.947 172.925 143.27 172.616 142.709C167.62 133.637 170.729 122.461 173.771 113.517L175.877 107.324L117.453 110.06Z" fill="#263D74"/>
<path d="M105.587 109.721C108.731 113.065 132.864 119.624 144.03 121.04C153.813 122.282 186.901 112.419 191.587 109.721C196.272 107.023 154.771 95.4856 146.368 95.5329C137.964 95.5801 100.995 104.838 105.587 109.721Z" fill="#487FE0"/>
<path d="M191.588 109.721V125.986" stroke="#487FE0" stroke-width="0.9616" stroke-miterlimit="10"/>
<path d="M191.555 120.52C191.555 120.52 186.21 127.324 188.104 128.619C189.997 129.914 191.555 120.52 191.555 120.52Z" fill="#487FE0"/>
<path d="M191.724 121.576C191.724 121.576 189.258 129.865 191.495 130.375C193.733 130.884 191.724 121.576 191.724 121.576Z" fill="#487FE0"/>
<path d="M191.556 120.52C191.556 120.52 198.573 127.599 195.706 127.969C192.84 128.338 191.556 120.52 191.556 120.52Z" fill="#487FE0"/>
<path d="M190.048 120.52C190.048 119.689 190.723 119.015 191.556 119.015C192.389 119.015 193.064 119.689 193.064 120.52C193.064 121.352 192.389 122.026 191.556 122.026C190.723 122.026 190.048 121.352 190.048 120.52Z" fill="#263D74"/>
<path d="M104.327 161.971L105.108 167.153L115.786 170.079L126.171 149.924L117.436 144.794L104.327 161.971Z" fill="#D4761D"/>
<path d="M106.232 148.05C106.211 148.094 106.156 148.109 106.144 148.155C106.039 148.58 105.689 150.698 109.146 150.64C112.988 150.575 115.25 148.846 119.356 152.292C124.555 156.654 124.74 161.624 126.922 161.969C129.104 162.314 130.633 145.114 126.922 142.578C123.346 140.136 107.323 145.726 106.232 148.05Z" fill="#D4761D"/>
<path d="M128.891 134.471C128.891 134.471 101.918 148.456 106.606 148.846C111.294 149.236 120.93 144.268 123.014 148.039C125.098 151.81 123.926 162.472 127.181 161.952C130.437 161.432 136.557 130.968 128.891 134.471Z" fill="#DB9023"/>
<path d="M117.175 146.894C116.85 147.285 105.689 162.342 105.689 162.342L116.066 165.166L123.674 149.807V149.203C123.273 148.205 122.628 147.323 121.798 146.639L121.614 146.783L119.323 146.312L117.175 146.894Z" fill="#DB9023"/>
<g opacity="0.22">
<path d="M192.044 87.9147C190.425 89.2039 189.075 90.8812 187.583 92.318C186.077 93.7678 184.602 95.2373 183.019 96.6039C182.55 97.0084 183.189 97.8576 183.69 97.4727C186.965 94.9593 190.76 92.1822 192.95 88.613C193.316 88.0157 192.526 87.5311 192.044 87.9147Z" fill="#263D74"/>
<path d="M200.739 106.117C200 106.082 199.248 106.318 198.544 106.524C198.342 106.584 198.137 106.642 197.933 106.705C197.858 106.608 197.738 106.547 197.598 106.59C197.133 106.732 196.848 107.033 196.6 107.442C196.448 107.694 196.584 108.079 196.886 108.143C197.575 108.288 198.252 108.065 198.922 107.892C199.63 107.709 200.395 107.526 201.011 107.119C201.459 106.822 201.284 106.142 200.739 106.117Z" fill="#263D74"/>
<path d="M116.306 94.6381C112.54 92.9666 109.145 90.8145 106.875 87.2617C106.597 86.8263 106 87.204 106.197 87.6571C107.943 91.6591 111.406 95.0643 115.832 95.762C116.454 95.8597 117.001 94.9463 116.306 94.6381Z" fill="#263D74"/>
<path d="M96.4675 108.746C95.5908 108.48 94.6037 108.538 93.6935 108.548C92.7708 108.558 91.8185 108.515 90.9254 108.768C90.4204 108.911 90.4197 109.648 90.9254 109.791C91.8185 110.044 92.7708 110.001 93.6935 110.011C94.6037 110.021 95.5908 110.079 96.4675 109.813C96.9942 109.653 96.9948 108.906 96.4675 108.746Z" fill="#263D74"/>
<path d="M108.525 125.429C105.975 128.475 103.71 132.145 101.781 135.615C101.578 135.979 102.075 136.396 102.373 136.071C105.055 133.154 107.63 129.446 109.089 125.757C109.212 125.447 108.736 125.178 108.525 125.429Z" fill="#263D74"/>
<path d="M187.451 138.079C186.983 137.275 186.341 136.558 185.816 135.787C185.285 135.008 184.797 134.203 184.345 133.375C184.135 132.99 183.595 133.328 183.766 133.713C184.503 135.366 185.5 137.316 186.942 138.471C187.214 138.688 187.648 138.419 187.451 138.079Z" fill="#263D74"/>
<path d="M146.37 81.7363C146.381 81.2059 145.596 81.2203 145.554 81.7363C145.495 82.4826 145.439 83.2288 145.361 83.9731C145.289 84.6498 145.171 85.3409 145.316 86.0104C145.416 86.4708 146.061 86.4111 146.191 86.0104C146.4 85.3672 146.343 84.6439 146.339 83.9731C146.335 83.2268 146.355 82.4819 146.37 81.7363Z" fill="#263D74"/>
<path d="M129.798 90.0204C129.452 89.2453 128.989 88.5554 128.766 87.7272C128.628 87.2184 127.748 87.2997 127.813 87.8558C127.934 88.8754 128.199 89.9351 129.001 90.6348C129.45 91.0282 130.03 90.543 129.798 90.0204Z" fill="#263D74"/>
<path d="M167.843 90.8119C167.44 90.9502 167.167 91.3509 166.888 91.6617C166.579 92.006 166.299 92.3804 166.009 92.7417C165.591 93.2611 166.327 94.0053 166.749 93.4807C167.052 93.1037 167.37 92.7345 167.655 92.3443C167.916 91.9876 168.259 91.6132 168.311 91.1679C168.338 90.9352 168.052 90.7404 167.843 90.8119Z" fill="#263D74"/>
<path d="M201.706 123.883C201.578 123.701 201.406 123.681 201.201 123.641C201.004 123.602 200.819 123.559 200.621 123.532C200.47 123.512 200.333 123.456 200.21 123.36C199.723 122.979 199.116 123.559 199.525 124.045C199.768 124.334 200.118 124.587 200.479 124.711C200.835 124.835 201.505 124.755 201.719 124.394C201.816 124.233 201.814 124.035 201.706 123.883Z" fill="#263D74"/>
</g>
</svg>
