<svg width="24" height="24" viewBox="0 0 24 24" fill="none" xmlns="http://www.w3.org/2000/svg">
<mask id="mask0_110_22894" style="mask-type:luminance" maskUnits="userSpaceOnUse" x="1" y="1" width="22" height="22">
<path d="M22.25 22.25V1.75H1.75V22.25H22.25Z" fill="white" stroke="white" stroke-width="1.5"/>
</mask>
<g mask="url(#mask0_110_22894)">
<path d="M11.6562 22.1404H4.4375C3.01364 22.1404 1.85938 20.9861 1.85938 19.5623V6.15601C1.85938 4.73215 3.01364 3.57788 4.4375 3.57788H19.5625C20.9864 3.57788 22.1406 4.73215 22.1406 6.15601V12.2576" stroke="#033AA5" stroke-width="1.5" stroke-miterlimit="10" stroke-linecap="round" stroke-linejoin="round"/>
<path d="M6.37109 9.91406C6.31067 9.91406 6.26172 9.96302 6.26172 10.0234C6.26172 10.0839 6.31067 10.1328 6.37109 10.1328C6.43151 10.1328 6.48047 10.0839 6.48047 10.0234C6.48047 9.96302 6.43151 9.91406 6.37109 9.91406Z" fill="#033AA5" stroke="#033AA5" stroke-width="1.5"/>
<path d="M10.1094 9.91406C10.049 9.91406 10 9.96302 10 10.0234C10 10.0839 10.049 10.1328 10.1094 10.1328C10.1698 10.1328 10.2187 10.0839 10.2187 10.0234C10.2187 9.96302 10.1698 9.91406 10.1094 9.91406Z" fill="#033AA5" stroke="#033AA5" stroke-width="1.5"/>
<path d="M13.8477 9.91406C13.7872 9.91406 13.7383 9.96302 13.7383 10.0234C13.7383 10.0839 13.7872 10.1328 13.8477 10.1328C13.9081 10.1328 13.957 10.0839 13.957 10.0234C13.957 9.96302 13.9081 9.91406 13.8477 9.91406Z" fill="#033AA5" stroke="#033AA5" stroke-width="1.5"/>
<path d="M17.5859 9.91406C17.5255 9.91406 17.4766 9.96302 17.4766 10.0234C17.4766 10.0839 17.5255 10.1328 17.5859 10.1328C17.6464 10.1328 17.6953 10.0839 17.6953 10.0234C17.6953 9.96302 17.6464 9.91406 17.5859 9.91406Z" fill="#033AA5" stroke="#033AA5" stroke-width="1.5"/>
<path d="M6.48047 13.7617C6.48047 13.7013 6.43151 13.6523 6.37109 13.6523C6.31067 13.6523 6.26172 13.7013 6.26172 13.7617C6.26172 13.8221 6.31067 13.8711 6.37109 13.8711C6.43151 13.8711 6.48047 13.8221 6.48047 13.7617Z" fill="#033AA5" stroke="#033AA5" stroke-width="1.5"/>
<path d="M6.48047 17.5C6.48047 17.4396 6.43151 17.3906 6.37109 17.3906C6.31067 17.3906 6.26172 17.4396 6.26172 17.5C6.26172 17.5604 6.31067 17.6094 6.37109 17.6094C6.43151 17.6094 6.48047 17.5604 6.48047 17.5Z" fill="#033AA5" stroke="#033AA5" stroke-width="1.5"/>
<path d="M10.2187 13.7617C10.2187 13.7013 10.1698 13.6523 10.1094 13.6523C10.049 13.6523 10 13.7013 10 13.7617C10 13.8221 10.049 13.8711 10.1094 13.8711C10.1698 13.8711 10.2187 13.8221 10.2187 13.7617Z" fill="#033AA5" stroke="#033AA5" stroke-width="1.5"/>
<path d="M10.2187 17.5C10.2187 17.4396 10.1698 17.3906 10.1094 17.3906C10.049 17.3906 10 17.4396 10 17.5C10 17.5604 10.049 17.6094 10.1094 17.6094C10.1698 17.6094 10.2187 17.5604 10.2187 17.5Z" fill="#033AA5" stroke="#033AA5" stroke-width="1.5"/>
<path d="M10.1094 9.91406C10.049 9.91406 10 9.96302 10 10.0234C10 10.0839 10.049 10.1328 10.1094 10.1328C10.1698 10.1328 10.2187 10.0839 10.2187 10.0234C10.2187 9.96302 10.1698 9.91406 10.1094 9.91406Z" fill="#033AA5" stroke="#033AA5" stroke-width="1.5"/>
<path d="M10.2187 13.7617C10.2187 13.7013 10.1698 13.6523 10.1094 13.6523C10.049 13.6523 10 13.7013 10 13.7617C10 13.8221 10.049 13.8711 10.1094 13.8711C10.1698 13.8711 10.2187 13.8221 10.2187 13.7617Z" fill="#033AA5" stroke="#033AA5" stroke-width="1.5"/>
<path d="M10.2187 17.5C10.2187 17.4396 10.1698 17.3906 10.1094 17.3906C10.049 17.3906 10 17.4396 10 17.5C10 17.5604 10.049 17.6094 10.1094 17.6094C10.1698 17.6094 10.2187 17.5604 10.2187 17.5Z" fill="#033AA5" stroke="#033AA5" stroke-width="1.5"/>
<path d="M13.957 13.7617C13.957 13.7013 13.9081 13.6523 13.8477 13.6523C13.7872 13.6523 13.7383 13.7013 13.7383 13.7617C13.7383 13.8221 13.7872 13.8711 13.8477 13.8711C13.9081 13.8711 13.957 13.8221 13.957 13.7617Z" fill="#033AA5" stroke="#033AA5" stroke-width="1.5"/>
<path d="M17.6953 13.7617C17.6953 13.7013 17.6464 13.6523 17.5859 13.6523C17.5255 13.6523 17.4766 13.7013 17.4766 13.7617C17.4766 13.8221 17.5255 13.8711 17.5859 13.8711C17.6464 13.8711 17.6953 13.8221 17.6953 13.7617Z" fill="#033AA5" stroke="#033AA5" stroke-width="1.5"/>
<path d="M6.37109 1.85938V5.29688" stroke="#033AA5" stroke-width="1.5" stroke-miterlimit="10" stroke-linecap="round" stroke-linejoin="round"/>
<path d="M17.5859 5.29688V1.85938" stroke="#033AA5" stroke-width="1.5" stroke-miterlimit="10" stroke-linecap="round" stroke-linejoin="round"/>
<path d="M11.957 1.85938V5.29688" stroke="#033AA5" stroke-width="1.5" stroke-miterlimit="10" stroke-linecap="round" stroke-linejoin="round"/>
<path d="M13.1615 19.0922L15.9038 21.7684C16.4762 22.3133 17.3922 22.2522 17.8872 21.6362L22.1403 15.6953" stroke="#033AA5" stroke-width="1.5" stroke-miterlimit="10" stroke-linecap="round" stroke-linejoin="round"/>
</g>
</svg>
