<svg width="24" height="24" viewBox="0 0 24 24" fill="none" xmlns="http://www.w3.org/2000/svg">
<g clip-path="url(#clip0_158_27379)">
<path d="M12 9V13" stroke="#FF0000" stroke-width="1.5" stroke-linecap="round" stroke-linejoin="round"/>
<path d="M10.3625 3.92322L2.2565 17.4572C2.08939 17.7466 2.00096 18.0747 2.00001 18.4089C1.99905 18.743 2.0856 19.0716 2.25104 19.362C2.41649 19.6523 2.65506 19.8943 2.94304 20.0638C3.23101 20.2333 3.55835 20.3245 3.8925 20.3282H20.1065C20.4405 20.3244 20.7677 20.2332 21.0555 20.0637C21.3433 19.8942 21.5818 19.6524 21.7472 19.3622C21.9126 19.072 21.9992 18.7436 21.9984 18.4096C21.9976 18.0756 21.9094 17.7476 21.7425 17.4582L13.6365 3.92222C13.466 3.64072 13.2257 3.40796 12.9389 3.24642C12.6522 3.08487 12.3286 3 11.9995 3C11.6704 3 11.3468 3.08487 11.06 3.24642C10.7733 3.40796 10.533 3.64072 10.3625 3.92222V3.92322Z" stroke="#FF0000" stroke-width="1.5" stroke-linecap="round" stroke-linejoin="round"/>
<path d="M12 16H12.01" stroke="#FF0000" stroke-width="1.5" stroke-linecap="round" stroke-linejoin="round"/>
</g>
<defs>
<clipPath id="clip0_158_27379">
<rect width="24" height="24" fill="white"/>
</clipPath>
</defs>
</svg>
