<svg width="25" height="24" viewBox="0 0 25 24" fill="none" xmlns="http://www.w3.org/2000/svg">
<g clip-path="url(#clip0_145_26978)">
<path d="M3.5 18.9997C4.86817 18.2098 6.42017 17.7939 8 17.7939C9.57983 17.7939 11.1318 18.2098 12.5 18.9997C13.8682 18.2098 15.4202 17.7939 17 17.7939C18.5798 17.7939 20.1318 18.2098 21.5 18.9997" stroke="#033AA5" stroke-linecap="round" stroke-linejoin="round"/>
<path d="M3.5 5.99972C4.86817 5.2098 6.42017 4.79395 8 4.79395C9.57983 4.79395 11.1318 5.2098 12.5 5.99972C13.8682 5.2098 15.4202 4.79395 17 4.79395C18.5798 4.79395 20.1318 5.2098 21.5 5.99972" stroke="#033AA5" stroke-linecap="round" stroke-linejoin="round"/>
<path d="M3.5 6V19" stroke="#033AA5" stroke-linecap="round" stroke-linejoin="round"/>
<path d="M12.5 6V19" stroke="#033AA5" stroke-linecap="round" stroke-linejoin="round"/>
<path d="M21.5 6V19" stroke="#033AA5" stroke-linecap="round" stroke-linejoin="round"/>
</g>
<defs>
<clipPath id="clip0_145_26978">
<rect width="24" height="24" fill="white" transform="translate(0.5)"/>
</clipPath>
</defs>
</svg>
