<svg width="24" height="24" viewBox="0 0 24 24" fill="none" xmlns="http://www.w3.org/2000/svg">
<path d="M19.3462 15.852V13.3536L18.2918 13.7638L18.2887 13.7569L18.2636 13.7112C17.8596 13.0822 17.2062 12.6445 16.4704 12.5111L13.9333 12.0495V11.8492C14.8821 11.2983 15.5769 10.3583 15.7934 9.24716C16.4963 9.10178 17.0264 8.47814 17.0264 7.73271V3.91391C17.0264 2.83481 16.3196 1.89374 15.2943 1.58752L15.1009 1.39421C14.2016 0.494893 13.0061 0 11.7345 0C9.10963 0 6.97386 2.13539 6.97386 4.76064V7.73271C6.97386 8.47814 7.50394 9.10178 8.20684 9.24716C8.42374 10.3583 9.11814 11.2986 10.0669 11.8492V12.0495L7.53023 12.5107C6.79523 12.6441 6.14221 13.081 5.73779 13.7097L5.71459 13.7661L4.65405 13.3536V15.852C4.01455 15.852 3.49414 16.3725 3.49414 17.012V18.5585C3.49414 19.198 4.01455 19.7184 4.65405 19.7184V21.1428L12.0001 24L19.3462 21.1428V19.7184C19.9857 19.7184 20.5061 19.198 20.5061 18.5585V17.012C20.5061 16.3725 19.9857 15.852 19.3462 15.852ZM14.6578 12.9674L16.332 13.2716C16.8249 13.3613 17.2614 13.6459 17.5526 14.0511L13.8119 15.5056L14.6578 12.9674ZM10.8731 12.2038C11.2299 12.3128 11.6081 12.3723 12.0001 12.3723C12.3922 12.3723 12.7703 12.3128 13.1272 12.2038L12.0001 13.0489L10.8731 12.2038ZM11.4117 13.574L10.6225 14.3627L10.1106 12.8274L10.3569 12.7829L11.4117 13.574ZM13.6433 12.7833L13.8896 12.8278L13.3777 14.3631L12.5886 13.5744L13.6433 12.7833ZM15.8665 8.39849V7.06692C16.0965 7.20108 16.2531 7.44776 16.2531 7.73271C16.2531 8.01766 16.0965 8.26433 15.8665 8.39849ZM8.13376 8.39849C7.90372 8.26433 7.74713 8.01766 7.74713 7.73271C7.74713 7.44776 7.90372 7.20108 8.13376 7.06692V8.39849ZM8.13376 5.79953V6.24107C7.99612 6.27702 7.86699 6.33115 7.74713 6.40113V4.76064C7.74713 2.56223 9.5357 0.773271 11.7345 0.773271C12.7993 0.773271 13.8011 1.18813 14.5542 1.9413L14.8952 2.28269L14.9992 2.30821C15.7377 2.49264 16.2531 3.15301 16.2531 3.91391V6.40113C16.1332 6.33115 16.0041 6.27664 15.8665 6.24107V5.79953H14.6405C13.5927 5.79953 12.5913 5.29922 11.963 4.46138L11.6556 4.05078L10.8874 4.81941C10.2548 5.45156 9.4143 5.79953 8.5204 5.79953H8.13376ZM8.90704 8.50598V6.55502C9.86164 6.46648 10.7474 6.05239 11.4341 5.36611L11.5845 5.21571C12.3597 6.07133 13.4763 6.5728 14.6405 6.5728H15.0932V8.50598C15.0932 10.2114 13.7056 11.5991 12.0001 11.5991C10.2947 11.5991 8.90704 10.2114 8.90704 8.50598ZM7.66826 13.2716L9.34239 12.9674L10.1883 15.5056L6.44687 14.0507C6.73801 13.6451 7.1753 13.3613 7.66826 13.2716ZM4.26741 18.5585V17.012C4.26741 16.7985 4.44101 16.6253 4.65405 16.6253C5.29354 16.6253 5.81395 17.1457 5.81395 17.7852C5.81395 18.4247 5.29354 18.9451 4.65405 18.9451C4.44101 18.9451 4.26741 18.7719 4.26741 18.5585ZM11.6135 23.0195L5.42732 20.6142V19.5545C6.10896 19.2552 6.58722 18.5759 6.58722 17.7852C6.58722 16.9946 6.10896 16.3152 5.42732 16.016V14.4841L11.6135 16.8898V23.0195ZM10.4656 15.6139L12.0001 14.0789L13.5347 15.6135L12.0001 16.2105L10.4656 15.6139ZM18.5729 20.6138L12.3868 23.0191V16.8898L18.5729 14.4841V16.016C17.8913 16.3152 17.413 16.9946 17.413 17.7852C17.413 18.5759 17.8913 19.2552 18.5729 19.5545V20.6138ZM19.7328 18.5585C19.7328 18.7719 19.5592 18.9451 19.3462 18.9451C18.7067 18.9451 18.1863 18.4247 18.1863 17.7852C18.1863 17.1457 18.7067 16.6253 19.3462 16.6253C19.5592 16.6253 19.7328 16.7985 19.7328 17.012V18.5585Z" fill="#033AA5"/>
</svg>
