<svg width="24" height="24" viewBox="0 0 24 24" fill="none" xmlns="http://www.w3.org/2000/svg">
<g clip-path="url(#clip0_88_20875)">
<path d="M3 19.0002C4.36817 18.2103 5.92017 17.7944 7.5 17.7944C9.07983 17.7944 10.6318 18.2103 12 19.0002C13.3682 18.2103 14.9202 17.7944 16.5 17.7944C18.0798 17.7944 19.6318 18.2103 21 19.0002" stroke="#033AA5" stroke-width="1.5" stroke-linecap="round" stroke-linejoin="round"/>
<path d="M3 6.00021C4.36817 5.21029 5.92017 4.79443 7.5 4.79443C9.07983 4.79443 10.6318 5.21029 12 6.00021C13.3682 5.21029 14.9202 4.79443 16.5 4.79443C18.0798 4.79443 19.6318 5.21029 21 6.00021" stroke="#033AA5" stroke-width="1.5" stroke-linecap="round" stroke-linejoin="round"/>
<path d="M3 6V19" stroke="#033AA5" stroke-width="1.5" stroke-linecap="round" stroke-linejoin="round"/>
<path d="M12 6V19" stroke="#033AA5" stroke-width="1.5" stroke-linecap="round" stroke-linejoin="round"/>
<path d="M21 6V19" stroke="#033AA5" stroke-width="1.5" stroke-linecap="round" stroke-linejoin="round"/>
</g>
<defs>
<clipPath id="clip0_88_20875">
<rect width="24" height="24" fill="white"/>
</clipPath>
</defs>
</svg>
