<svg width="19" height="20" viewBox="0 0 19 20" fill="none" xmlns="http://www.w3.org/2000/svg">
<path fill-rule="evenodd" clip-rule="evenodd" d="M13.352 0C16.5102 0 18.6318 2.16273 18.6318 5.38122V14.6188C18.6318 17.8654 16.5755 19.9769 13.3932 19.997L5.66541 20C2.50719 20 0.384644 17.8373 0.384644 14.6188V5.38122C0.384644 2.1336 2.4409 0.023104 5.62322 0.00401808L13.351 0H13.352ZM13.352 1.50678L5.62824 1.5108C3.28972 1.52486 1.89142 2.97137 1.89142 5.38122V14.6188C1.89142 17.0447 3.30277 18.4932 5.6644 18.4932L13.3882 18.4902C15.7267 18.4761 17.125 17.0276 17.125 14.6188V5.38122C17.125 2.9553 15.7146 1.50678 13.352 1.50678ZM13.1582 13.5346C13.5741 13.5346 13.9116 13.8721 13.9116 14.288C13.9116 14.7039 13.5741 15.0414 13.1582 15.0414H5.90559C5.48972 15.0414 5.1522 14.7039 5.1522 14.288C5.1522 13.8721 5.48972 13.5346 5.90559 13.5346H13.1582ZM13.1582 9.32918C13.5741 9.32918 13.9116 9.6667 13.9116 10.0826C13.9116 10.4984 13.5741 10.836 13.1582 10.836H5.90559C5.48972 10.836 5.1522 10.4984 5.1522 10.0826C5.1522 9.6667 5.48972 9.32918 5.90559 9.32918H13.1582ZM8.67274 5.1335C9.08861 5.1335 9.42613 5.47102 9.42613 5.88689C9.42613 6.30276 9.08861 6.64028 8.67274 6.64028H5.90529C5.48941 6.64028 5.1519 6.30276 5.1519 5.88689C5.1519 5.47102 5.48941 5.1335 5.90529 5.1335H8.67274Z" fill="#2E2E2E"/>
</svg>
