<svg width="21" height="20" viewBox="0 0 21 20" fill="none" xmlns="http://www.w3.org/2000/svg">
<path fill-rule="evenodd" clip-rule="evenodd" d="M5.80498 17.3502C6.53576 17.3502 7.13041 17.9438 7.13041 18.6746C7.13041 19.4053 6.53576 20 5.80498 20C5.07421 20 4.48058 19.4053 4.48058 18.6746C4.48058 17.9438 5.07421 17.3502 5.80498 17.3502ZM17.3503 17.3502C18.0821 17.3502 18.6768 17.9438 18.6768 18.6746C18.6768 19.4053 18.0821 20 17.3503 20C16.6195 20 16.0259 19.4053 16.0259 18.6746C16.0259 17.9438 16.6195 17.3502 17.3503 17.3502ZM1.42872 0.00970994L3.55759 0.378168C3.90046 0.438554 4.16146 0.723086 4.19114 1.07107L4.43166 3.93788L5.32604 3.93827C5.47199 3.93833 5.61639 3.9384 5.75925 3.93846L7.40125 3.93924C7.53214 3.93931 7.66156 3.93937 7.78953 3.93944L9.60254 3.94043C9.71644 3.9405 9.82898 3.94057 9.94016 3.94064L11.2107 3.94145C11.3113 3.94151 11.4107 3.94158 11.5088 3.94165L12.6262 3.94247C12.7145 3.94254 12.8015 3.94261 12.8873 3.94268L13.8617 3.94352C13.9383 3.94359 14.0138 3.94366 14.0882 3.94373L14.7286 3.94437C14.7965 3.94444 14.8634 3.94451 14.9293 3.94458L15.6709 3.94544C15.7287 3.94551 15.7856 3.94558 15.8415 3.94566L16.4676 3.94653C16.5162 3.9466 16.5638 3.94668 16.6106 3.94675L17.0085 3.94742C17.0502 3.94749 17.0911 3.94756 17.1312 3.94764L17.5745 3.94854C17.6084 3.94861 17.6415 3.94869 17.674 3.94876L17.9468 3.94945C17.975 3.94952 18.0026 3.9496 18.0295 3.94968L18.322 3.9506C18.3439 3.95067 18.3652 3.95075 18.386 3.95083L18.5577 3.95153C18.5752 3.95161 18.5921 3.95169 18.6085 3.95177L18.7822 3.95271C18.7949 3.95279 18.807 3.95287 18.8188 3.95295L18.9135 3.95367C18.9228 3.95375 18.9318 3.95383 18.9404 3.95391L19.0085 3.95464C19.0151 3.95472 19.0214 3.9548 19.0274 3.95488L19.0737 3.95561C19.0781 3.9557 19.0822 3.95578 19.0861 3.95586L19.1155 3.9566C19.1182 3.95669 19.1207 3.95677 19.123 3.95685L19.1442 3.95785C19.1455 3.95794 19.1467 3.95802 19.1479 3.95811C19.1578 3.95904 19.1593 3.95921 19.1608 3.95938C19.7309 4.04228 20.2324 4.34012 20.5742 4.79864C20.9161 5.25615 21.0594 5.82009 20.9775 6.38506L20.0062 13.0971C19.823 14.3745 18.7135 15.3376 17.4239 15.3376H6.24632C4.89837 15.3376 3.75717 14.2854 3.64766 12.9395L2.71014 1.78957L1.16773 1.52346C0.749123 1.44977 0.469709 1.05367 0.541354 0.635065C0.615045 0.216456 1.01933 -0.0557937 1.42872 0.00970994ZM5.12071 5.47348L4.56062 5.47313L5.17779 12.8136C5.22282 13.3786 5.68442 13.8023 6.24836 13.8023H17.4219C17.9551 13.8023 18.4106 13.4052 18.4863 12.8781L19.4586 6.16501C19.4811 6.00534 19.4412 5.84568 19.344 5.71672C19.2478 5.58673 19.1065 5.50281 18.9469 5.48029C18.9395 5.48057 18.9218 5.48083 18.8943 5.48107L18.783 5.4817C18.7597 5.4818 18.7341 5.48189 18.7063 5.48197L18.1264 5.48285C18.0775 5.48289 18.0266 5.48292 17.9739 5.48294L16.6106 5.48289C16.5346 5.48286 16.4571 5.48283 16.3782 5.48279L14.8224 5.48185C14.7291 5.48178 14.6349 5.48171 14.5397 5.48164L13.6594 5.48093C13.5591 5.48085 13.4581 5.48076 13.3563 5.48067L12.4239 5.47985C12.3186 5.47976 12.2127 5.47966 12.1065 5.47957L11.4642 5.47898C11.3564 5.47888 11.2483 5.47878 11.14 5.47868L10.1597 5.47776C10.0505 5.47766 9.94109 5.47755 9.83173 5.47745L9.17603 5.47684C9.06691 5.47674 8.95792 5.47664 8.84911 5.47654L8.19898 5.47595C8.09116 5.47586 7.98365 5.47576 7.87652 5.47566L6.92415 5.47484C6.81983 5.47476 6.71608 5.47467 6.61295 5.47459L5.40939 5.47367C5.31227 5.4736 5.21602 5.47354 5.12071 5.47348ZM15.778 7.72103C16.2017 7.72103 16.5456 8.06492 16.5456 8.48865C16.5456 8.91238 16.2017 9.25627 15.778 9.25627H12.9409C12.5161 9.25627 12.1733 8.91238 12.1733 8.48865C12.1733 8.06492 12.5161 7.72103 12.9409 7.72103H15.778Z" fill="#2E2E2E"/>
</svg>
