<svg width="24" height="24" viewBox="0 0 24 24" fill="none" xmlns="http://www.w3.org/2000/svg">
<path d="M11.9995 11.7001C13.3158 11.7001 14.3829 10.633 14.3829 9.3167C14.3829 8.00041 13.3158 6.93335 11.9995 6.93335C10.6832 6.93335 9.61615 8.00041 9.61615 9.3167C9.61615 10.633 10.6832 11.7001 11.9995 11.7001Z" stroke="#033AA5" stroke-width="1.5" stroke-miterlimit="10" stroke-linecap="round" stroke-linejoin="round"/>
<path d="M16.7666 16.4669C16.7666 13.8342 14.6325 11.7002 11.9999 11.7002C9.36737 11.7002 7.23328 13.8342 7.23328 16.4669" stroke="#033AA5" stroke-width="1.5" stroke-miterlimit="10" stroke-linecap="round" stroke-linejoin="round"/>
<path d="M21.5332 16.4667V5.46665C21.5332 5.07764 21.3787 4.70473 21.1036 4.42973C20.8286 4.15437 20.4556 4 20.0666 4C16.515 4 7.48475 4 3.93321 4C3.54419 4 3.17115 4.15437 2.89615 4.42973C2.62106 4.70473 2.46655 5.07764 2.46655 5.46665C2.46655 8.76228 2.46655 16.4667 2.46655 16.4667" stroke="#033AA5" stroke-width="1.5" stroke-miterlimit="10" stroke-linecap="round" stroke-linejoin="round"/>
<path d="M14.2 16.4666C13.9652 16.7012 13.6468 16.8332 13.3149 16.8332H10.6852C10.3533 16.8332 10.0348 16.7012 9.80011 16.4666H9.80006H1V17.9332C1 18.3222 1.1545 18.6951 1.42959 18.9701C1.70464 19.2455 2.07768 19.3999 2.46665 19.3999C6.46674 19.3999 17.5333 19.3999 21.5333 19.3999C21.9224 19.3999 22.2954 19.2455 22.5704 18.9701C22.8455 18.6951 23 18.3222 23 17.9332C23 17.1999 23 16.4666 23 16.4666H14.2Z" stroke="#033AA5" stroke-width="1.5" stroke-miterlimit="10" stroke-linecap="round" stroke-linejoin="round"/>
</svg>
