<svg width="24" height="24" viewBox="0 0 24 24" fill="none" xmlns="http://www.w3.org/2000/svg">
<path d="M19.3461 15.852V13.3536L18.2917 13.7638L18.2886 13.7569L18.2635 13.7112C17.8595 13.0822 17.206 12.6445 16.4703 12.5111L13.9332 12.0495V11.8492C14.882 11.2983 15.5768 10.3583 15.7933 9.24716C16.4962 9.10178 17.0263 8.47814 17.0263 7.73271V3.91391C17.0263 2.83481 16.3195 1.89374 15.2941 1.58752L15.1008 1.39421C14.2015 0.494893 13.006 0 11.7344 0C9.10951 0 6.97374 2.13539 6.97374 4.76064V7.73271C6.97374 8.47814 7.50381 9.10178 8.20672 9.24716C8.42362 10.3583 9.11802 11.2986 10.0668 11.8492V12.0495L7.5301 12.5107C6.79511 12.6441 6.14208 13.081 5.73766 13.7097L5.71447 13.7661L4.65392 13.3536V15.852C4.01443 15.852 3.49402 16.3725 3.49402 17.012V18.5585C3.49402 19.198 4.01443 19.7184 4.65392 19.7184V21.1428L12 24L19.3461 21.1428V19.7184C19.9856 19.7184 20.506 19.198 20.506 18.5585V17.012C20.506 16.3725 19.9856 15.852 19.3461 15.852ZM14.6577 12.9674L16.3319 13.2716C16.8248 13.3613 17.2613 13.6459 17.5525 14.0511L13.8118 15.5056L14.6577 12.9674ZM10.873 12.2038C11.2298 12.3128 11.6079 12.3723 12 12.3723C12.392 12.3723 12.7702 12.3128 13.127 12.2038L12 13.0489L10.873 12.2038ZM11.4115 13.574L10.6224 14.3627L10.1105 12.8274L10.3568 12.7829L11.4115 13.574ZM13.6432 12.7833L13.8895 12.8278L13.3776 14.3631L12.5885 13.5744L13.6432 12.7833ZM15.8663 8.39849V7.06692C16.0964 7.20108 16.253 7.44776 16.253 7.73271C16.253 8.01766 16.0964 8.26433 15.8663 8.39849ZM8.13364 8.39849C7.90359 8.26433 7.74701 8.01766 7.74701 7.73271C7.74701 7.44776 7.90359 7.20108 8.13364 7.06692V8.39849ZM8.13364 5.79953V6.24107C7.996 6.27702 7.86686 6.33115 7.74701 6.40113V4.76064C7.74701 2.56223 9.53558 0.773271 11.7344 0.773271C12.7992 0.773271 13.8009 1.18813 14.5541 1.9413L14.8951 2.28269L14.9991 2.30821C15.7376 2.49264 16.253 3.15301 16.253 3.91391V6.40113C16.1331 6.33115 16.004 6.27664 15.8663 6.24107V5.79953H14.6403C13.5925 5.79953 12.5912 5.29922 11.9629 4.46138L11.6555 4.05078L10.8873 4.81941C10.2547 5.45156 9.41418 5.79953 8.52028 5.79953H8.13364ZM8.90691 8.50598V6.55502C9.86152 6.46648 10.7473 6.05239 11.434 5.36611L11.5844 5.21571C12.3596 6.07133 13.4762 6.5728 14.6403 6.5728H15.0931V8.50598C15.0931 10.2114 13.7054 11.5991 12 11.5991C10.2945 11.5991 8.90691 10.2114 8.90691 8.50598ZM7.66813 13.2716L9.34226 12.9674L10.1882 15.5056L6.44675 14.0507C6.73789 13.6451 7.17517 13.3613 7.66813 13.2716ZM4.26729 18.5585V17.012C4.26729 16.7985 4.44089 16.6253 4.65392 16.6253C5.29342 16.6253 5.81383 17.1457 5.81383 17.7852C5.81383 18.4247 5.29342 18.9451 4.65392 18.9451C4.44089 18.9451 4.26729 18.7719 4.26729 18.5585ZM11.6134 23.0195L5.4272 20.6142V19.5545C6.10883 19.2552 6.5871 18.5759 6.5871 17.7852C6.5871 16.9946 6.10883 16.3152 5.4272 16.016V14.4841L11.6134 16.8898V23.0195ZM10.4654 15.6139L12 14.0789L13.5346 15.6135L12 16.2105L10.4654 15.6139ZM18.5728 20.6138L12.3866 23.0191V16.8898L18.5728 14.4841V16.016C17.8912 16.3152 17.4129 16.9946 17.4129 17.7852C17.4129 18.5759 17.8912 19.2552 18.5728 19.5545V20.6138ZM19.7327 18.5585C19.7327 18.7719 19.5591 18.9451 19.3461 18.9451C18.7066 18.9451 18.1862 18.4247 18.1862 17.7852C18.1862 17.1457 18.7066 16.6253 19.3461 16.6253C19.5591 16.6253 19.7327 16.7985 19.7327 17.012V18.5585Z" fill="#033AA5"/>
</svg>
