<svg width="16" height="18" viewBox="0 0 16 18" fill="none" xmlns="http://www.w3.org/2000/svg">
<path d="M8.29622 17.5193L8.28671 17.521L8.22531 17.5513L8.20801 17.5547L8.19591 17.5513L8.13451 17.521C8.12586 17.5176 8.11807 17.5201 8.11375 17.5253L8.11029 17.534L8.09559 17.9041L8.09991 17.9214L8.10856 17.9327L8.1985 17.9967L8.21147 18.0001L8.22185 17.9967L8.31179 17.9327L8.32217 17.9188L8.32563 17.9041L8.31093 17.5348C8.3092 17.5262 8.30314 17.5201 8.29622 17.5193ZM8.5254 17.4216L8.51415 17.4233L8.35417 17.5037L8.34552 17.5124L8.34292 17.5219L8.35849 17.8937L8.36281 17.9041L8.36973 17.9102L8.54356 17.9906C8.55393 17.9941 8.56345 17.9906 8.56864 17.9837L8.5721 17.9716L8.54269 17.4406C8.5401 17.4302 8.53404 17.4233 8.5254 17.4216ZM7.90706 17.4233C7.90313 17.4215 7.89873 17.421 7.89452 17.422C7.89031 17.4229 7.88652 17.4252 7.88371 17.4285L7.87852 17.4406L7.84912 17.9716C7.84912 17.982 7.85517 17.9889 7.86382 17.9923L7.87679 17.9906L8.05062 17.9102L8.05927 17.9033L8.06273 17.8937L8.07743 17.5219L8.07483 17.5115L8.06619 17.5029L7.90706 17.4233Z" fill="#2E2E2E"/>
<path d="M11.2424 0C11.4543 2.79423e-05 11.6587 0.0777943 11.817 0.218549C11.9753 0.359303 12.0764 0.553256 12.1012 0.763621L12.1072 0.864803V1.72961H13.8368C14.2732 1.72947 14.6935 1.89427 15.0134 2.19097C15.3334 2.48768 15.5294 2.89436 15.5621 3.32949L15.5664 3.45921V13.8368C15.5666 14.2732 15.4018 14.6935 15.1051 15.0134C14.8084 15.3334 14.4017 15.5294 13.9666 15.5621L13.8368 15.5664H1.72961C1.29325 15.5666 0.872961 15.4018 0.553 15.1051C0.233039 14.8084 0.0370511 14.4017 0.0043242 13.9666L8.6712e-08 13.8368V3.45921C-0.000138005 3.02285 0.164664 2.60257 0.46137 2.2826C0.758075 1.96264 1.16475 1.76666 1.59988 1.73393L1.72961 1.72961H3.45921V0.864803C3.45945 0.644382 3.54386 0.432373 3.69517 0.272094C3.84648 0.111815 4.05329 0.0153632 4.27333 0.00244556C4.49337 -0.0104721 4.71004 0.0611196 4.87907 0.202593C5.0481 0.344066 5.15673 0.544743 5.18276 0.763621L5.18882 0.864803V1.72961H10.3776V0.864803C10.3776 0.635443 10.4687 0.415477 10.6309 0.253295C10.7931 0.0911128 11.0131 0 11.2424 0ZM13.8368 7.78322H1.72961V13.8368H13.8368V7.78322ZM13.8368 3.45921H1.72961V6.05362H13.8368V3.45921Z" fill="#2E2E2E"/>
</svg>
