<svg width="21" height="20" viewBox="0 0 21 20" fill="none" xmlns="http://www.w3.org/2000/svg">
<mask id="mask0_295_6" style="mask-type:luminance" maskUnits="userSpaceOnUse" x="0" y="0" width="21" height="20">
<path d="M19.75 19.25V0.75H1.25V19.25H19.75Z" fill="white" stroke="white" stroke-width="1.5"/>
</mask>
<g mask="url(#mask0_295_6)">
<path d="M9.09375 8.59375C9.09375 9.45668 8.39418 10.1562 7.53125 10.1562H2.84375C1.98082 10.1562 1.28125 9.45668 1.28125 8.59375V2.34375C1.28125 1.48082 1.98082 0.781245 2.84375 0.781245H7.53125C8.39418 0.781245 9.09375 1.48082 9.09375 2.34375V8.59375Z" stroke="#033AA5" stroke-width="1.5" stroke-miterlimit="10"/>
<path d="M19.7188 17.6562C19.7188 18.5192 19.0192 19.2188 18.1562 19.2188H13.4688C12.6058 19.2188 11.9062 18.5192 11.9062 17.6562V11.4062C11.9062 10.5433 12.6058 9.84374 13.4688 9.84374H18.1562C19.0192 9.84374 19.7188 10.5433 19.7188 11.4062V17.6562Z" stroke="#033AA5" stroke-width="1.5" stroke-miterlimit="10"/>
<path d="M9.09375 17.6562C9.09375 18.5192 8.39418 19.2188 7.53125 19.2188H2.84375C1.98082 19.2188 1.28125 18.5192 1.28125 17.6562V14.5312C1.28125 13.6683 1.98082 12.9688 2.84375 12.9688H7.53125C8.39418 12.9688 9.09375 13.6683 9.09375 14.5312V17.6562Z" stroke="#033AA5" stroke-width="1.5" stroke-miterlimit="10"/>
<path d="M19.7188 5.46875C19.7188 6.33168 19.0192 7.03125 18.1562 7.03125H13.4688C12.6058 7.03125 11.9062 6.33168 11.9062 5.46875V2.34375C11.9062 1.48082 12.6058 0.78125 13.4688 0.78125H18.1562C19.0192 0.78125 19.7188 1.48082 19.7188 2.34375V5.46875Z" stroke="#033AA5" stroke-width="1.5" stroke-miterlimit="10"/>
</g>
</svg>
