<svg width="25" height="25" viewBox="0 0 25 25" fill="none" xmlns="http://www.w3.org/2000/svg">
<path d="M13 18.11L7.94571 13.0543L8.95571 12.0271L12.2857 15.3571V3H13.7143V15.3571L17.0429 12.0286L18.0543 13.0543L13 18.11ZM5.30714 23C4.65 23 4.10143 22.78 3.66143 22.34C3.22143 21.9 3.00095 21.351 3 20.6929V17.2314H4.42857V20.6929C4.42857 20.9119 4.52 21.1133 4.70286 21.2971C4.88571 21.481 5.08714 21.5724 5.30714 21.5714H20.6929C20.9119 21.5714 21.1133 21.48 21.2971 21.2971C21.481 21.1143 21.5724 20.9129 21.5714 20.6929V17.2314H23V20.6929C23 21.35 22.78 21.8986 22.34 22.3386C21.9 22.7786 21.351 22.999 20.6929 23H5.30714Z" fill="white"/>
</svg>
