<svg width="21" height="20" viewBox="0 0 21 20" fill="none" xmlns="http://www.w3.org/2000/svg">
<g opacity="0.15">
<path d="M16.2447 1.11108H6.67246C5.83895 1.11255 5.04 1.44431 4.45062 2.03369C3.86124 2.62307 3.52948 3.42202 3.52801 4.25553V4.99997C2.98015 5.13245 2.49296 5.44578 2.14517 5.88934C1.79737 6.3329 1.6093 6.88077 1.61134 7.44442V16.3833C1.61281 17.0474 1.87726 17.6838 2.34683 18.1534C2.81639 18.6229 3.45284 18.8874 4.1169 18.8889H13.0558C13.6194 18.8909 14.1673 18.7028 14.6109 18.355C15.0544 18.0072 15.3678 17.5201 15.5002 16.9722H16.2613C17.092 16.9663 17.8866 16.6326 18.4724 16.0437C19.0582 15.4548 19.3877 14.6584 19.3891 13.8277V4.25553C19.3877 3.42202 19.0559 2.62307 18.4665 2.03369C17.8771 1.44431 17.0782 1.11255 16.2447 1.11108ZM14.3891 16.3833C14.3891 16.734 14.2498 17.0703 14.0019 17.3183C13.7539 17.5662 13.4176 17.7055 13.0669 17.7055H4.1169C3.76622 17.7055 3.42991 17.5662 3.18195 17.3183C2.93398 17.0703 2.79468 16.734 2.79468 16.3833V7.44442C2.79321 7.26985 2.82633 7.09672 2.89212 6.93501C2.95791 6.77331 3.05507 6.62623 3.178 6.50227C3.30092 6.37831 3.44718 6.27993 3.60833 6.21278C3.76948 6.14564 3.94232 6.11108 4.1169 6.11108H13.0558C13.2313 6.1096 13.4053 6.14308 13.5678 6.20956C13.7302 6.27604 13.8778 6.3742 14.0019 6.49831C14.126 6.62241 14.2242 6.76999 14.2906 6.93243C14.3571 7.09486 14.3906 7.26891 14.3891 7.44442V16.3833ZM18.2169 13.8333C18.2169 14.3534 18.0103 14.8522 17.6425 15.22C17.2747 15.5878 16.7759 15.7944 16.2558 15.7944H15.5613V7.46108C15.5628 7.13085 15.4991 6.80358 15.3739 6.49799C15.2487 6.19241 15.0645 5.91452 14.8318 5.68024C14.599 5.44596 14.3224 5.25988 14.0176 5.13266C13.7129 5.00545 13.386 4.93959 13.0558 4.93886H4.72246V4.25553C4.72246 3.73541 4.92907 3.23659 5.29685 2.86881C5.66463 2.50103 6.16345 2.29442 6.68357 2.29442H16.2447C16.7648 2.29442 17.2636 2.50103 17.6314 2.86881C17.9992 3.23659 18.2058 3.73541 18.2058 4.25553L18.2169 13.8333Z" fill="#3445C4"/>
</g>
</svg>
