<svg width="24" height="24" viewBox="0 0 24 24" fill="none" xmlns="http://www.w3.org/2000/svg">
<g clip-path="url(#clip0_70_10470)">
<path d="M23.6 23.2H21.2V10C21.2 9.7791 21.0209 9.6 20.8 9.6H15.2V0.4C15.2 0.1791 15.0209 0 14.8 0H4.4C4.1791 0 4 0.1791 4 0.4V23.2H0.4C0.1791 23.2 0 23.3791 0 23.6C0 23.8209 0.1791 24 0.4 24H23.6C23.8209 24 24 23.8209 24 23.6C24 23.3791 23.8209 23.2 23.6 23.2ZM8.4 23.2H6.8V19.6C6.8 19.3791 6.9791 19.2 7.2 19.2H8C8.2209 19.2 8.4 19.3791 8.4 19.6V23.2ZM10 10V23.2H9.2V19.6C9.2 18.9373 8.66275 18.4 8 18.4H7.2C6.53725 18.4 6 18.9373 6 19.6V23.2H4.8V0.8H14.4V9.6H10.4C10.1791 9.6 10 9.7791 10 10ZM20.4 23.2H10.8V10.4H20.4V23.2Z" fill="#033AA5"/>
<path d="M12.8 5.6001H10.4C10.1791 5.6001 10 5.7792 10 6.0001V8.4001C10 8.621 10.1791 8.8001 10.4 8.8001H12.8C13.0209 8.8001 13.2 8.621 13.2 8.4001V6.0001C13.2 5.7792 13.0209 5.6001 12.8 5.6001ZM12.4 8.0001H10.8V6.4001H12.4V8.0001Z" fill="#033AA5"/>
<path d="M12.8 1.6001H10.4C10.1791 1.6001 10 1.7792 10 2.0001V4.4001C10 4.621 10.1791 4.8001 10.4 4.8001H12.8C13.0209 4.8001 13.2 4.621 13.2 4.4001V2.0001C13.2 1.7792 13.0209 1.6001 12.8 1.6001ZM12.4 4.0001H10.8V2.4001H12.4V4.0001Z" fill="#033AA5"/>
<path d="M8.8 5.6001H6.4C6.1791 5.6001 6 5.7792 6 6.0001V8.4001C6 8.621 6.1791 8.8001 6.4 8.8001H8.8C9.0209 8.8001 9.2 8.621 9.2 8.4001V6.0001C9.2 5.7792 9.0209 5.6001 8.8 5.6001ZM8.4 8.0001H6.8V6.4001H8.4V8.0001Z" fill="#033AA5"/>
<path d="M8.8 1.6001H6.4C6.1791 1.6001 6 1.7792 6 2.0001V4.4001C6 4.621 6.1791 4.8001 6.4 4.8001H8.8C9.0209 4.8001 9.2 4.621 9.2 4.4001V2.0001C9.2 1.7792 9.0209 1.6001 8.8 1.6001ZM8.4 4.0001H6.8V2.4001H8.4V4.0001Z" fill="#033AA5"/>
<path d="M8.8 9.6001H6.4C6.1791 9.6001 6 9.7792 6 10.0001V12.4001C6 12.621 6.1791 12.8001 6.4 12.8001H8.8C9.0209 12.8001 9.2 12.621 9.2 12.4001V10.0001C9.2 9.7792 9.0209 9.6001 8.8 9.6001ZM8.4 12.0001H6.8V10.4001H8.4V12.0001Z" fill="#033AA5"/>
<path d="M8.8 13.6001H6.4C6.1791 13.6001 6 13.7792 6 14.0001V16.4001C6 16.621 6.1791 16.8001 6.4 16.8001H8.8C9.0209 16.8001 9.2 16.621 9.2 16.4001V14.0001C9.2 13.7792 9.0209 13.6001 8.8 13.6001ZM8.4 16.0001H6.8V14.4001H8.4V16.0001Z" fill="#033AA5"/>
<path d="M16.4 18.4002H18.8C19.0209 18.4002 19.2 18.2211 19.2 18.0002V15.6002C19.2 15.3793 19.0209 15.2002 18.8 15.2002H16.4C16.1791 15.2002 16 15.3793 16 15.6002V18.0002C16 18.2211 16.1791 18.4002 16.4 18.4002ZM16.8 16.0002H18.4V17.6002H16.8V16.0002Z" fill="#033AA5"/>
<path d="M16.4 14.4002H18.8C19.0209 14.4002 19.2 14.2211 19.2 14.0002V11.6002C19.2 11.3793 19.0209 11.2002 18.8 11.2002H16.4C16.1791 11.2002 16 11.3793 16 11.6002V14.0002C16 14.2211 16.1791 14.4002 16.4 14.4002ZM16.8 12.0002H18.4V13.6002H16.8V12.0002Z" fill="#033AA5"/>
<path d="M16.4 22.4002H18.8C19.0209 22.4002 19.2 22.2211 19.2 22.0002V19.6002C19.2 19.3793 19.0209 19.2002 18.8 19.2002H16.4C16.1791 19.2002 16 19.3793 16 19.6002V22.0002C16 22.2211 16.1791 22.4002 16.4 22.4002ZM16.8 20.0002H18.4V21.6002H16.8V20.0002Z" fill="#033AA5"/>
<path d="M12.4 18.4002H14.8C15.0209 18.4002 15.2 18.2211 15.2 18.0002V15.6002C15.2 15.3793 15.0209 15.2002 14.8 15.2002H12.4C12.1791 15.2002 12 15.3793 12 15.6002V18.0002C12 18.2211 12.1791 18.4002 12.4 18.4002ZM12.8 16.0002H14.4V17.6002H12.8V16.0002Z" fill="#033AA5"/>
<path d="M12.4 14.4002H14.8C15.0209 14.4002 15.2 14.2211 15.2 14.0002V11.6002C15.2 11.3793 15.0209 11.2002 14.8 11.2002H12.4C12.1791 11.2002 12 11.3793 12 11.6002V14.0002C12 14.2211 12.1791 14.4002 12.4 14.4002ZM12.8 12.0002H14.4V13.6002H12.8V12.0002Z" fill="#033AA5"/>
<path d="M12.4 22.4002H14.8C15.0209 22.4002 15.2 22.2211 15.2 22.0002V19.6002C15.2 19.3793 15.0209 19.2002 14.8 19.2002H12.4C12.1791 19.2002 12 19.3793 12 19.6002V22.0002C12 22.2211 12.1791 22.4002 12.4 22.4002ZM12.8 20.0002H14.4V21.6002H12.8V20.0002Z" fill="#033AA5"/>
</g>
<defs>
<clipPath id="clip0_70_10470">
<rect width="24" height="24" fill="white"/>
</clipPath>
</defs>
</svg>
