<svg width="20" height="20" viewBox="0 0 20 20" fill="none" xmlns="http://www.w3.org/2000/svg">
<path fill-rule="evenodd" clip-rule="evenodd" d="M10.8969 13.2909C12.0166 13.2909 12.928 14.1958 12.928 15.3081V18.1688C12.928 18.4078 13.1196 18.5994 13.3651 18.605H15.1377C16.5346 18.605 17.6701 17.4834 17.6701 16.1051V7.99177C17.6636 7.51747 17.4376 7.07106 17.0498 6.77439L10.9183 1.88442C10.0952 1.23249 8.94386 1.23249 8.11802 1.88628L2.02834 6.77253C1.62565 7.0785 1.39966 7.52491 1.39501 8.00758V16.1051C1.39501 17.4834 2.53054 18.605 3.92741 18.605H5.71674C5.96877 18.605 6.17338 18.405 6.17338 18.1595C6.17338 18.1056 6.17989 18.0516 6.19105 18.0005V15.3081C6.19105 14.2023 7.09687 13.2984 8.20823 13.2909H10.8969ZM15.1377 20H13.3484C12.3235 19.9758 11.533 19.1714 11.533 18.1688V15.3081C11.533 14.9649 11.2475 14.6859 10.8969 14.6859H8.21288C7.86971 14.6878 7.58605 14.9677 7.58605 15.3081V18.1595C7.58605 18.2293 7.57675 18.2962 7.55722 18.3595C7.45678 19.2802 6.67 20 5.71674 20H3.92741C1.76143 20 0 18.2525 0 16.1051V8.00107C0.00930005 7.07664 0.435243 6.23034 1.17088 5.67327L7.24846 0.795387C8.58674 -0.264819 10.4514 -0.264819 11.7869 0.793527L17.9082 5.67606C18.6271 6.22383 19.053 7.06827 19.0651 7.98154V16.1051C19.0651 18.2525 17.3037 20 15.1377 20Z" fill="#2E2E2E"/>
</svg>
