<svg width="18" height="18" viewBox="0 0 18 18" fill="none" xmlns="http://www.w3.org/2000/svg">
<g clip-path="url(#clip0_56_8088)">
<path d="M16.3429 2.54175H1.65705C0.731144 2.54175 0 3.29374 0 4.1988V13.8011C0 14.727 0.751992 15.4582 1.65705 15.4582H16.3429C17.2689 15.4582 18 14.7062 18 13.8011V4.1988C18 3.27286 17.248 2.54175 16.3429 2.54175ZM16.9453 13.8011C16.9453 14.1335 16.6761 14.4035 16.3429 14.4035H1.65705C1.32462 14.4035 1.05469 14.1342 1.05469 13.8011V4.1988C1.05469 3.86637 1.32391 3.59644 1.65705 3.59644H16.3429C16.6754 3.59644 16.9453 3.86566 16.9453 4.1988V13.8011Z" fill="#033AA5"/>
<path d="M7.05728 10.2904C7.3637 9.94726 7.55041 9.49512 7.55041 9.00001C7.55041 7.93059 6.68037 7.06055 5.61095 7.06055C4.54153 7.06055 3.67152 7.93059 3.67152 9.00001C3.67152 9.49512 3.85823 9.94726 4.16462 10.2903C3.36155 10.7799 2.82422 11.6641 2.82422 12.6715C2.82422 12.9627 3.06033 13.1988 3.35156 13.1988H7.8703C8.16153 13.1988 8.39764 12.9627 8.39764 12.6715C8.39764 11.6641 7.86032 10.7799 7.05728 10.2904ZM5.61095 8.11523C6.09881 8.11523 6.49573 8.51215 6.49573 9.00001C6.49573 9.48788 6.09881 9.88479 5.61095 9.88479C5.12309 9.88479 4.72621 9.48788 4.72621 9.00001C4.72621 8.51215 5.12309 8.11523 5.61095 8.11523ZM3.96096 12.1442C4.18455 11.4462 4.83969 10.9395 5.61095 10.9395C6.38221 10.9395 7.03731 11.4461 7.26094 12.1442H3.96096Z" fill="#033AA5"/>
<path d="M14.6485 7.62524H10.6946C10.4033 7.62524 10.1672 7.86135 10.1672 8.15259C10.1672 8.44382 10.4033 8.67993 10.6946 8.67993H14.6485C14.9397 8.67993 15.1758 8.44382 15.1758 8.15259C15.1758 7.86135 14.9397 7.62524 14.6485 7.62524Z" fill="#033AA5"/>
<path d="M14.6485 4.80103H3.35156C3.06033 4.80103 2.82422 5.03713 2.82422 5.32837C2.82422 5.6196 3.06033 5.85571 3.35156 5.85571H14.6485C14.9397 5.85571 15.1758 5.6196 15.1758 5.32837C15.1758 5.03713 14.9397 4.80103 14.6485 4.80103Z" fill="#033AA5"/>
<path d="M14.6485 9.88477H10.6946C10.4033 9.88477 10.1672 10.1209 10.1672 10.4121C10.1672 10.7033 10.4033 10.9395 10.6946 10.9395H14.6485C14.9397 10.9395 15.1758 10.7033 15.1758 10.4121C15.1758 10.1209 14.9397 9.88477 14.6485 9.88477Z" fill="#033AA5"/>
<path d="M13.5188 12.144H10.6946C10.4033 12.144 10.1672 12.3802 10.1672 12.6714C10.1672 12.9626 10.4033 13.1987 10.6946 13.1987H13.5188C13.81 13.1987 14.0461 12.9626 14.0461 12.6714C14.0461 12.3802 13.81 12.144 13.5188 12.144Z" fill="#033AA5"/>
</g>
<defs>
<clipPath id="clip0_56_8088">
<rect width="18" height="18" fill="white"/>
</clipPath>
</defs>
</svg>
