<svg width="23" height="23" viewBox="0 0 23 23" fill="none" xmlns="http://www.w3.org/2000/svg">
<path d="M21.8332 13.8334L18.3331 10.3334H10.1664C9.85701 10.3334 9.56026 10.2105 9.34147 9.99167C9.12267 9.77287 8.99976 9.47613 8.99976 9.16671V2.16667C8.99976 1.85725 9.12267 1.5605 9.34147 1.34171C9.56026 1.12292 9.85701 1 10.1664 1H20.6665C20.9759 1 21.2726 1.12292 21.4914 1.34171C21.7102 1.5605 21.8332 1.85725 21.8332 2.16667V13.8334Z" stroke="#033AA5" stroke-width="1.5" stroke-linecap="round" stroke-linejoin="round"/>
<path d="M13.6666 14.9999V17.3332C13.6666 17.6426 13.5437 17.9394 13.3249 18.1582C13.1061 18.377 12.8094 18.4999 12.5 18.4999H4.33327L0.833252 21.9999V10.3332C0.833252 10.0238 0.956169 9.72701 1.17496 9.50821C1.39376 9.28942 1.6905 9.1665 1.99992 9.1665H4.33327" stroke="#033AA5" stroke-width="1.5" stroke-linecap="round" stroke-linejoin="round"/>
</svg>
