<svg width="24" height="24" viewBox="0 0 24 24" fill="none" xmlns="http://www.w3.org/2000/svg">
<g clip-path="url(#clip0_161_31962)">
<path fill-rule="evenodd" clip-rule="evenodd" d="M18.6403 0.074642C18.7694 0.149259 18.8637 0.272094 18.9022 0.416145C18.9408 0.560195 18.9206 0.713669 18.8461 0.84283L17.1544 3.77294C17.1182 3.83833 17.0694 3.89585 17.0107 3.94214C16.952 3.98844 16.8847 4.02258 16.8127 4.04257C16.7407 4.06256 16.6654 4.06801 16.5913 4.05858C16.5172 4.04916 16.4457 4.02506 16.3809 3.98769C16.3162 3.95031 16.2596 3.90042 16.2144 3.84092C16.1692 3.78142 16.1363 3.71351 16.1176 3.64115C16.0989 3.56879 16.0948 3.49343 16.1056 3.41948C16.1164 3.34553 16.1418 3.27446 16.1803 3.21044L17.872 0.280376C17.9466 0.151222 18.0695 0.0569925 18.2136 0.0184112C18.3577 -0.02017 18.5112 5.63544e-05 18.6403 0.074642ZM23.9804 9.20678C23.9804 9.35597 23.9211 9.49904 23.8156 9.60453C23.7101 9.71002 23.5671 9.76928 23.4179 9.76928H20.1366C19.9874 9.76928 19.8444 9.71002 19.7389 9.60453C19.6334 9.49904 19.5741 9.35597 19.5741 9.20678C19.5741 9.0576 19.6334 8.91452 19.7389 8.80904C19.8444 8.70355 19.9874 8.64428 20.1366 8.64428H23.4179C23.5671 8.64428 23.7101 8.70355 23.8156 8.80904C23.9211 8.91452 23.9804 9.0576 23.9804 9.20678ZM19.6308 5.0171L21.8339 3.74491C21.8979 3.70797 21.9686 3.684 22.0418 3.67437C22.1151 3.66473 22.1895 3.66962 22.2609 3.68875C22.3322 3.70788 22.3991 3.74088 22.4577 3.78586C22.5163 3.83085 22.5655 3.88694 22.6024 3.95092C22.6394 4.01491 22.6633 4.08555 22.673 4.1588C22.6826 4.23205 22.6777 4.30649 22.6586 4.37785C22.6395 4.44921 22.6065 4.51611 22.5615 4.57472C22.5165 4.63333 22.4604 4.68251 22.3964 4.71944L20.1933 5.99163C20.0641 6.06622 19.9105 6.08642 19.7664 6.04778C19.6223 6.00915 19.4994 5.91484 19.4248 5.78561C19.3502 5.65638 19.33 5.50281 19.3686 5.35869C19.4073 5.21456 19.5016 5.09169 19.6308 5.0171ZM7.58393 14.4001L3.7908 16.5896C3.70559 16.6392 3.60869 16.6653 3.51007 16.6651C3.38624 16.6651 3.26585 16.6243 3.16757 16.549C3.06929 16.4737 2.99862 16.368 2.96652 16.2484C2.93441 16.1288 2.94267 16.0019 2.99001 15.8875C3.03736 15.7731 3.12113 15.6775 3.22835 15.6155L7.02143 13.4255C7.15066 13.3509 7.30423 13.3307 7.44835 13.3694C7.59248 13.408 7.71535 13.5023 7.78994 13.6315C7.86453 13.7608 7.88473 13.9143 7.8461 14.0585C7.80746 14.2026 7.71316 14.3255 7.58393 14.4001ZM6.60668 12.7074C6.7359 12.6328 6.8302 12.5099 6.86883 12.3658C6.90746 12.2217 6.88726 12.0681 6.81267 11.9389C6.73808 11.8096 6.61521 11.7153 6.47109 11.6767C6.32696 11.6381 6.1734 11.6583 6.04418 11.7329L2.25096 13.9229C2.12173 13.9975 2.02742 14.1203 1.98879 14.2645C1.95015 14.4086 1.97035 14.5622 2.04494 14.6914C2.11953 14.8206 2.24241 14.9149 2.38653 14.9536C2.53066 14.9922 2.68423 14.972 2.81346 14.8974L6.60663 12.7074H6.60668ZM16.5161 12.9258L19.3571 13.6698L12.563 1.90267L11.7867 4.73444C11.3138 6.4608 10.2876 7.79022 8.73752 8.68506L8.31236 8.93064L11.145 13.8371L11.5701 13.5914C13.1204 12.6961 14.7844 12.4725 16.516 12.9258H16.5161ZM12.7107 21.444L11.4253 22.7288C11.3316 22.8219 11.2049 22.8741 11.0728 22.8741C10.9407 22.8741 10.814 22.8219 10.7203 22.7288L6.0619 18.0704L8.13846 16.8717L12.7107 21.444ZM3.24241 17.438C3.60115 17.5359 3.97572 17.5616 4.34446 17.5137C4.7132 17.4658 5.06878 17.3453 5.39065 17.1591L10.1705 14.3996L7.33788 9.49319L2.55799 12.2527C2.07247 12.5322 1.68087 12.9496 1.43286 13.4519C1.18485 13.9543 1.09158 14.519 1.16488 15.0744C1.23819 15.6298 1.47477 16.1509 1.84462 16.5717C2.21447 16.9925 2.70099 17.2941 3.24241 17.438ZM16.9937 6.08913C17.224 6.15023 17.434 6.27131 17.6022 6.44002C17.7705 6.60874 17.891 6.81905 17.9514 7.04953C18.0119 7.28 18.0102 7.52239 17.9464 7.75197C17.8827 7.98156 17.7592 8.19013 17.5885 8.35642L16.2802 6.09095C16.5136 6.02638 16.76 6.02575 16.9937 6.08913ZM18.1604 9.34694C18.6324 8.98001 18.9556 8.45466 19.0704 7.86794C19.1852 7.28123 19.0837 6.67279 18.7848 6.15506C18.4858 5.63733 18.0096 5.24529 17.4441 5.05136C16.8786 4.85743 16.262 4.87473 15.7083 5.10006L13.3074 0.94183C13.2154 0.782372 13.0783 0.653695 12.9133 0.572004C12.7483 0.490313 12.5629 0.45926 12.3803 0.482755C12.1977 0.50625 12.0262 0.583242 11.8873 0.704037C11.7483 0.824832 11.6483 0.984029 11.5997 1.16158L10.7021 4.4373C10.3097 5.86788 9.45991 6.96944 8.17497 7.711L1.99554 11.2786C1.31726 11.6693 0.770227 12.2525 0.423757 12.9544C0.0772862 13.6563 -0.0530267 14.4453 0.049331 15.2213C0.151689 15.9973 0.48211 16.7255 0.998724 17.3136C1.51534 17.9016 2.19489 18.3231 2.95127 18.5245C3.28941 18.6154 3.638 18.6616 3.98815 18.6619C4.31029 18.6618 4.63118 18.6218 4.9435 18.5429L9.92486 23.5242C10.2295 23.8283 10.6424 23.9991 11.0729 23.9991C11.5033 23.9991 11.9162 23.8283 12.2208 23.5242L13.9037 21.8414C13.9559 21.7892 13.9974 21.7272 14.0257 21.659C14.054 21.5907 14.0685 21.5176 14.0685 21.4437C14.0685 21.3698 14.054 21.2967 14.0257 21.2284C13.9974 21.1602 13.9559 21.0982 13.9037 21.046L9.14721 16.2891L12.1327 14.5655C13.4171 13.8239 14.7962 13.6383 16.2309 14.0143L19.5164 14.8744C19.6945 14.9212 19.8825 14.9142 20.0567 14.8543C20.2308 14.7945 20.3833 14.6844 20.495 14.538C20.6067 14.3915 20.6726 14.2153 20.6843 14.0316C20.696 13.8478 20.653 13.6646 20.5608 13.5052L18.1604 9.34694Z" fill="#033AA5"/>
</g>
<defs>
<clipPath id="clip0_161_31962">
<rect width="24" height="24" fill="white"/>
</clipPath>
</defs>
</svg>
