<svg width="16" height="18" viewBox="0 0 16 18" fill="none" xmlns="http://www.w3.org/2000/svg">
<path d="M6.22225 2.77778C6.22225 2.30628 6.40955 1.8541 6.74295 1.5207C7.07635 1.1873 7.52853 1 8.00003 1C8.47152 1 8.92371 1.1873 9.25711 1.5207C9.5905 1.8541 9.7778 2.30628 9.7778 2.77778C10.7986 3.26047 11.6688 4.01185 12.2952 4.95138C12.9215 5.89091 13.2804 6.98318 13.3334 8.11111V10.7778C13.4003 11.3304 13.596 11.8596 13.9047 12.3228C14.2135 12.7859 14.6267 13.1701 15.1111 13.4444H0.888916C1.37331 13.1701 1.78652 12.7859 2.0953 12.3228C2.40409 11.8596 2.5998 11.3304 2.66669 10.7778V8.11111C2.71964 6.98318 3.07852 5.89091 3.70487 4.95138C4.33123 4.01185 5.20144 3.26047 6.22225 2.77778Z" stroke="#FAFAFE" stroke-linecap="round" stroke-linejoin="round"/>
<path d="M5.33337 13.4443V14.3332C5.33337 15.0405 5.61433 15.7187 6.11442 16.2188C6.61452 16.7189 7.2928 16.9999 8.00004 16.9999C8.70728 16.9999 9.38556 16.7189 9.88566 16.2188C10.3858 15.7187 10.6667 15.0405 10.6667 14.3332V13.4443" stroke="#FAFAFE" stroke-linecap="round" stroke-linejoin="round"/>
</svg>
