<svg width="20" height="20" viewBox="0 0 20 20" fill="none" xmlns="http://www.w3.org/2000/svg">
<circle cx="10" cy="10" r="9.75" fill="white" fill-opacity="0.3" stroke="#033AA5" stroke-width="0.5"/>
<path d="M7.85729 14.4537C7.72539 14.4534 7.59581 14.4188 7.48132 14.3533C7.22351 14.2072 7.06323 13.9236 7.06323 13.6158V7.38529C7.06323 7.07656 7.22351 6.79383 7.48132 6.64773C7.59854 6.58037 7.7317 6.54572 7.86689 6.54742C8.00208 6.54912 8.13433 6.58711 8.24981 6.6574L13.5747 9.84482C13.6857 9.91441 13.7772 10.011 13.8406 10.1257C13.904 10.2403 13.9373 10.3691 13.9373 10.5001C13.9373 10.6311 13.904 10.7599 13.8406 10.8745C13.7772 10.9892 13.6857 11.0858 13.5747 11.1554L8.24895 14.3437C8.13077 14.4151 7.9954 14.4531 7.85729 14.4537Z" fill="#033AA5"/>
</svg>
