<svg width="23" height="26" viewBox="0 0 23 26" fill="none" xmlns="http://www.w3.org/2000/svg">
<path fill-rule="evenodd" clip-rule="evenodd" d="M22.5064 6.66527C22.3139 6.20452 22.0829 5.83976 21.8133 5.57099L17.308 1.0787C17.0384 0.809929 16.6726 0.579555 16.2105 0.387577C15.7485 0.195599 15.3249 0.0996094 14.9398 0.0996094H2.00148C1.61642 0.0996094 1.28911 0.233994 1.01956 0.502764C0.750009 0.771534 0.615234 1.0979 0.615234 1.48185V24.5193C0.615234 24.9032 0.750009 25.2296 1.01956 25.4984C1.28911 25.7671 1.61642 25.9015 2.00148 25.9015H21.409C21.7941 25.9015 22.1214 25.7671 22.3909 25.4984C22.6605 25.2296 22.7952 24.9032 22.7952 24.5193V7.93233C22.7952 7.54837 22.699 7.12602 22.5064 6.66527ZM15.4023 7.46914V2.05753C15.6815 2.15348 15.8789 2.25903 15.9944 2.37417L20.5141 6.87905C20.6297 6.99419 20.7355 7.19089 20.8318 7.46914H15.4023ZM20.9486 24.0552V9.31124H14.9415C14.5564 9.31124 14.2291 9.17686 13.9596 8.90809C13.69 8.63932 13.5553 8.31296 13.5553 7.929V1.93927H2.46525V24.0552H20.9486ZM14.7374 16.3232C14.2464 16.0353 13.8421 15.7666 13.5244 15.517C12.6484 14.8068 11.9456 13.6646 11.4162 12.0906C11.5317 11.4283 11.5991 10.5069 11.6183 9.32635V8.89445C11.6183 8.84646 11.6135 8.80807 11.6039 8.77927C11.6231 8.76008 11.6424 8.72168 11.6616 8.6641C11.7483 8.21299 11.705 7.88666 11.5317 7.68511C11.4162 7.54114 11.2477 7.46915 11.0263 7.46915H10.7086C10.4102 7.46915 10.208 7.66111 10.1021 8.04503C9.97695 8.52493 9.94567 9.13679 10.0082 9.88063C10.0708 10.6245 10.2176 11.3899 10.4487 12.1769C10.1021 13.3863 9.60151 14.6436 8.94689 15.9489C8.41742 17.0239 7.90239 17.9693 7.4018 18.7851C7.4018 18.7659 7.39218 18.7467 7.37292 18.7275C7.28628 18.5836 7.17558 18.5548 7.0408 18.6411C6.22253 19.073 5.58717 19.5361 5.13471 20.0304C4.68225 20.5247 4.4127 20.9638 4.32606 21.3478C4.28756 21.5973 4.31644 21.7701 4.4127 21.866C4.46084 21.9044 4.48972 21.9284 4.49934 21.938L4.84591 22.1108C4.97105 22.178 5.10583 22.2116 5.25023 22.2116C6.10701 22.2116 7.27184 20.9542 8.74473 18.4396C10.3909 17.8733 12.2777 17.475 14.4052 17.2446C15.0117 17.5614 15.6375 17.8157 16.2825 18.0077C16.9275 18.1996 17.481 18.2956 17.9431 18.2956C18.5688 18.2956 18.9106 18.1133 18.9683 17.7485V17.7341L18.9972 17.7053C19.0068 17.6957 19.0116 17.6861 19.0116 17.6765C19.1464 17.3886 19.1368 17.1391 18.9828 16.9279C18.694 16.4576 17.842 16.2225 16.4269 16.2225C15.8685 16.2225 15.3053 16.2561 14.7374 16.3232ZM5.20899 21.4375C5.70959 21.2072 6.36902 20.4492 7.18729 19.1635C6.69633 19.5473 6.27516 19.9503 5.92378 20.3725C5.5724 20.7946 5.33414 21.1497 5.20899 21.4375ZM10.9266 10.088C10.8014 9.22513 10.8111 8.5924 10.9555 8.18975V8.16099C10.9651 8.1514 10.9699 8.14182 10.9699 8.13223C11.0854 8.26645 11.148 8.43901 11.1576 8.64992C11.1576 8.65951 11.1624 8.67389 11.1721 8.69306C11.1721 8.70265 11.1769 8.71224 11.1865 8.72182C11.1576 8.76017 11.1384 8.79852 11.1288 8.83687C11.0614 9.22034 11.0277 9.42646 11.0277 9.45522C10.9699 9.80993 10.9362 10.0208 10.9266 10.088ZM9.16495 17.7069C10.4646 17.1888 11.8316 16.8002 13.2659 16.5411C13.2467 16.5315 13.1841 16.486 13.0782 16.4044C12.9723 16.3228 12.8953 16.2581 12.8472 16.2101C12.1155 15.5672 11.5042 14.7229 11.0133 13.677C10.7534 14.5022 10.3539 15.4473 9.81476 16.5123C9.52595 17.0497 9.30935 17.4479 9.16495 17.7069ZM16.4714 17.1347C17.5881 17.1347 18.262 17.2503 18.493 17.4814C18.5123 17.5007 18.5219 17.5151 18.5219 17.5247C18.4834 17.5344 18.3968 17.5392 18.262 17.5392C17.7999 17.5392 17.2031 17.4044 16.4714 17.1347Z" fill="#F64D0A"/>
</svg>
