<svg width="17" height="20" viewBox="0 0 17 20" fill="none" xmlns="http://www.w3.org/2000/svg">
<path fill-rule="evenodd" clip-rule="evenodd" d="M16.8946 16.299C16.8946 19.6165 12.3451 20 8.92396 20L8.67914 19.9998C6.49945 19.9945 0.951294 19.8569 0.951294 16.2789C0.951294 13.0291 5.31794 12.5948 8.71308 12.5784L9.16877 12.5781C11.3483 12.5834 16.8946 12.721 16.8946 16.299ZM8.92396 14.0877C4.63517 14.0877 2.46108 14.8245 2.46108 16.2789C2.46108 17.7464 4.63517 18.4902 8.92396 18.4902C13.2117 18.4902 15.3848 17.7534 15.3848 16.299C15.3848 14.8315 13.2117 14.0877 8.92396 14.0877ZM8.92396 0C11.8711 0 14.2676 2.39754 14.2676 5.34463C14.2676 8.29173 11.8711 10.6883 8.92396 10.6883H8.89175C5.95069 10.6792 3.56825 8.28066 3.57829 5.34161C3.57829 2.39754 5.97585 0 8.92396 0ZM8.92396 1.43731C6.76899 1.43731 5.01561 3.18967 5.01561 5.34463C5.00859 7.49255 6.74886 9.2439 8.89477 9.25195L8.92396 9.97061V9.25195C11.0779 9.25195 12.8303 7.49859 12.8303 5.34463C12.8303 3.18967 11.0779 1.43731 8.92396 1.43731Z" fill="#2E2E2E"/>
</svg>
