<svg width="20" height="20" viewBox="0 0 20 20" fill="none" xmlns="http://www.w3.org/2000/svg">
<circle cx="10" cy="10" r="9.75" fill="white" fill-opacity="0.3" stroke="#808080" stroke-width="0.5"/>
<path d="M7.85754 14.4537C7.72563 14.4534 7.59606 14.4188 7.48156 14.3533C7.22375 14.2072 7.06348 13.9236 7.06348 13.6158V7.38529C7.06348 7.07656 7.22375 6.79383 7.48156 6.64773C7.59878 6.58037 7.73194 6.54572 7.86713 6.54742C8.00232 6.54912 8.13457 6.58711 8.25006 6.6574L13.575 9.84482C13.6859 9.91441 13.7774 10.011 13.8408 10.1257C13.9043 10.2403 13.9375 10.3691 13.9375 10.5001C13.9375 10.6311 13.9043 10.7599 13.8408 10.8745C13.7774 10.9892 13.6859 11.0858 13.575 11.1554L8.2492 14.3437C8.13101 14.4151 7.99564 14.4531 7.85754 14.4537Z" fill="black"/>
</svg>
