<svg width="10" height="10" viewBox="0 0 10 10" fill="none" xmlns="http://www.w3.org/2000/svg">
<g clip-path="url(#clip0_1037_8022)">
<path d="M9.9125 4.1127L7.67917 6.4002L8.20417 9.63769C8.25042 9.89603 7.97 10.0852 7.74583 9.96269L5 8.44186V0.0126953C5.11667 0.0126953 5.23333 0.066862 5.28333 0.179362L6.6625 3.11686L9.73333 3.58353C9.99 3.62936 10.0846 3.93145 9.9125 4.1127Z" fill="#ECEFF1"/>
<path d="M5.00002 0.0126953V8.44186L2.25419 9.96269C2.03377 10.0864 1.74919 9.89894 1.79586 9.63769L2.32086 6.4002L0.0875239 4.1127C-0.0845595 3.93145 0.00960721 3.62936 0.266691 3.58353L3.33752 3.11686L4.71669 0.179362C4.76669 0.066862 4.88336 0.0126953 5.00002 0.0126953Z" fill="#FFC107"/>
</g>
<defs>
<clipPath id="clip0_1037_8022">
<rect width="10" height="10" fill="white"/>
</clipPath>
</defs>
</svg>
