<svg width="22" height="18" viewBox="0 0 22 18" fill="none" xmlns="http://www.w3.org/2000/svg">
<path d="M0.6875 3.55042H11.8814C12.1902 4.79798 13.3187 5.7258 14.6603 5.7258C16.0019 5.7258 17.1305 4.79798 17.4393 3.55042H21.3125C21.6922 3.55042 22 3.24259 22 2.86292C22 2.48325 21.6922 2.17542 21.3125 2.17542H17.4392C17.1305 0.927867 16.0019 0 14.6603 0C13.3186 0 12.1901 0.927867 11.8814 2.17542H0.6875C0.307828 2.17542 0 2.48325 0 2.86292C0 3.24259 0.307828 3.55042 0.6875 3.55042ZM14.6603 1.375C15.4808 1.375 16.1483 2.04248 16.1483 2.86288C16.1483 3.68332 15.4808 4.3508 14.6603 4.3508C13.8399 4.3508 13.1724 3.68332 13.1724 2.86288C13.1724 2.04248 13.8399 1.375 14.6603 1.375ZM0.6875 9.49678H4.56079C4.86956 10.7443 5.99805 11.6722 7.33971 11.6722C8.68136 11.6722 9.80985 10.7443 10.1186 9.49678H21.3125C21.6922 9.49678 22 9.18895 22 8.80928C22 8.42961 21.6922 8.12178 21.3125 8.12178H10.1186C9.80981 6.87423 8.68132 5.94636 7.33966 5.94636C5.99801 5.94636 4.86952 6.87423 4.56075 8.12178H0.6875C0.307828 8.12178 0 8.42961 0 8.80928C0 9.18895 0.307785 9.49678 0.6875 9.49678ZM7.33966 7.32136C8.16011 7.32136 8.82759 7.98884 8.82759 8.80928C8.82759 9.62968 8.16011 10.2972 7.33966 10.2972C6.51922 10.2972 5.85174 9.62968 5.85174 8.80928C5.85174 7.98884 6.51922 7.32136 7.33966 7.32136ZM21.3125 14.0681H17.4392C17.1304 12.8206 16.0019 11.8927 14.6603 11.8927C13.3186 11.8927 12.1901 12.8206 11.8814 14.0681H0.6875C0.307828 14.0681 0 14.376 0 14.7556C0 15.1353 0.307828 15.4431 0.6875 15.4431H11.8814C12.1902 16.6907 13.3187 17.6186 14.6603 17.6186C16.002 17.6186 17.1305 16.6907 17.4393 15.4431H21.3125C21.6922 15.4431 22 15.1353 22 14.7556C22 14.376 21.6922 14.0681 21.3125 14.0681ZM14.6603 16.2436C13.8399 16.2436 13.1724 15.5761 13.1724 14.7556C13.1724 13.9352 13.8399 13.2677 14.6603 13.2677C15.4808 13.2677 16.1483 13.9352 16.1483 14.7556C16.1483 15.5761 15.4808 16.2436 14.6603 16.2436Z" fill="white"/>
</svg>
