<svg width="24" height="24" viewBox="0 0 24 24" fill="none" xmlns="http://www.w3.org/2000/svg">
<path d="M15.6667 19.6666V18.2" stroke="#033AA5" stroke-width="1.5" stroke-miterlimit="10" stroke-linecap="round" stroke-linejoin="round"/>
<path d="M15.6667 15.2667V13.8" stroke="#033AA5" stroke-width="1.5" stroke-miterlimit="10" stroke-linecap="round" stroke-linejoin="round"/>
<path d="M15.6667 10.8667V9.40002" stroke="#033AA5" stroke-width="1.5" stroke-miterlimit="10" stroke-linecap="round" stroke-linejoin="round"/>
<path d="M15.6667 6.4667V5" stroke="#033AA5" stroke-width="1.5" stroke-miterlimit="10" stroke-linecap="round" stroke-linejoin="round"/>
<path d="M23 9.4C21.3812 9.4 20.0667 10.7145 20.0667 12.3333C20.0667 13.9522 21.3812 15.2667 23 15.2667V16.9753C23 18.7196 22.0529 19.6667 20.3087 19.6667H3.69135C1.9471 19.6667 1 18.7196 1 16.9753V15.2667C2.61883 15.2667 3.93335 13.9522 3.93335 12.3333C3.93335 10.7145 2.61883 9.4 1 9.4V7.69135C1 5.94714 1.9471 5 3.69135 5H20.3087C22.0529 5 23 5.9471 23 7.69135V9.4Z" stroke="#033AA5" stroke-width="1.5" stroke-miterlimit="10" stroke-linecap="round" stroke-linejoin="round"/>
</svg>
