<svg width="32" height="22" viewBox="0 0 32 22" fill="none" xmlns="http://www.w3.org/2000/svg">
<path d="M16 0C11.88 0 8.64 3.13 8.187 7.125C7.31565 7.26541 6.49846 7.63879 5.82195 8.20563C5.14544 8.77247 4.63477 9.51168 4.344 10.345C1.884 11.054 0 13.248 0 16C0 19.324 2.676 22 6 22H26C29.324 22 32 19.324 32 16C32 14.24 31.145 12.664 29.906 11.562C29.674 8.048 26.871 5.244 23.344 5.062C22.14 2.133 19.378 0 16 0ZM16 2C18.762 2 20.97 3.77 21.75 6.28L21.97 7H23C25.755 7 28 9.245 28 12V12.5L28.406 12.813C28.896 13.1885 29.2942 13.6706 29.5703 14.2228C29.8465 14.7749 29.9934 15.3827 30 16C30 18.276 28.276 20 26 20H6C3.724 20 2 18.276 2 16C2 13.98 3.45 12.412 5.28 12.094L5.937 11.969L6.062 11.311C6.362 9.964 7.556 9 9 9H10V8C10 4.63 12.63 2 16 2ZM16 7.594L15.28 8.281L11.28 12.281L12.72 13.721L15 11.437V18H17V11.437L19.28 13.719L20.72 12.279L16.72 8.279L16 7.594Z" fill="#888888"/>
</svg>
