<svg width="17" height="12" viewBox="0 0 17 12" fill="none" xmlns="http://www.w3.org/2000/svg">
<path d="M1.12574 0.303652C1.24248 0.142732 1.41834 0.0347491 1.61467 0.00343442C1.811 -0.0278803 2.01172 0.0200358 2.17274 0.136652L16.6727 10.6367C16.7556 10.6932 16.8262 10.7658 16.8805 10.8501C16.9348 10.9344 16.9716 11.0287 16.9888 11.1275C17.006 11.2263 17.0032 11.3275 16.9806 11.4252C16.958 11.5229 16.916 11.6151 16.8572 11.6963C16.7983 11.7775 16.7238 11.846 16.638 11.8979C16.5522 11.9498 16.4568 11.984 16.3576 11.9984C16.2583 12.0127 16.1572 12.0071 16.0602 11.9817C15.9632 11.9563 15.8722 11.9118 15.7927 11.8507L13.5447 10.2227C12.3287 11.1837 10.7747 11.9937 8.98274 11.9937C7.00174 11.9937 5.31274 11.0017 4.04974 9.91565C2.77974 8.82565 1.86274 7.57065 1.41274 6.89365C1.23525 6.62761 1.14053 6.31496 1.14053 5.99515C1.14053 5.67534 1.23525 5.36269 1.41274 5.09665C1.76574 4.56365 2.40774 3.67665 3.28074 2.79165L1.29274 1.35065C1.13182 1.23391 1.02383 1.05805 0.99252 0.86172C0.961205 0.665393 1.00912 0.464666 1.12574 0.303652ZM2.66174 5.92565C2.64767 5.94556 2.63999 5.96928 2.63974 5.99365C2.63974 6.01465 2.64574 6.03865 2.66174 6.06165C3.07374 6.68265 3.90374 7.81165 5.02774 8.77865C6.15774 9.75165 7.50974 10.4937 8.98274 10.4937C10.1777 10.4937 11.2927 10.0057 12.2727 9.30265L10.0457 7.68865C9.7081 7.90073 9.31478 8.00705 8.91628 7.99396C8.51777 7.98087 8.13228 7.84896 7.80929 7.61518C7.4863 7.38141 7.24055 7.05642 7.10361 6.68196C6.96666 6.3075 6.94477 5.90065 7.04074 5.51365L4.51174 3.68165C3.81993 4.3644 3.20002 5.11634 2.66174 5.92565ZM8.98274 1.49365C8.46674 1.49365 7.96574 1.58365 7.48374 1.74465C7.38961 1.77851 7.28966 1.7932 7.18977 1.78786C7.08988 1.78251 6.99207 1.75724 6.90209 1.71352C6.81212 1.6698 6.7318 1.60853 6.66586 1.53331C6.59992 1.45808 6.5497 1.37043 6.51814 1.2755C6.48659 1.18057 6.47435 1.08029 6.48213 0.980565C6.48991 0.880836 6.51757 0.783671 6.56347 0.69479C6.60937 0.60591 6.67259 0.52711 6.7494 0.463028C6.82621 0.398946 6.91507 0.350878 7.01074 0.321652C7.64603 0.106488 8.312 -0.00428164 8.98274 -0.00634766C10.9637 -0.00634766 12.6527 0.985652 13.9157 2.07165C15.1857 3.16265 16.1027 4.41665 16.5527 5.09465C16.7303 5.36085 16.8251 5.67367 16.8251 5.99365C16.8251 6.31364 16.7303 6.62646 16.5527 6.89265C16.4427 7.05865 16.3047 7.25765 16.1427 7.47965C16.0845 7.5591 16.0112 7.6263 15.927 7.67742C15.8428 7.72853 15.7493 7.76256 15.6519 7.77755C15.5546 7.79255 15.4552 7.78822 15.3595 7.76482C15.2638 7.74142 15.1737 7.69939 15.0942 7.64115C15.0148 7.58291 14.9476 7.50959 14.8965 7.42538C14.8454 7.34117 14.8113 7.24771 14.7963 7.15035C14.7813 7.05299 14.7857 6.95362 14.8091 6.85793C14.8325 6.76225 14.8745 6.6721 14.9327 6.59265C15.0807 6.39165 15.2047 6.21065 15.3037 6.06265C15.3179 6.0426 15.3254 6.01868 15.3254 5.99415C15.3254 5.96963 15.3179 5.94571 15.3037 5.92565C14.8917 5.30465 14.0617 4.17565 12.9377 3.20865C11.8077 2.23565 10.4557 1.49365 8.98274 1.49365Z" fill="#033AA5"/>
</svg>
