<svg width="22" height="22" viewBox="0 0 22 22" fill="none" xmlns="http://www.w3.org/2000/svg">
<path d="M11 14.4375C6.46252 14.4375 6.46252 7.5625 11 7.5625C15.486 7.5625 15.6798 14.4375 11 14.4375ZM11 8.9375C8.25002 8.9375 8.25002 13.0625 11 13.0625C13.75 13.0625 13.75 8.9375 11 8.9375Z" fill="#033AA5"/>
<path d="M11 17.1875C7.59757 17.1875 4.33951 15.3801 2.06251 12.2279C1.80366 11.8708 1.66428 11.441 1.66428 11C1.66428 10.559 1.80366 10.1292 2.06251 9.77212C4.33951 6.61994 7.59757 4.8125 11 4.8125C14.4024 4.8125 17.6605 6.61994 19.9375 9.77212C20.1964 10.1292 20.3357 10.559 20.3357 11C20.3357 11.441 20.1964 11.8708 19.9375 12.2279C17.6605 15.3801 14.4024 17.1875 11 17.1875ZM3.1742 11.4221C5.22157 14.2533 8.00045 15.8125 11 15.8125C13.9996 15.8125 16.7784 14.2533 18.8258 11.4221C18.9149 11.2993 18.9628 11.1514 18.9628 10.9997C18.9628 10.8479 18.9149 10.7 18.8258 10.5772C16.7784 7.74675 13.9996 6.1875 11 6.1875C8.00045 6.1875 5.22157 7.74675 3.1742 10.5779C3.08514 10.7007 3.03718 10.8486 3.03718 11.0003C3.03718 11.1521 3.08514 11.2993 3.1742 11.4221Z" fill="#033AA5"/>
</svg>
