<svg width="17" height="12" viewBox="0 0 17 12" fill="none" xmlns="http://www.w3.org/2000/svg">
<path d="M1.12574 0.303774C1.24248 0.142855 1.41834 0.0348712 1.61467 0.00355649C1.811 -0.0277582 2.01172 0.0201579 2.17274 0.136774L16.6727 10.6368C16.7556 10.6933 16.8262 10.7659 16.8805 10.8502C16.9348 10.9345 16.9716 11.0288 16.9888 11.1276C17.006 11.2264 17.0032 11.3277 16.9806 11.4254C16.958 11.5231 16.916 11.6152 16.8572 11.6964C16.7983 11.7776 16.7238 11.8462 16.638 11.8981C16.5522 11.9499 16.4568 11.9841 16.3576 11.9985C16.2583 12.0129 16.1572 12.0072 16.0602 11.9818C15.9632 11.9565 15.8722 11.9119 15.7927 11.8508L13.5447 10.2228C12.3287 11.1838 10.7747 11.9938 8.98274 11.9938C7.00174 11.9938 5.31274 11.0018 4.04974 9.91577C2.77974 8.82577 1.86274 7.57077 1.41274 6.89377C1.23525 6.62773 1.14053 6.31509 1.14053 5.99527C1.14053 5.67546 1.23525 5.36282 1.41274 5.09677C1.76574 4.56377 2.40774 3.67677 3.28074 2.79177L1.29274 1.35077C1.13182 1.23403 1.02383 1.05817 0.99252 0.861842C0.961205 0.665515 1.00912 0.464788 1.12574 0.303774ZM2.66174 5.92577C2.64767 5.94568 2.63999 5.9694 2.63974 5.99377C2.63974 6.01477 2.64574 6.03877 2.66174 6.06177C3.07374 6.68277 3.90374 7.81177 5.02774 8.77877C6.15774 9.75177 7.50974 10.4938 8.98274 10.4938C10.1777 10.4938 11.2927 10.0058 12.2727 9.30277L10.0457 7.68877C9.7081 7.90085 9.31478 8.00717 8.91628 7.99408C8.51777 7.98099 8.13228 7.84909 7.80929 7.61531C7.4863 7.38153 7.24055 7.05654 7.10361 6.68208C6.96666 6.30762 6.94477 5.90077 7.04074 5.51377L4.51174 3.68177C3.81993 4.36452 3.20002 5.11646 2.66174 5.92577ZM8.98274 1.49377C8.46674 1.49377 7.96574 1.58377 7.48374 1.74477C7.38961 1.77864 7.28966 1.79333 7.18977 1.78798C7.08988 1.78263 6.99207 1.75736 6.90209 1.71364C6.81212 1.66993 6.7318 1.60865 6.66586 1.53343C6.59992 1.4582 6.5497 1.37055 6.51814 1.27562C6.48659 1.1807 6.47435 1.08042 6.48213 0.980687C6.48991 0.880958 6.51757 0.783793 6.56347 0.694912C6.60937 0.606032 6.67259 0.527232 6.7494 0.46315C6.82621 0.399068 6.91507 0.351 7.01074 0.321774C7.64603 0.10661 8.312 -0.00415957 8.98274 -0.00622559C10.9637 -0.00622559 12.6527 0.985775 13.9157 2.07177C15.1857 3.16277 16.1027 4.41677 16.5527 5.09477C16.7303 5.36097 16.8251 5.67379 16.8251 5.99377C16.8251 6.31376 16.7303 6.62658 16.5527 6.89277C16.4427 7.05877 16.3047 7.25777 16.1427 7.47977C16.0845 7.55922 16.0112 7.62642 15.927 7.67754C15.8428 7.72865 15.7493 7.76268 15.6519 7.77768C15.5546 7.79267 15.4552 7.78834 15.3595 7.76494C15.2638 7.74154 15.1737 7.69952 15.0942 7.64127C15.0148 7.58303 14.9476 7.50971 14.8965 7.4255C14.8454 7.34129 14.8113 7.24783 14.7963 7.15047C14.7813 7.05311 14.7857 6.95375 14.8091 6.85806C14.8325 6.76237 14.8745 6.67222 14.9327 6.59277C15.0807 6.39177 15.2047 6.21077 15.3037 6.06277C15.3179 6.04272 15.3254 6.0188 15.3254 5.99427C15.3254 5.96975 15.3179 5.94583 15.3037 5.92577C14.8917 5.30477 14.0617 4.17577 12.9377 3.20877C11.8077 2.23577 10.4557 1.49377 8.98274 1.49377Z" fill="#2E2E2E"/>
</svg>
