<svg width="22" height="21" viewBox="0 0 22 21" fill="none" xmlns="http://www.w3.org/2000/svg">
<path d="M10.7119 2.13847C10.002 1.67392 9.15979 1.29882 8.29207 1.07863C7.27147 0.819636 6.15475 0.760131 5.15075 1.08418L10.7119 2.13847ZM10.7119 2.13847C11.403 1.68268 12.2465 1.31347 13.1123 1.09395C14.1362 0.834352 15.2707 0.76442 16.2659 1.08387L16.2668 1.08414C18.1908 1.70422 19.4071 3.06171 19.9985 4.65401C20.5823 6.2261 20.5575 8.01818 20.056 9.58748C19.2972 11.9957 17.3929 14.1263 15.5689 15.7329C13.7272 17.355 11.8751 18.5222 11.0975 18.9866L10.7142 19.2154L10.3303 18.9878C9.55436 18.5275 7.71327 17.3724 5.87617 15.7543C4.05496 14.1501 2.15214 12.0174 1.37068 9.58603L1.37041 9.58521C0.868381 8.01713 0.842589 6.22527 1.425 4.65327C2.01468 3.06166 3.22871 1.70404 5.15052 1.08425L10.7119 2.13847Z" fill="white" stroke="#2E2E2E" stroke-width="1.5"/>
</svg>
